{
.appVersion = "1230";
DisplayStrings = (
"HHH\012OOO\012HOH\012HHOOHH\012HXH HHXOOH\012HAH HVH\012HWH HYH HTH HJH\012HDH HPH HRH HLH\012HKH HBH HEH HFH\012HUH HIH\012HNH HMH\012HQH HCH HGH\012HZH HSH\012USWDS\012USAID\012USWDS FedRAMP.",
"tracy method\012uon nou noon ooo\012unn nnn\012uxn nxu oxo txt sxs kxf xxx\012uvn uwn uyn ovo tvt svs\012urn umn txt ujn\012uun ubn upn\012ukn uln uhn uin\012ucn uen uqn udn\012ugn uan usn\012uzn uun ufn utn",
"Moye triplets\012lnl ana ono vnv\012lal aaa oao vav\012lbl aba obo vbv\012lcl aca oco vcv\012ldl ada odo vdv\012lel aea oeo vev\012lfl afa ofo vfv\012lkl aka oko vkv\012lll ala olo vlv\012lol aoa ooo vov\012lsl asa oso vsv\012lvl ava ovo vvv\012lxl axa oxo vxv\012lpl apa opo vpv oan\012lql aqa oqo vqv",
"Public Sans",
notxjs,
"un nu oo\012uon nou noon ooo\012uxn nxu nxon uoxon\012utn ntu nton uoton\012ufn nfu nfon uofon\012urn nru nron uoron\012nnn ooo ttt fff\012xxx vvv rrr nossses",
"unn nu oo\012ugn ngu ngon ogo oxo xanax uan\012ugt ugx rgr nogon ujn uin\012ogt ogx ogj ngu ugn uxnurn\012vgv xovovavaxa vonv voav",
"un nu oo\012uln nlu nlon olo olxo olj olz\012uzn nzu xzx vxv oxo\012notxjz ujn uin ugj nkokofxox\012vfv vtv"
);
customParameters = (
{
name = fsType;
value = (
);
},
{
name = licenseURL;
value = "http://scripts.sil.org/OFL";
},
{
name = license;
value = "This Font Software is licensed under the SIL Open Font License, Version 1.1. This license is available with a FAQ at: http://scripts.sil.org/OFL";
},
{
name = trademark;
value = "Public Sans is based on Libre Franklin, which is a trademark of Impallari Type.";
},
{
name = description;
value = "Libre Franklin is a reinterpretation and expansion of the 1912 Morris Fuller Benton’s classic.";
},
{
name = note;
value = "Based on Libre Franklin";
},
{
name = vsuffix;
value = "";
},
{
name = Axes;
value = (
{
Name = Weight;
Tag = wght;
}
);
},
{
name = "Variable Font File Name";
value = "PublicSans-Roman-VF";
},
{
name = "Variable Font Family Name";

glyphs = (
{
glyphname = A;
lastChange = "2019-05-07 22:20:45 +0000";
layers = (
{
anchors = (
{
name = bottom;
position = "{742, 0}";
},
{
name = ogonek;
position = "{1406, 10}";
},
{
name = top;
position = "{742, 1446}";
}
);
background = {
anchors = (
{
name = ogonek;
position = "{1470, 18}";
},
{
name = top;
position = "{768, 1484}";
}
);
paths = (
{
closed = 1;
nodes = (
"368 0 LINE SMOOTH",
"396 0 OFFCURVE",
"410 14 OFFCURVE",
"416 30 CURVE SMOOTH",
"498 266 LINE SMOOTH",
"502 280 OFFCURVE",
"512 288 OFFCURVE",
"528 288 CURVE SMOOTH",
"952 288 LINE SMOOTH",
"972 288 OFFCURVE",
"976 278 OFFCURVE",
"982 264 CURVE SMOOTH",
"1060 34 LINE SMOOTH",
"1068 8 OFFCURVE",
"1084 0 OFFCURVE",
"1104 0 CURVE SMOOTH",
"1496 0 LINE SMOOTH",
"1526 0 OFFCURVE",
"1534 40 OFFCURVE",
"1524 68 CURVE SMOOTH",
"1044 1430 LINE SMOOTH",
"1032 1462 OFFCURVE",
"1006 1484 OFFCURVE",
"972 1484 CURVE SMOOTH",
"578 1484 LINE SMOOTH",
"542 1484 OFFCURVE",
"530 1470 OFFCURVE",
"518 1438 CURVE SMOOTH",
"34 74 LINE SMOOTH",
"18 30 OFFCURVE",
"34 0 OFFCURVE",
"64 0 CURVE SMOOTH"
);
},
{
closed = 1;
nodes = (
"600 628 OFFCURVE",
"594 644 OFFCURVE",
"604 670 CURVE SMOOTH",
"726 1010 LINE SMOOTH",
"730 1024 OFFCURVE",
"744 1024 OFFCURVE",
"750 1010 CURVE SMOOTH",
"870 668 LINE SMOOTH",
"878 642 OFFCURVE",
"874 628 OFFCURVE",
"852 628 CURVE SMOOTH",
"624 628 LINE SMOOTH"
);
}
);
};
layerId = "258ED206-D907-4350-8EBA-CBDDA1C16BF7";
paths = (
{
closed = 1;
nodes = (
"418 0 LINE",
"516 280 LINE",
"972 280 LINE",
"1068 0 LINE",
"1452 0 LINE",
"940 1446 LINE",
"542 1446 LINE",
"30 0 LINE"
);
},
{
closed = 1;
nodes = (
"742 1074 LINE",
"884 612 LINE",
"598 612 LINE"
);
}
);
width = 1482;
},
{
anchors = (
{
name = bottom;
position = "{664, 0}";
},
{
name = ogonek;
position = "{1244, 24}";
},
{
name = top;
position = "{664, 1446}";
}
);
background = {
anchors = (
{
name = ogonek;
position = "{1262, 22}";
},
{
name = top;
position = "{684, 1484}";
}
);
paths = (
{
closed = 1;
nodes = (
"154 0 LINE SMOOTH",
"166 0 OFFCURVE",
"174 4 OFFCURVE",
"176 14 CURVE SMOOTH",
"342 462 LINE SMOOTH",
"346 472 OFFCURVE",
"350 476 OFFCURVE",
"362 476 CURVE SMOOTH",
"1006 476 LINE SMOOTH",
"1018 476 OFFCURVE",
"1022 472 OFFCURVE",
"1026 462 CURVE SMOOTH",
"1188 16 LINE SMOOTH",
"1192 4 OFFCURVE",
"1200 0 OFFCURVE",
"1214 0 CURVE SMOOTH",
"1262 0 LINE SMOOTH",
"1276 0 OFFCURVE",
"1282 8 OFFCURVE",
"1278 20 CURVE SMOOTH",
"754 1464 LINE SMOOTH",
"750 1478 OFFCURVE",
"738 1484 OFFCURVE",
"718 1484 CURVE SMOOTH",
"652 1484 LINE SMOOTH",
"634 1484 OFFCURVE",
"626 1478 OFFCURVE",
"620 1462 CURVE SMOOTH",
"90 18 LINE SMOOTH",
"86 6 OFFCURVE",
"92 0 OFFCURVE",
"104 0 CURVE SMOOTH"
);
},
{
closed = 1;
nodes = (
"378 556 OFFCURVE",
"374 558 OFFCURVE",
"380 572 CURVE SMOOTH",
"670 1354 LINE SMOOTH",
"680 1382 OFFCURVE",
"690 1382 OFFCURVE",
"700 1356 CURVE SMOOTH",
"986 576 LINE SMOOTH",
"990 564 OFFCURVE",
"988 556 OFFCURVE",
"972 556 CURVE SMOOTH",
"390 556 LINE SMOOTH"
);
}
);
};
guideLines = (
{
angle = 69.4967;
position = "{78, 110}";
},
{
angle = 110.0797;
position = "{452, 110}";
}
);
layerId = "91AB5BCA-6A50-42DA-B2F7-8181BF189245";
paths = (
{
closed = 1;
nodes = (
"164 0 LINE",
"334 456 LINE",
"996 456 LINE",
"1162 0 LINE",
"1248 0 LINE",
"720 1446 LINE",
"610 1446 LINE",
"80 0 LINE"
);
},
{
closed = 1;
nodes = (
"666 1362 LINE",
"966 542 LINE",
"362 542 LINE"
);
}
);
width = 1328;
}
);
leftKerningGroup = A;
leftMetricsKey = X;
rightKerningGroup = A;
rightMetricsKey = X;
unicode = 0041;
},
{
glyphname = Aringacute;
lastChange = "2019-04-30 22:04:38 +0000";
layers = (
{
background = {
paths = (
{
closed = 1;
nodes = (
"428 6 LINE",
"528 294 LINE",
"996 294 LINE",
"1094 6 LINE",
"1570 6 LINE",
"1046 1490 LINE",
"556 1490 LINE",
"30 6 LINE"
);
},
{
closed = 1;
nodes = (
"760 1048 LINE",
"906 634 LINE",
"612 634 LINE"
);
},
{
closed = 1;
nodes = (
"922 1386 OFFCURVE",
"1020 1468 OFFCURVE",
"1020 1592 CURVE SMOOTH",
"1020 1712 OFFCURVE",
"922 1798 OFFCURVE",
"800 1798 CURVE SMOOTH",
"680 1798 OFFCURVE",
"580 1714 OFFCURVE",
"580 1596 CURVE SMOOTH",
"580 1470 OFFCURVE",
"678 1386 OFFCURVE",
"800 1386 CURVE SMOOTH"
);
},
{
closed = 1;
nodes = (
"746 1492 OFFCURVE",
"700 1538 OFFCURVE",
"700 1590 CURVE SMOOTH",
"700 1644 OFFCURVE",
"746 1684 OFFCURVE",
"798 1684 CURVE SMOOTH",
"852 1684 OFFCURVE",
"894 1644 OFFCURVE",
"894 1590 CURVE SMOOTH",
"894 1538 OFFCURVE",
"852 1492 OFFCURVE",
"798 1492 CURVE SMOOTH"
);
},
{
closed = 1;
nodes = (
"886 1750 LINE",
"936 1870 LINE SMOOTH",
"948 1898 OFFCURVE",
"940 1928 OFFCURVE",
"908 1928 CURVE SMOOTH",
"818 1928 LINE SMOOTH",
"780 1928 OFFCURVE",
"754 1916 OFFCURVE",
"742 1866 CURVE SMOOTH",
"714 1750 LINE"
);
}
);
};
components = (
{
name = A;
},
{
name = _ringacute;
transform = "{1, 0, 0, 1, 8, 0}";
}
);
layerId = "258ED206-D907-4350-8EBA-CBDDA1C16BF7";
width = 1482;
},
{
background = {
paths = (
{
closed = 1;
nodes = (
"876 1714 OFFCURVE",
"788 1800 OFFCURVE",
"676 1800 CURVE SMOOTH",
"566 1800 OFFCURVE",
"476 1714 OFFCURVE",
"476 1608 CURVE SMOOTH",
"476 1492 OFFCURVE",
"564 1404 OFFCURVE",
"676 1404 CURVE SMOOTH",
"788 1404 OFFCURVE",
"876 1490 OFFCURVE",
"876 1604 CURVE SMOOTH"
);
},
{
closed = 1;
nodes = (
"790 1540 OFFCURVE",
"740 1484 OFFCURVE",
"674 1484 CURVE SMOOTH",
"612 1484 OFFCURVE",
"556 1540 OFFCURVE",
"556 1602 CURVE SMOOTH",
"556 1672 OFFCURVE",
"612 1720 OFFCURVE",
"674 1720 CURVE SMOOTH",
"740 1720 OFFCURVE",
"790 1672 OFFCURVE",
"790 1602 CURVE SMOOTH"
);
},
{
closed = 1;
nodes = (
"628 1484 OFFCURVE",
"620 1478 OFFCURVE",
"614 1462 CURVE SMOOTH",
"120 18 LINE",
"116 8 OFFCURVE",
"122 0 OFFCURVE",
"134 0 CURVE SMOOTH",
"178 0 LINE SMOOTH",
"190 0 OFFCURVE",
"196 4 OFFCURVE",
"200 14 CURVE",
"354 462 LINE SMOOTH",
"358 472 OFFCURVE",
"362 476 OFFCURVE",
"374 476 CURVE SMOOTH",
"966 476 LINE SMOOTH",
"978 476 OFFCURVE",
"982 472 OFFCURVE",
"986 462 CURVE SMOOTH",
"1138 16 LINE SMOOTH",
"1142 4 OFFCURVE",
"1148 0 OFFCURVE",
"1162 0 CURVE SMOOTH",
"1216 0 LINE SMOOTH",
"1230 0 OFFCURVE",
"1236 8 OFFCURVE",
"1232 20 CURVE SMOOTH",
"746 1464 LINE",
"742 1478 OFFCURVE",
"730 1484 OFFCURVE",
"710 1484 CURVE SMOOTH",
"646 1484 LINE SMOOTH"
);
},
{
closed = 1;
nodes = (
"954 564 OFFCURVE",
"952 556 OFFCURVE",
"936 556 CURVE SMOOTH",
"398 556 LINE SMOOTH",
"386 556 OFFCURVE",
"384 558 OFFCURVE",
"390 572 CURVE SMOOTH",
"656 1354 LINE SMOOTH",
"666 1382 OFFCURVE",
"678 1382 OFFCURVE",
"686 1356 CURVE SMOOTH",
"950 576 LINE SMOOTH"
);
},
{
closed = 1;
nodes = (
"696 1928 OFFCURVE",
"686 1920 OFFCURVE",
"682 1902 CURVE SMOOTH",
"646 1750 LINE",
"722 1750 LINE",
"784 1896 LINE SMOOTH",
"792 1916 OFFCURVE",
"786 1928 OFFCURVE",
"764 1928 CURVE SMOOTH",
"718 1928 LINE SMOOTH"
);
}
);
};
components = (
{
name = A;
},
{
name = _ringacute;
transform = "{1, 0, 0, 1, -32, 0}";
}
);
layerId = "91AB5BCA-6A50-42DA-B2F7-8181BF189245";
width = 1328;
}
);
leftKerningGroup = A;
leftMetricsKey = A;
rightKerningGroup = A;
rightMetricsKey = A;
unicode = 01FA;
},
{
glyphname = AE;
lastChange = "2019-05-06 20:25:21 +0000";
layers = (
{
anchors = (
{
name = top;
position = "{1382, 1446}";
}
);
background = {
anchors = (
{
name = top;
position = "{1396, 1484}";
}
);
paths = (
{
closed = 1;
nodes = (
"1448 328 LINE SMOOTH",
"1430 328 OFFCURVE",
"1424 334 OFFCURVE",
"1424 356 CURVE SMOOTH",
"1424 556 LINE SMOOTH",
"1424 572 OFFCURVE",
"1436 584 OFFCURVE",
"1456 584 CURVE SMOOTH",
"1826 584 LINE SMOOTH",
"1852 584 OFFCURVE",
"1862 600 OFFCURVE",
"1862 618 CURVE SMOOTH",
"1862 866 LINE SMOOTH",
"1862 892 OFFCURVE",
"1848 906 OFFCURVE",
"1820 906 CURVE SMOOTH",
"1460 906 LINE SMOOTH",
"1440 906 OFFCURVE",
"1424 920 OFFCURVE",
"1424 948 CURVE SMOOTH",
"1424 1118 LINE SMOOTH",
"1424 1144 OFFCURVE",
"1440 1156 OFFCURVE",
"1470 1156 CURVE SMOOTH",
"2070 1156 LINE SMOOTH",
"2106 1156 OFFCURVE",
"2122 1178 OFFCURVE",
"2122 1210 CURVE SMOOTH",
"2124 1442 LINE SMOOTH",
"2124 1468 OFFCURVE",
"2112 1484 OFFCURVE",
"2088 1484 CURVE SMOOTH",
"790 1484 LINE SMOOTH",
"756 1484 OFFCURVE",
"740 1470 OFFCURVE",
"724 1438 CURVE SMOOTH",
"16 74 LINE SMOOTH",
"-8 30 OFFCURVE",
"4 0 OFFCURVE",
"34 0 CURVE SMOOTH",
"338 0 LINE SMOOTH",
"366 0 OFFCURVE",
"382 14 OFFCURVE",
"390 30 CURVE SMOOTH",
"508 266 LINE",
"514 280 OFFCURVE",
"526 288 OFFCURVE",
"542 288 CURVE SMOOTH",
"944 288 LINE SMOOTH",
"964 288 OFFCURVE",
"970 278 OFFCURVE",
"970 260 CURVE SMOOTH",
"970 50 LINE SMOOTH",
"970 16 OFFCURVE",
"984 0 OFFCURVE",
"1024 0 CURVE SMOOTH",
"2094 0 LINE SMOOTH",
"2128 0 OFFCURVE",
"2142 20 OFFCURVE",
"2142 44 CURVE SMOOTH",
"2142 290 LINE SMOOTH",
"2142 318 OFFCURVE",
"2126 328 OFFCURVE",
"2098 328 CURVE SMOOTH"
);
},
{
closed = 1;
nodes = (
"698 628 LINE SMOOTH",
"674 628 OFFCURVE",
"670 644 OFFCURVE",
"686 670 CURVE",
"890 1074 LINE SMOOTH",
"922 1134 OFFCURVE",
"970 1130 OFFCURVE",
"970 1070 CURVE SMOOTH",
"970 668 LINE SMOOTH",
"970 642 OFFCURVE",
"956 628 OFFCURVE",
"932 628 CURVE SMOOTH"
);
}
);
};
layerId = "258ED206-D907-4350-8EBA-CBDDA1C16BF7";
paths = (
{
closed = 1;
nodes = (
"1410 320 LINE",
"1410 570 LINE",
"1836 570 LINE",
"1836 884 LINE",
"1410 884 LINE",
"1410 1128 LINE",
"2090 1128 LINE",
"2092 1446 LINE",
"750 1446 LINE",
"0 0 LINE",
"388 0 LINE",
"526 280 LINE",
"966 280 LINE",
"966 0 LINE",
"2110 0 LINE",
"2110 320 LINE"
);
},
{
closed = 1;
nodes = (
"668 612 LINE",
"966 1202 LINE",
"966 612 LINE"
);
}
);
width = 2195;
},
{
anchors = (
{
name = top;
position = "{1234, 1446}";
}
);
background = {
anchors = (
{
name = top;
position = "{1270, 1484}";
}
);
paths = (
{
closed = 1;
nodes = (
"1008 80 LINE SMOOTH",
"994 80 OFFCURVE",
"990 82 OFFCURVE",
"990 98 CURVE SMOOTH",
"990 692 LINE SMOOTH",
"990 708 OFFCURVE",
"994 710 OFFCURVE",
"1008 710 CURVE SMOOTH",
"1544 710 LINE SMOOTH",
"1556 710 OFFCURVE",
"1560 712 OFFCURVE",
"1560 724 CURVE SMOOTH",
"1560 776 LINE SMOOTH",
"1560 786 OFFCURVE",
"1556 790 OFFCURVE",
"1546 790 CURVE SMOOTH",
"1008 790 LINE SMOOTH",
"994 790 OFFCURVE",
"990 792 OFFCURVE",
"990 804 CURVE SMOOTH",
"990 1386 LINE SMOOTH",
"990 1402 OFFCURVE",
"994 1404 OFFCURVE",
"1008 1404 CURVE SMOOTH",
"1684 1404 LINE SMOOTH",
"1696 1404 OFFCURVE",
"1700 1406 OFFCURVE",
"1700 1418 CURVE SMOOTH",
"1700 1470 LINE SMOOTH",
"1700 1480 OFFCURVE",
"1696 1484 OFFCURVE",
"1686 1484 CURVE SMOOTH",
"876 1484 LINE SMOOTH",
"858 1484 OFFCURVE",
"848 1478 OFFCURVE",
"840 1462 CURVE",
"14 18 LINE SMOOTH",
"8 8 OFFCURVE",
"12 0 OFFCURVE",
"24 0 CURVE SMOOTH",
"74 0 LINE SMOOTH",
"86 0 OFFCURVE",
"92 4 OFFCURVE",
"98 14 CURVE SMOOTH",
"356 462 LINE SMOOTH",
"362 472 OFFCURVE",
"368 476 OFFCURVE",
"380 476 CURVE SMOOTH",
"888 476 LINE SMOOTH",
"894 476 OFFCURVE",
"898 472 OFFCURVE",
"898 466 CURVE SMOOTH",
"898 20 LINE SMOOTH",
"898 4 OFFCURVE",
"902 0 OFFCURVE",
"916 0 CURVE SMOOTH",
"1716 0 LINE SMOOTH",
"1726 0 OFFCURVE",
"1730 4 OFFCURVE",
"1730 14 CURVE SMOOTH",
"1730 66 LINE SMOOTH",
"1730 78 OFFCURVE",
"1726 80 OFFCURVE",
"1714 80 CURVE SMOOTH"
);
},
{
closed = 1;
nodes = (
"418 556 LINE SMOOTH",
"406 556 OFFCURVE",
"404 558 OFFCURVE",
"412 572 CURVE SMOOTH",
"868 1354 LINE SMOOTH",
"884 1382 OFFCURVE",
"896 1382 OFFCURVE",
"898 1356 CURVE",
"898 574 LINE SMOOTH",
"898 564 OFFCURVE",
"894 556 OFFCURVE",
"882 556 CURVE SMOOTH"
);
}
);
};
layerId = "91AB5BCA-6A50-42DA-B2F7-8181BF189245";
paths = (
{
closed = 1;
nodes = (
"960 78 LINE",
"960 692 LINE",
"1516 692 LINE",
"1516 770 LINE",
"960 770 LINE",
"960 1368 LINE",
"1654 1368 LINE",
"1654 1446 LINE",
"826 1446 LINE",
"0 0 LINE",
"84 0 LINE",
"350 464 LINE",
"872 464 LINE",
"872 0 LINE",
"1682 0 LINE",
"1682 78 LINE"
);
},
{
closed = 1;
nodes = (
"388 542 LINE",
"872 1370 LINE",
"872 542 LINE"
);
}
);
width = 1822;
}
);
leftKerningGroup = AE;
rightKerningGroup = E;
rightMetricsKey = E;
unicode = 00C6;
},
{
glyphname = B;
lastChange = "2019-05-02 20:38:09 +0000";
layers = (
{
background = {
paths = (
{
closed = 1;
nodes = (
"776 0 LINE SMOOTH",
"1208 0 OFFCURVE",
"1414 130 OFFCURVE",
"1414 404 CURVE SMOOTH",
"1414 574 OFFCURVE",
"1336 676 OFFCURVE",
"1116 758 CURVE SMOOTH",
"1110 760 OFFCURVE",
"1110 770 OFFCURVE",
"1116 772 CURVE SMOOTH",
"1316 864 OFFCURVE",
"1378 954 OFFCURVE",
"1378 1092 CURVE SMOOTH",
"1378 1350 OFFCURVE",
"1158 1484 OFFCURVE",
"744 1484 CURVE SMOOTH",
"148 1484 LINE SMOOTH",
"118 1484 OFFCURVE",
"98 1462 OFFCURVE",
"98 1432 CURVE SMOOTH",
"98 44 LINE SMOOTH",
"98 20 OFFCURVE",
"116 0 OFFCURVE",
"144 0 CURVE SMOOTH"
);
},
{
closed = 1;
nodes = (
"560 300 OFFCURVE",
"552 314 OFFCURVE",
"552 344 CURVE SMOOTH",
"552 554 LINE SMOOTH",
"552 584 OFFCURVE",
"564 596 OFFCURVE",
"598 596 CURVE SMOOTH",
"776 596 LINE SMOOTH",
"876 596 OFFCURVE",
"942 536 OFFCURVE",
"942 454 CURVE SMOOTH",
"942 376 OFFCURVE",
"882 300 OFFCURVE",
"766 300 CURVE SMOOTH",
"586 300 LINE SMOOTH"
);
},
{
closed = 1;
nodes = (
"560 904 OFFCURVE",
"552 918 OFFCURVE",
"552 948 CURVE SMOOTH",
"552 1144 LINE SMOOTH",
"552 1174 OFFCURVE",
"564 1184 OFFCURVE",
"598 1184 CURVE SMOOTH",
"762 1184 LINE SMOOTH",
"856 1184 OFFCURVE",
"930 1128 OFFCURVE",
"930 1040 CURVE SMOOTH",
"930 962 OFFCURVE",
"870 904 OFFCURVE",
"776 904 CURVE SMOOTH",
"586 904 LINE SMOOTH"
);
}
);
};
layerId = "258ED206-D907-4350-8EBA-CBDDA1C16BF7";
paths = (
{
closed = 1;
nodes = (
"740 0 LINE SMOOTH",
"1160 0 OFFCURVE",
"1322 124 OFFCURVE",
"1322 394 CURVE",
"1322 502 OFFCURVE",
"1308 668 OFFCURVE",
"1054 744 CURVE",
"1232 832 OFFCURVE",
"1288 930 OFFCURVE",
"1288 1064 CURVE SMOOTH",
"1288 1310 OFFCURVE",
"1112 1446 OFFCURVE",
"708 1446 CURVE SMOOTH",
"130 1446 LINE",
"130 0 LINE"
);
},
{
closed = 1;
nodes = (
"520 582 LINE",
"764 582 LINE",
"862 582 OFFCURVE",
"926 522 OFFCURVE",
"926 442 CURVE SMOOTH",
"926 366 OFFCURVE",
"868 292 OFFCURVE",
"754 292 CURVE",
"520 292 LINE"
);
},
{
closed = 1;
nodes = (
"520 1154 LINE",
"750 1154 LINE SMOOTH",
"842 1154 OFFCURVE",
"914 1100 OFFCURVE",
"914 1014 CURVE SMOOTH",
"914 938 OFFCURVE",
"856 882 OFFCURVE",
"764 882 CURVE SMOOTH",
"520 882 LINE"
);
}
);
width = 1387;
},
{
background = {
paths = (
{
closed = 1;
nodes = (
"654 0 LINE SMOOTH",
"1004 0 OFFCURVE",
"1210 130 OFFCURVE",
"1210 394 CURVE SMOOTH",
"1210 594 OFFCURVE",
"1092 712 OFFCURVE",
"912 746 CURVE SMOOTH",
"900 748 OFFCURVE",
"900 760 OFFCURVE",
"912 764 CURVE SMOOTH",
"1088 818 OFFCURVE",
"1174 934 OFFCURVE",
"1174 1102 CURVE SMOOTH",
"1174 1350 OFFCURVE",
"980 1484 OFFCURVE",
"648 1484 CURVE SMOOTH",
"238 1484 LINE SMOOTH",
"224 1484 OFFCURVE",
"220 1480 OFFCURVE",
"220 1464 CURVE SMOOTH",
"220 16 LINE SMOOTH",
"220 6 OFFCURVE",
"226 0 OFFCURVE",
"236 0 CURVE SMOOTH"
);
},
{
closed = 1;
nodes = (
"316 80 OFFCURVE",
"312 86 OFFCURVE",
"312 100 CURVE SMOOTH",
"312 692 LINE SMOOTH",
"312 706 OFFCURVE",
"318 710 OFFCURVE",
"334 710 CURVE SMOOTH",
"672 710 LINE SMOOTH",
"922 710 OFFCURVE",
"1114 622 OFFCURVE",
"1114 382 CURVE SMOOTH",
"1114 164 OFFCURVE",
"960 80 OFFCURVE",
"644 80 CURVE SMOOTH",
"326 80 LINE SMOOTH"
);
},
{
closed = 1;
nodes = (
"316 790 OFFCURVE",
"312 796 OFFCURVE",
"312 810 CURVE SMOOTH",
"312 1388 LINE SMOOTH",
"312 1400 OFFCURVE",
"318 1404 OFFCURVE",
"330 1404 CURVE SMOOTH",
"640 1404 LINE SMOOTH",
"910 1404 OFFCURVE",
"1078 1308 OFFCURVE",
"1078 1092 CURVE SMOOTH",
"1078 848 OFFCURVE",
"858 790 OFFCURVE",
"672 790 CURVE SMOOTH",
"326 790 LINE SMOOTH"
);
}
);
};
layerId = "91AB5BCA-6A50-42DA-B2F7-8181BF189245";
paths = (
{
closed = 1;
nodes = (
"632 0 LINE",
"974 0 OFFCURVE",
"1174 128 OFFCURVE",
"1174 386 CURVE",
"1174 578 OFFCURVE",
"1066 698 OFFCURVE",
"852 734 CURVE",
"1060 794 OFFCURVE",
"1138 908 OFFCURVE",
"1138 1072 CURVE SMOOTH",
"1138 1314 OFFCURVE",
"950 1446 OFFCURVE",
"626 1446 CURVE SMOOTH",
"220 1446 LINE",
"220 0 LINE"
);
},
{
closed = 1;
nodes = (
"298 690 LINE",
"650 690 LINE SMOOTH",
"894 690 OFFCURVE",
"1096 608 OFFCURVE",
"1096 374 CURVE SMOOTH",
"1096 162 OFFCURVE",
"930 82 OFFCURVE",
"622 82 CURVE",
"298 82 LINE"
);
},
{
closed = 1;
nodes = (
"298 1366 LINE",
"618 1366 LINE SMOOTH",
"882 1366 OFFCURVE",
"1060 1274 OFFCURVE",
"1060 1062 CURVE SMOOTH",
"1060 824 OFFCURVE",
"830 772 OFFCURVE",
"650 772 CURVE SMOOTH",
"298 772 LINE"
);
}
);
width = 1284;
}
);
leftKerningGroup = N;
leftMetricsKey = H;
rightKerningGroup = B;
rightMetricsKey = "=H/2";
unicode = 0042;
},
{
glyphname = C;
lastChange = "2019-04-30 22:04:04 +0000";
layers = (
{
anchors = (
{
name = bottom;
position = "{792, 0}";
},
{
name = top;
position = "{792, 1446}";
}
);
background = {
anchors = (
{
name = bottom;
position = "{786, 0}";
},
{
name = top;
position = "{790, 1484}";
}
);
paths = (
{
closed = 1;
nodes = (
"356 1504 OFFCURVE",
"80 1212 OFFCURVE",
"80 762 CURVE SMOOTH",
"80 310 OFFCURVE",
"356 -20 OFFCURVE",
"786 -20 CURVE SMOOTH",
"1248 -20 OFFCURVE",
"1420 334 OFFCURVE",
"1440 442 CURVE SMOOTH",
"1448 494 OFFCURVE",
"1426 504 OFFCURVE",
"1412 508 CURVE SMOOTH",
"1162 558 LINE SMOOTH",
"1130 564 OFFCURVE",
"1112 558 OFFCURVE",
"1106 542 CURVE SMOOTH",
"1036 366 OFFCURVE",
"934 308 OFFCURVE",
"800 308 CURVE SMOOTH",
"638 308 OFFCURVE",
"556 424 OFFCURVE",
"556 754 CURVE SMOOTH",
"556 1080 OFFCURVE",
"652 1196 OFFCURVE",
"802 1196 CURVE SMOOTH",
"938 1196 OFFCURVE",
"992 1088 OFFCURVE",
"1016 950 CURVE",
"1396 974 LINE",
"1426 978 OFFCURVE",
"1434 988 OFFCURVE",
"1422 1044 CURVE SMOOTH",
"1370 1310 OFFCURVE",
"1128 1504 OFFCURVE",
"790 1504 CURVE SMOOTH"
);
}
);
};
guideLines = (
{
angle = -183.559;
position = "{511, 299}";
}
);
layerId = "258ED206-D907-4350-8EBA-CBDDA1C16BF7";
paths = (
{
closed = 1;
nodes = (
"370 1466 OFFCURVE",
"100 1182 OFFCURVE",
"100 742 CURVE SMOOTH",
"100 302 OFFCURVE",
"374 -20 OFFCURVE",
"792 -20 CURVE SMOOTH",
"1254 -20 OFFCURVE",
"1380 240 OFFCURVE",
"1420 540 CURVE",
"1014 540 LINE",
"992 406 OFFCURVE",
"912 292 OFFCURVE",
"778 292 CURVE SMOOTH",
"632 292 OFFCURVE",
"526 414 OFFCURVE",
"526 736 CURVE SMOOTH",
"526 1054 OFFCURVE",
"632 1154 OFFCURVE",
"778 1154 CURVE SMOOTH",
"912 1154 OFFCURVE",
"992 1070 OFFCURVE",
"1014 936 CURVE",
"1420 936 LINE",
"1388 1248 OFFCURVE",
"1136 1466 OFFCURVE",
"792 1466 CURVE SMOOTH"
);
}
);
width = 1485;
},
{
anchors = (
{
name = bottom;
position = "{710, 0}";
},
{
name = top;
position = "{696, 1446}";
}
);
background = {
anchors = (
{
name = bottom;
position = "{742, 0}";
},
{
name = top;
position = "{730, 1484}";
}
);
guideLines = (
{
angle = 90;
position = "{621, 369}";
}
);
paths = (
{
closed = 1;
nodes = (
"356 1504 OFFCURVE",
"136 1220 OFFCURVE",
"136 736 CURVE SMOOTH",
"136 254 OFFCURVE",
"356 -20 OFFCURVE",
"742 -20 CURVE SMOOTH",
"984 -20 OFFCURVE",
"1184 122 OFFCURVE",
"1254 342 CURVE SMOOTH",
"1256 350 OFFCURVE",
"1254 354 OFFCURVE",
"1250 356 CURVE SMOOTH",
"1182 376 LINE SMOOTH",
"1176 378 OFFCURVE",
"1172 376 OFFCURVE",
"1170 372 CURVE SMOOTH",
"1090 162 OFFCURVE",
"958 64 OFFCURVE",
"750 64 CURVE SMOOTH",
"404 64 OFFCURVE",
"232 306 OFFCURVE",
"232 736 CURVE SMOOTH",
"232 1182 OFFCURVE",
"408 1420 OFFCURVE",
"734 1420 CURVE SMOOTH",
"936 1420 OFFCURVE",
"1096 1294 OFFCURVE",
"1142 1104 CURVE SMOOTH",
"1144 1092 OFFCURVE",
"1148 1088 OFFCURVE",
"1156 1090 CURVE SMOOTH",
"1228 1098 LINE SMOOTH",
"1238 1098 OFFCURVE",
"1240 1102 OFFCURVE",
"1238 1112 CURVE SMOOTH",
"1214 1318 OFFCURVE",
"974 1504 OFFCURVE",
"730 1504 CURVE SMOOTH"
);
}
);
};
guideLines = (
{
angle = 90;
position = "{622, 342}";
}
);
layerId = "91AB5BCA-6A50-42DA-B2F7-8181BF189245";
paths = (
{
closed = 1;
nodes = (
"330 1466 OFFCURVE",
"130 1190 OFFCURVE",
"130 718 CURVE SMOOTH",
"130 248 OFFCURVE",
"334 -20 OFFCURVE",
"710 -20 CURVE SMOOTH",
"948 -20 OFFCURVE",
"1178 138 OFFCURVE",
"1200 346 CURVE",
"1116 368 LINE",
"1070 174 OFFCURVE",
"912 62 OFFCURVE",
"714 62 CURVE SMOOTH",
"376 62 OFFCURVE",
"218 298 OFFCURVE",
"218 718 CURVE SMOOTH",
"218 1152 OFFCURVE",
"380 1384 OFFCURVE",
"698 1384 CURVE SMOOTH",
"946 1384 OFFCURVE",
"1084 1246 OFFCURVE",
"1122 1058 CURVE",
"1208 1072 LINE",
"1184 1280 OFFCURVE",
"990 1466 OFFCURVE",
"694 1466 CURVE SMOOTH"
);
}
);
width = 1318;
}
);
leftKerningGroup = O;
leftMetricsKey = O;
rightKerningGroup = C;
rightMetricsKey = "=H/2";
unicode = 0043;
},
{
glyphname = D;
lastChange = "2019-05-06 20:24:26 +0000";
layers = (
{
anchors = (
{
name = bottom;
position = "{700, 0}";
},
{
name = center;
position = "{738, 724}";
},
{
name = top;
position = "{738, 1446}";
}
);
background = {
anchors = (
{
name = center;
position = "{734, 742}";
},
{
name = top;
position = "{734, 1484}";
}
);
paths = (
{
closed = 1;
nodes = (
"58 0 LINE",
"642 0 LINE SMOOTH",
"1168 0 OFFCURVE",
"1434 314 OFFCURVE",
"1434 746 CURVE SMOOTH",
"1434 1168 OFFCURVE",
"1180 1462 OFFCURVE",
"644 1482 CURVE SMOOTH",
"516 1486 OFFCURVE",
"100 1484 OFFCURVE",
"58 1484 CURVE"
);
},
{
closed = 1;
nodes = (
"552 1170 LINE SMOOTH",
"856 1170 OFFCURVE",
"958 1026 OFFCURVE",
"958 752 CURVE SMOOTH",
"958 430 OFFCURVE",
"806 314 OFFCURVE",
"554 314 CURVE SMOOTH",
"512 314 LINE",
"512 1170 LINE"
);
}
);
};
layerId = "258ED206-D907-4350-8EBA-CBDDA1C16BF7";
paths = (
{
closed = 1;
nodes = (
"130 0 LINE",
"648 0 LINE SMOOTH",
"1160 0 OFFCURVE",
"1398 306 OFFCURVE",
"1398 728 CURVE SMOOTH",
"1398 1138 OFFCURVE",
"1172 1426 OFFCURVE",
"650 1444 CURVE SMOOTH",
"524 1448 OFFCURVE",
"172 1446 OFFCURVE",
"130 1446 CURVE"
);
},
{
closed = 1;
nodes = (
"660 1140 LINE SMOOTH",
"858 1140 OFFCURVE",
"992 1000 OFFCURVE",
"992 734 CURVE SMOOTH",
"992 420 OFFCURVE",
"808 306 OFFCURVE",
"660 306 CURVE SMOOTH",
"520 306 LINE",
"520 1140 LINE"
);
}
);
width = 1498;
},
{
anchors = (
{
name = bottom;
position = "{714, 0}";
},
{
name = center;
position = "{662, 724}";
},
{
name = top;
position = "{650, 1446}";
}
);
background = {
anchors = (
{
name = center;
position = "{680, 742}";
},
{
name = top;
position = "{668, 1484}";
}
);
paths = (
{
closed = 1;
nodes = (
"224 0 LINE",
"446 0 LINE SMOOTH",
"990 0 OFFCURVE",
"1248 230 OFFCURVE",
"1248 752 CURVE SMOOTH",
"1248 1248 OFFCURVE",
"1024 1478 OFFCURVE",
"474 1482 CURVE SMOOTH",
"350 1482 OFFCURVE",
"228 1484 OFFCURVE",
"224 1484 CURVE"
);
},
{
closed = 1;
nodes = (
"320 1402 OFFCURVE",
"416 1402 OFFCURVE",
"452 1402 CURVE SMOOTH",
"940 1392 OFFCURVE",
"1152 1256 OFFCURVE",
"1152 744 CURVE SMOOTH",
"1152 260 OFFCURVE",
"954 80 OFFCURVE",
"438 80 CURVE SMOOTH",
"316 80 LINE",
"316 1402 LINE"
);
}
);
};
layerId = "91AB5BCA-6A50-42DA-B2F7-8181BF189245";
paths = (
{
closed = 1;
nodes = (
"220 0 LINE",
"432 0 LINE SMOOTH",
"964 0 OFFCURVE",
"1214 224 OFFCURVE",
"1214 734 CURVE SMOOTH",
"1214 1216 OFFCURVE",
"996 1442 OFFCURVE",
"460 1444 CURVE SMOOTH",
"340 1444 OFFCURVE",
"224 1446 OFFCURVE",
"220 1446 CURVE"
);
},
{
closed = 1;
nodes = (
"438 1364 LINE SMOOTH",
"880 1364 OFFCURVE",
"1130 1224 OFFCURVE",
"1130 726 CURVE SMOOTH",
"1130 254 OFFCURVE",
"894 82 OFFCURVE",
"426 82 CURVE SMOOTH",
"306 82 LINE",
"306 1364 LINE"
);
}
);
width = 1344;
}
);
leftKerningGroup = N;
leftMetricsKey = H;
rightKerningGroup = O;
rightMetricsKey = O;
unicode = 0044;
},
{
glyphname = Eth;
lastChange = "2019-04-30 22:14:14 +0000";
layers = (
{
background = {
components = (
{
name = D;
transform = "{1, 0, 0, 1, 43, 0}";
}
);
paths = (
{
closed = 1;
nodes = (
"866 830 OFFCURVE",
"852 846 OFFCURVE",
"830 846 CURVE SMOOTH",
"108 846 LINE SMOOTH",
"84 846 OFFCURVE",
"70 830 OFFCURVE",
"70 802 CURVE SMOOTH",
"70 620 LINE SMOOTH",
"70 586 OFFCURVE",
"82 572 OFFCURVE",
"122 572 CURVE SMOOTH",
"802 572 LINE SMOOTH",
"846 572 OFFCURVE",
"866 586 OFFCURVE",
"866 626 CURVE SMOOTH",
"866 808 LINE SMOOTH"
);
}
);
};
components = (
{
name = D;
transform = "{1, 0, 0, 1, 86, 0}";
}
);
layerId = "258ED206-D907-4350-8EBA-CBDDA1C16BF7";
paths = (
{
closed = 1;
nodes = (
"70 846 LINE",
"70 572 LINE",
"866 572 LINE",
"866 846 LINE"
);
}
);
width = 1584;
},
{
background = {
components = (
{
name = D;
transform = "{1, 0, 0, 1, -2, 0}";
}
);
paths = (
{
closed = 1;
nodes = (
"668 764 OFFCURVE",
"664 770 OFFCURVE",
"656 770 CURVE SMOOTH",
"84 770 LINE SMOOTH",
"74 770 OFFCURVE",
"70 764 OFFCURVE",
"70 752 CURVE SMOOTH",
"70 708 LINE SMOOTH",
"70 694 OFFCURVE",
"74 688 OFFCURVE",
"90 688 CURVE SMOOTH",
"644 688 LINE SMOOTH",
"662 688 OFFCURVE",
"668 694 OFFCURVE",
"668 710 CURVE SMOOTH",
"668 754 LINE SMOOTH"
);
}
);
};
components = (
{
name = D;
transform = "{1, 0, 0, 1, -4, 0}";
}
);
layerId = "91AB5BCA-6A50-42DA-B2F7-8181BF189245";
paths = (
{
closed = 1;
nodes = (
"70 770 LINE",
"70 688 LINE",
"668 688 LINE",
"668 770 LINE"
);
}
);
width = 1340;
}
);
leftKerningGroup = N;
rightKerningGroup = O;
rightMetricsKey = D;
unicode = 00D0;
},
{
glyphname = E;
lastChange = "2019-05-06 20:24:22 +0000";
layers = (
{
anchors = (
{
name = bottom;
position = "{664, 0}";
},
{
name = ogonek;
position = "{1198, 20}";
},
{
name = top;
position = "{664, 1446}";
}
);
background = {
anchors = (
{
name = bottom;
position = "{658, 0}";
},
{
name = ogonek;
position = "{1206, 20}";
},
{
name = top;
position = "{658, 1484}";
}
);
paths = (
{
closed = 1;
nodes = (
"90 50 LINE SMOOTH",
"90 16 OFFCURVE",
"104 0 OFFCURVE",
"144 0 CURVE SMOOTH",
"1214 0 LINE SMOOTH",
"1248 0 OFFCURVE",
"1262 20 OFFCURVE",
"1262 44 CURVE SMOOTH",
"1262 290 LINE SMOOTH",
"1262 318 OFFCURVE",
"1246 328 OFFCURVE",
"1218 328 CURVE SMOOTH",
"568 328 LINE SMOOTH",
"550 328 OFFCURVE",
"544 334 OFFCURVE",
"544 356 CURVE SMOOTH",
"544 556 LINE SMOOTH",
"544 572 OFFCURVE",
"556 584 OFFCURVE",
"576 584 CURVE SMOOTH",
"946 584 LINE SMOOTH",
"972 584 OFFCURVE",
"982 600 OFFCURVE",
"982 618 CURVE SMOOTH",
"982 866 LINE SMOOTH",
"982 892 OFFCURVE",
"968 906 OFFCURVE",
"940 906 CURVE SMOOTH",
"580 906 LINE SMOOTH",
"560 906 OFFCURVE",
"544 920 OFFCURVE",
"544 948 CURVE SMOOTH",
"544 1118 LINE SMOOTH",
"544 1144 OFFCURVE",
"560 1156 OFFCURVE",
"590 1156 CURVE SMOOTH",
"1190 1156 LINE SMOOTH",
"1226 1156 OFFCURVE",
"1242 1178 OFFCURVE",
"1242 1210 CURVE SMOOTH",
"1244 1442 LINE SMOOTH",
"1244 1468 OFFCURVE",
"1232 1484 OFFCURVE",
"1208 1484 CURVE SMOOTH",
"128 1484 LINE SMOOTH",
"104 1484 OFFCURVE",
"90 1468 OFFCURVE",
"90 1438 CURVE SMOOTH"
);
}
);
};
layerId = "258ED206-D907-4350-8EBA-CBDDA1C16BF7";
paths = (
{
closed = 1;
nodes = (
"1200 0 LINE",
"1200 324 LINE",
"520 324 LINE",
"520 570 LINE",
"1086 570 LINE",
"1086 884 LINE",
"522 884 LINE",
"522 1124 LINE",
"1196 1124 LINE",
"1198 1446 LINE",
"130 1446 LINE",
"130 0 LINE"
);
}
);
width = 1285;
},
{
anchors = (
{
name = bottom;
position = "{694, 0}";
},
{
name = ogonek;
position = "{1068, 20}";
},
{
name = top;
position = "{640, 1446}";
}
);
background = {
anchors = (
{
name = bottom;
position = "{720, 0}";
},
{
name = ogonek;
position = "{1090, 20}";
},
{
name = top;
position = "{682, 1484}";
}
);
paths = (
{
closed = 1;
nodes = (
"220 20 LINE SMOOTH",
"220 4 OFFCURVE",
"224 0 OFFCURVE",
"238 0 CURVE SMOOTH",
"1098 0 LINE SMOOTH",
"1108 0 OFFCURVE",
"1112 4 OFFCURVE",
"1112 14 CURVE SMOOTH",
"1112 66 LINE SMOOTH",
"1112 78 OFFCURVE",
"1108 80 OFFCURVE",
"1096 80 CURVE SMOOTH",
"330 80 LINE SMOOTH",
"316 80 OFFCURVE",
"312 82 OFFCURVE",
"312 98 CURVE SMOOTH",
"312 692 LINE SMOOTH",
"312 708 OFFCURVE",
"316 710 OFFCURVE",
"330 710 CURVE SMOOTH",
"906 710 LINE SMOOTH",
"918 710 OFFCURVE",
"922 712 OFFCURVE",
"922 724 CURVE SMOOTH",
"922 776 LINE SMOOTH",
"922 786 OFFCURVE",
"918 790 OFFCURVE",
"908 790 CURVE SMOOTH",
"330 790 LINE SMOOTH",
"316 790 OFFCURVE",
"312 792 OFFCURVE",
"312 804 CURVE SMOOTH",
"312 1386 LINE SMOOTH",
"312 1402 OFFCURVE",
"316 1404 OFFCURVE",
"330 1404 CURVE SMOOTH",
"1066 1404 LINE SMOOTH",
"1078 1404 OFFCURVE",
"1082 1406 OFFCURVE",
"1082 1418 CURVE SMOOTH",
"1082 1470 LINE SMOOTH",
"1082 1480 OFFCURVE",
"1078 1484 OFFCURVE",
"1068 1484 CURVE SMOOTH",
"238 1484 LINE SMOOTH",
"224 1484 OFFCURVE",
"220 1480 OFFCURVE",
"220 1464 CURVE SMOOTH"
);
}
);
};
layerId = "91AB5BCA-6A50-42DA-B2F7-8181BF189245";
rightMetricsKey = "=140";
paths = (
{
closed = 1;
nodes = (
"1078 0 LINE",
"1078 82 LINE",
"298 84 LINE",
"298 690 LINE",
"998 690 LINE",
"998 772 LINE",
"298 772 LINE",
"298 1366 LINE",
"1050 1366 LINE",
"1050 1446 LINE",
"220 1446 LINE",
"220 0 LINE"
);
}
);
width = 1218;
}
);
leftKerningGroup = N;
leftMetricsKey = H;
rightKerningGroup = E;
rightMetricsKey = "=85";
unicode = 0045;
},
{
glyphname = F;
lastChange = "2019-04-30 22:04:04 +0000";
layers = (
{
background = {
paths = (
{
closed = 1;
nodes = (
"58 50 LINE SMOOTH",
"58 16 OFFCURVE",
"70 0 OFFCURVE",
"112 0 CURVE",
"446 0 LINE SMOOTH",
"492 0 OFFCURVE",
"512 16 OFFCURVE",
"512 58 CURVE SMOOTH",
"512 542 LINE SMOOTH",
"512 560 OFFCURVE",
"524 572 OFFCURVE",
"544 572 CURVE SMOOTH",
"918 572 LINE SMOOTH",
"946 572 OFFCURVE",
"954 586 OFFCURVE",
"954 606 CURVE SMOOTH",
"954 850 LINE SMOOTH",
"954 876 OFFCURVE",
"942 890 OFFCURVE",
"914 890 CURVE SMOOTH",
"548 890 LINE SMOOTH",
"526 890 OFFCURVE",
"512 902 OFFCURVE",
"512 930 CURVE SMOOTH",
"512 1118 LINE SMOOTH",
"512 1144 OFFCURVE",
"526 1156 OFFCURVE",
"558 1156 CURVE SMOOTH",
"1146 1156 LINE SMOOTH",
"1182 1156 OFFCURVE",
"1196 1178 OFFCURVE",
"1196 1210 CURVE SMOOTH",
"1198 1442 LINE SMOOTH",
"1198 1468 OFFCURVE",
"1186 1484 OFFCURVE",
"1162 1484 CURVE SMOOTH",
"96 1484 LINE SMOOTH",
"74 1484 OFFCURVE",
"58 1468 OFFCURVE",
"58 1438 CURVE SMOOTH"
);
}
);
};
layerId = "258ED206-D907-4350-8EBA-CBDDA1C16BF7";
paths = (
{
closed = 1;
nodes = (
"130 0 LINE",
"520 0 LINE",
"520 558 LINE",
"1078 558 LINE",
"1078 868 LINE",
"520 868 LINE",
"520 1128 LINE",
"1188 1128 LINE",
"1190 1446 LINE",
"130 1446 LINE"
);
}
);
width = 1255;
},
{
background = {
paths = (
{
closed = 1;
nodes = (
"228 20 LINE SMOOTH",
"228 4 OFFCURVE",
"232 0 OFFCURVE",
"246 0 CURVE SMOOTH",
"306 0 LINE SMOOTH",
"316 0 OFFCURVE",
"320 4 OFFCURVE",
"320 14 CURVE SMOOTH",
"320 666 LINE SMOOTH",
"320 682 OFFCURVE",
"324 684 OFFCURVE",
"338 684 CURVE SMOOTH",
"934 684 LINE SMOOTH",
"946 684 OFFCURVE",
"950 686 OFFCURVE",
"950 698 CURVE SMOOTH",
"950 750 LINE SMOOTH",
"950 760 OFFCURVE",
"946 764 OFFCURVE",
"936 764 CURVE SMOOTH",
"338 764 LINE SMOOTH",
"324 764 OFFCURVE",
"320 766 OFFCURVE",
"320 778 CURVE SMOOTH",
"320 1386 LINE SMOOTH",
"320 1402 OFFCURVE",
"324 1404 OFFCURVE",
"338 1404 CURVE SMOOTH",
"1054 1404 LINE SMOOTH",
"1066 1404 OFFCURVE",
"1070 1406 OFFCURVE",
"1070 1418 CURVE SMOOTH",
"1070 1470 LINE SMOOTH",
"1070 1480 OFFCURVE",
"1066 1484 OFFCURVE",
"1056 1484 CURVE SMOOTH",
"246 1484 LINE SMOOTH",
"232 1484 OFFCURVE",
"228 1480 OFFCURVE",
"228 1464 CURVE SMOOTH"
);
}
);
};
layerId = "91AB5BCA-6A50-42DA-B2F7-8181BF189245";
paths = (
{
closed = 1;
nodes = (
"220 0 LINE",
"306 0 LINE",
"306 692 LINE",
"986 692 LINE",
"986 774 LINE",
"306 774 LINE",
"306 1366 LINE",
"1038 1366 LINE",
"1038 1446 LINE",
"220 1446 LINE"
);
}
);
width = 1148;
}
);
leftKerningGroup = N;
leftMetricsKey = H;
rightKerningGroup = E;
rightMetricsKey = "=H/2";
unicode = 0046;
},
{
glyphname = G;
lastChange = "2019-05-03 15:58:09 +0000";
layers = (
{
anchors = (
{
name = bottom;
position = "{788, 0}";
},
{
name = top;
position = "{796, 1446}";
}
);
background = {
anchors = (
{
name = bottom;
position = "{784, 0}";
},
{
name = top;
position = "{784, 1484}";
}
);
paths = (
{
closed = 1;
nodes = (
"1016 -20 OFFCURVE",
"1118 80 OFFCURVE",
"1190 150 CURVE SMOOTH",
"1200 162 OFFCURVE",
"1206 162 OFFCURVE",
"1212 154 CURVE SMOOTH",
"1292 38 LINE SMOOTH",
"1312 10 OFFCURVE",
"1332 0 OFFCURVE",
"1356 0 CURVE SMOOTH",
"1432 0 LINE SMOOTH",
"1452 0 OFFCURVE",
"1466 16 OFFCURVE",
"1466 34 CURVE SMOOTH",
"1466 688 LINE SMOOTH",
"1466 724 OFFCURVE",
"1440 750 OFFCURVE",
"1390 750 CURVE SMOOTH",
"830 754 LINE SMOOTH",
"800 754 OFFCURVE",
"788 740 OFFCURVE",
"788 720 CURVE SMOOTH",
"788 528 LINE SMOOTH",
"788 494 OFFCURVE",
"800 484 OFFCURVE",
"828 484 CURVE SMOOTH",
"1016 484 LINE SMOOTH",
"1036 484 OFFCURVE",
"1042 472 OFFCURVE",
"1034 450 CURVE",
"1028 432 LINE",
"992 340 OFFCURVE",
"924 292 OFFCURVE",
"812 292 CURVE SMOOTH",
"660 292 OFFCURVE",
"556 386 OFFCURVE",
"556 748 CURVE SMOOTH",
"556 1088 OFFCURVE",
"648 1194 OFFCURVE",
"796 1194 CURVE SMOOTH",
"940 1194 OFFCURVE",
"1010 1094 OFFCURVE",
"1030 984 CURVE SMOOTH",
"1036 958 OFFCURVE",
"1038 944 OFFCURVE",
"1070 944 CURVE SMOOTH",
"1412 996 LINE SMOOTH",
"1444 1000 OFFCURVE",
"1452 1010 OFFCURVE",
"1440 1066 CURVE SMOOTH",
"1392 1280 OFFCURVE",
"1166 1504 OFFCURVE",
"806 1504 CURVE SMOOTH",
"378 1504 OFFCURVE",
"80 1198 OFFCURVE",
"80 736 CURVE SMOOTH",
"80 290 OFFCURVE",
"358 -20 OFFCURVE",
"780 -20 CURVE SMOOTH"
);
}
);
};
layerId = "258ED206-D907-4350-8EBA-CBDDA1C16BF7";
rightMetricsKey = "=H-30";
paths = (
{
closed = 1;
nodes = (
"1022 -20 OFFCURVE",
"1124 86 OFFCURVE",
"1196 160 CURVE",
"1196 0 LINE",
"1452 0 LINE",
"1452 764 LINE",
"790 768 LINE",
"790 506 LINE",
"1042 506 LINE",
"1024 454 LINE",
"1004 388 OFFCURVE",
"924 318 OFFCURVE",
"814 318 CURVE SMOOTH",
"690 318 OFFCURVE",
"524 376 OFFCURVE",
"524 730 CURVE SMOOTH",
"524 1042 OFFCURVE",
"654 1144 OFFCURVE",
"798 1144 CURVE SMOOTH",
"934 1144 OFFCURVE",
"1008 1054 OFFCURVE",
"1034 936 CURVE",
"1440 936 LINE",
"1436 1206 OFFCURVE",
"1196 1466 OFFCURVE",
"808 1466 CURVE SMOOTH",
"392 1466 OFFCURVE",
"100 1168 OFFCURVE",
"100 718 CURVE SMOOTH",
"100 282 OFFCURVE",
"372 -20 OFFCURVE",
"784 -20 CURVE SMOOTH"
);
}
);
width = 1552;
},
{
anchors = (
{
name = bottom;
position = "{706, 0}";
},
{
name = top;
position = "{708, 1446}";
}
);
background = {
anchors = (
{
name = bottom;
position = "{738, 0}";
},
{
name = top;
position = "{728, 1484}";
}
);
paths = (
{
closed = 1;
nodes = (
"948 -20 OFFCURVE",
"1094 90 OFFCURVE",
"1172 230 CURVE SMOOTH",
"1180 244 OFFCURVE",
"1188 242 OFFCURVE",
"1188 230 CURVE SMOOTH",
"1188 18 LINE SMOOTH",
"1188 0 OFFCURVE",
"1198 0 OFFCURVE",
"1214 0 CURVE SMOOTH",
"1248 0 LINE SMOOTH",
"1262 0 OFFCURVE",
"1268 4 OFFCURVE",
"1268 22 CURVE SMOOTH",
"1268 742 LINE SMOOTH",
"1268 750 OFFCURVE",
"1264 754 OFFCURVE",
"1256 754 CURVE SMOOTH",
"784 754 LINE SMOOTH",
"778 754 OFFCURVE",
"774 750 OFFCURVE",
"774 742 CURVE SMOOTH",
"774 696 LINE SMOOTH",
"774 688 OFFCURVE",
"778 684 OFFCURVE",
"788 684 CURVE SMOOTH",
"1166 684 LINE SMOOTH",
"1178 684 OFFCURVE",
"1188 682 OFFCURVE",
"1188 668 CURVE SMOOTH",
"1188 510 LINE SMOOTH",
"1188 322 OFFCURVE",
"1044 64 OFFCURVE",
"728 64 CURVE SMOOTH",
"402 64 OFFCURVE",
"232 306 OFFCURVE",
"232 748 CURVE SMOOTH",
"232 1168 OFFCURVE",
"406 1420 OFFCURVE",
"728 1420 CURVE SMOOTH",
"940 1420 OFFCURVE",
"1110 1280 OFFCURVE",
"1142 1102 CURVE SMOOTH",
"1144 1092 OFFCURVE",
"1150 1088 OFFCURVE",
"1156 1090 CURVE SMOOTH",
"1226 1102 LINE SMOOTH",
"1236 1104 OFFCURVE",
"1236 1110 OFFCURVE",
"1236 1118 CURVE SMOOTH",
"1212 1326 OFFCURVE",
"974 1504 OFFCURVE",
"728 1504 CURVE SMOOTH",
"366 1504 OFFCURVE",
"136 1228 OFFCURVE",
"136 736 CURVE SMOOTH",
"136 258 OFFCURVE",
"356 -20 OFFCURVE",
"726 -20 CURVE SMOOTH"
);
}
);
};
layerId = "91AB5BCA-6A50-42DA-B2F7-8181BF189245";
paths = (
{
closed = 1;
nodes = (
"930 -20 OFFCURVE",
"1078 100 OFFCURVE",
"1156 252 CURVE",
"1156 0 LINE",
"1234 0 LINE",
"1234 736 LINE",
"752 736 LINE",
"752 666 LINE",
"1156 666 LINE",
"1156 498 LINE SMOOTH",
"1156 314 OFFCURVE",
"1016 58 OFFCURVE",
"708 58 CURVE SMOOTH",
"390 58 OFFCURVE",
"212 298 OFFCURVE",
"212 730 CURVE SMOOTH",
"212 1138 OFFCURVE",
"394 1384 OFFCURVE",
"708 1384 CURVE SMOOTH",
"916 1384 OFFCURVE",
"1082 1242 OFFCURVE",
"1112 1060 CURVE",
"1204 1076 LINE",
"1182 1288 OFFCURVE",
"948 1466 OFFCURVE",
"708 1466 CURVE SMOOTH",
"354 1466 OFFCURVE",
"130 1198 OFFCURVE",
"130 718 CURVE SMOOTH",
"130 252 OFFCURVE",
"344 -20 OFFCURVE",
"706 -20 CURVE SMOOTH"
);
}
);
width = 1424;
}
);
leftKerningGroup = O;
leftMetricsKey = O;
rightKerningGroup = G;
rightMetricsKey = "=H-30";
unicode = 0047;
},
{
glyphname = H;
lastChange = "2019-04-30 22:03:58 +0000";
layers = (
{
anchors = (
{
name = bottom;
position = "{730, 0}";
},
{
name = top;
position = "{738, 1446}";
}
);
background = {
anchors = (
{
name = bottom;
position = "{726, 0}";
},
{
name = top;
position = "{730, 1484}";
}
);
paths = (
{
closed = 1;
nodes = (
"924 594 OFFCURVE",
"936 580 OFFCURVE",
"936 564 CURVE SMOOTH",
"936 58 LINE SMOOTH",
"936 16 OFFCURVE",
"956 0 OFFCURVE",
"1002 0 CURVE SMOOTH",
"1336 0 LINE SMOOTH",
"1378 0 OFFCURVE",
"1390 16 OFFCURVE",
"1390 50 CURVE SMOOTH",
"1390 1438 LINE SMOOTH",
"1390 1468 OFFCURVE",
"1374 1484 OFFCURVE",
"1352 1484 CURVE SMOOTH",
"972 1484 LINE SMOOTH",
"950 1484 OFFCURVE",
"936 1468 OFFCURVE",
"936 1442 CURVE SMOOTH",
"936 978 LINE SMOOTH",
"936 952 OFFCURVE",
"922 938 OFFCURVE",
"900 938 CURVE SMOOTH",
"564 938 LINE SMOOTH",
"542 938 OFFCURVE",
"528 952 OFFCURVE",
"528 978 CURVE SMOOTH",
"528 1442 LINE SMOOTH",
"528 1468 OFFCURVE",
"514 1484 OFFCURVE",
"492 1484 CURVE SMOOTH",
"112 1484 LINE SMOOTH",
"90 1484 OFFCURVE",
"74 1468 OFFCURVE",
"74 1438 CURVE SMOOTH",
"74 50 LINE SMOOTH",
"74 16 OFFCURVE",
"86 0 OFFCURVE",
"128 0 CURVE SMOOTH",
"462 0 LINE SMOOTH",
"508 0 OFFCURVE",
"528 16 OFFCURVE",
"528 58 CURVE SMOOTH",
"528 564 LINE SMOOTH",
"528 580 OFFCURVE",
"540 594 OFFCURVE",
"560 594 CURVE SMOOTH",
"904 594 LINE SMOOTH"
);
}
);
};
layerId = "258ED206-D907-4350-8EBA-CBDDA1C16BF7";
paths = (
{
closed = 1;
nodes = (
"958 0 LINE",
"1348 0 LINE",
"1348 1446 LINE",
"958 1446 LINE",
"958 898 LINE",
"520 898 LINE",
"520 1446 LINE",
"130 1446 LINE",
"130 0 LINE",
"520 0 LINE",
"520 580 LINE",
"958 580 LINE"
);
}
);
width = 1478;
},
{
anchors = (
{
name = bottom;
position = "{698, 0}";
},
{
name = top;
position = "{698, 1446}";
}
);
background = {
anchors = (
{
name = bottom;
position = "{718, 0}";
},
{
name = top;
position = "{718, 1484}";
}
);
paths = (
{
closed = 1;
nodes = (
"1118 732 OFFCURVE",
"1122 728 OFFCURVE",
"1122 718 CURVE SMOOTH",
"1122 18 LINE SMOOTH",
"1122 4 OFFCURVE",
"1128 0 OFFCURVE",
"1142 0 CURVE SMOOTH",
"1196 0 LINE SMOOTH",
"1208 0 OFFCURVE",
"1214 6 OFFCURVE",
"1214 20 CURVE SMOOTH",
"1214 1464 LINE SMOOTH",
"1214 1480 OFFCURVE",
"1210 1484 OFFCURVE",
"1196 1484 CURVE SMOOTH",
"1138 1484 LINE SMOOTH",
"1126 1484 OFFCURVE",
"1122 1478 OFFCURVE",
"1122 1466 CURVE SMOOTH",
"1122 828 LINE SMOOTH",
"1122 816 OFFCURVE",
"1118 812 OFFCURVE",
"1106 812 CURVE SMOOTH",
"330 812 LINE SMOOTH",
"316 812 OFFCURVE",
"312 814 OFFCURVE",
"312 830 CURVE SMOOTH",
"312 1464 LINE SMOOTH",
"312 1480 OFFCURVE",
"308 1484 OFFCURVE",
"294 1484 CURVE SMOOTH",
"238 1484 LINE SMOOTH",
"224 1484 OFFCURVE",
"220 1480 OFFCURVE",
"220 1464 CURVE SMOOTH",
"220 20 LINE SMOOTH",
"220 6 OFFCURVE",
"224 0 OFFCURVE",
"238 0 CURVE SMOOTH",
"292 0 LINE SMOOTH",
"306 0 OFFCURVE",
"312 6 OFFCURVE",
"312 18 CURVE SMOOTH",
"312 720 LINE SMOOTH",
"312 726 OFFCURVE",
"316 732 OFFCURVE",
"324 732 CURVE SMOOTH",
"1108 732 LINE SMOOTH"
);
}
);
};
layerId = "91AB5BCA-6A50-42DA-B2F7-8181BF189245";
paths = (
{
closed = 1;
nodes = (
"1096 0 LINE",
"1174 0 LINE",
"1174 1446 LINE",
"1096 1446 LINE",
"1096 794 LINE",
"298 794 LINE",
"298 1446 LINE",
"220 1446 LINE",
"220 0 LINE",
"298 0 LINE",
"298 712 LINE",
"1096 712 LINE"
);
}
);
width = 1394;
}
);
leftKerningGroup = N;
rightKerningGroup = N;
unicode = 0048;
},
{
glyphname = Hbar;
lastChange = "2019-04-16 18:49:16 +0000";
layers = (
{
background = {
components = (
{
name = H;
transform = "{1, 0, 0, 1, 45, 0}";
}
);
paths = (
{
closed = 1;
nodes = (
"1576 1270 OFFCURVE",
"1564 1284 OFFCURVE",
"1544 1284 CURVE SMOOTH",
"48 1284 LINE SMOOTH",
"30 1284 OFFCURVE",
"18 1270 OFFCURVE",
"18 1244 CURVE SMOOTH",
"18 1126 LINE SMOOTH",
"18 1096 OFFCURVE",
"28 1082 OFFCURVE",
"60 1082 CURVE SMOOTH",
"1520 1082 LINE SMOOTH",
"1558 1082 OFFCURVE",
"1576 1096 OFFCURVE",
"1576 1130 CURVE SMOOTH",
"1576 1248 LINE SMOOTH"
);
}
);
};
components = (
{
name = H;
transform = "{1, 0, 0, 1, 90, 0}";
}
);
layerId = "258ED206-D907-4350-8EBA-CBDDA1C16BF7";
paths = (
{
closed = 1;
nodes = (
"40 1284 LINE",
"40 1082 LINE",
"1598 1082 LINE",
"1598 1284 LINE"
);
}
);
width = 1638;
},
{
background = {
components = (
{
name = H;
transform = "{1, 0, 0, 1, 1, 0}";
}
);
paths = (
{
closed = 1;
nodes = (
"1378 1200 OFFCURVE",
"1374 1206 OFFCURVE",
"1366 1206 CURVE SMOOTH",
"34 1206 LINE SMOOTH",
"24 1206 OFFCURVE",
"20 1200 OFFCURVE",
"20 1188 CURVE SMOOTH",
"20 1146 LINE SMOOTH",
"20 1132 OFFCURVE",
"24 1128 OFFCURVE",
"40 1128 CURVE SMOOTH",
"1354 1128 LINE SMOOTH",
"1372 1128 OFFCURVE",
"1378 1132 OFFCURVE",
"1378 1148 CURVE SMOOTH",
"1378 1190 LINE SMOOTH"
);
}
);
};
components = (
{
name = H;
transform = "{1, 0, 0, 1, 2, 0}";
}
);
layerId = "91AB5BCA-6A50-42DA-B2F7-8181BF189245";
paths = (
{
closed = 1;
nodes = (
"20 1206 LINE",
"20 1128 LINE",
"1378 1128 LINE",
"1378 1206 LINE"
);
}
);
width = 1398;
}
);
leftKerningGroup = N;
rightKerningGroup = N;
unicode = 0126;
},
{
glyphname = I;
lastChange = "2019-04-30 22:04:04 +0000";
layers = (
{
anchors = (
{
name = bottom;
position = "{346, 0}";
},
{
name = ogonek;
position = "{472, 6}";
},
{
name = top;
position = "{326, 1446}";
}
);
background = {
anchors = (
{
name = bottom;
position = "{338, 0}";
},
{
name = ogonek;
position = "{502, 20}";
},
{
name = top;
position = "{340, 1484}";
}
);
paths = (
{
closed = 1;
nodes = (
"128 1484 OFFCURVE",
"112 1468 OFFCURVE",
"112 1438 CURVE SMOOTH",
"112 50 LINE SMOOTH",
"112 16 OFFCURVE",
"124 0 OFFCURVE",
"166 0 CURVE SMOOTH",
"500 0 LINE SMOOTH",
"546 0 OFFCURVE",
"566 16 OFFCURVE",
"566 58 CURVE SMOOTH",
"566 1442 LINE SMOOTH",
"566 1468 OFFCURVE",
"554 1484 OFFCURVE",
"530 1484 CURVE SMOOTH",
"150 1484 LINE SMOOTH"
);
}
);
};
layerId = "258ED206-D907-4350-8EBA-CBDDA1C16BF7";
paths = (
{
closed = 1;
nodes = (
"130 0 LINE",
"520 0 LINE",
"520 1446 LINE",
"130 1446 LINE"
);
}
);
width = 650;
},
{
anchors = (
{
name = bottom;
position = "{262, 0}";
},
{
name = ogonek;
position = "{288, 20}";
},
{
name = top;
position = "{260, 1446}";
}
);
background = {
anchors = (
{
name = bottom;
position = "{270, 0}";
},
{
name = ogonek;
position = "{294, 20}";
},
{
name = top;
position = "{276, 1484}";
}
);
paths = (
{
closed = 1;
nodes = (
"228 1484 OFFCURVE",
"224 1480 OFFCURVE",
"224 1464 CURVE SMOOTH",
"224 20 LINE SMOOTH",
"224 4 OFFCURVE",
"228 0 OFFCURVE",
"246 0 CURVE SMOOTH",
"292 0 LINE SMOOTH",
"312 0 OFFCURVE",
"316 4 OFFCURVE",
"316 24 CURVE SMOOTH",
"316 1464 LINE SMOOTH",
"316 1480 OFFCURVE",
"312 1484 OFFCURVE",
"298 1484 CURVE SMOOTH",
"242 1484 LINE SMOOTH"
);
}
);
};
layerId = "91AB5BCA-6A50-42DA-B2F7-8181BF189245";
paths = (
{
closed = 1;
nodes = (
"220 0 LINE",
"298 0 LINE",
"298 1446 LINE",
"220 1446 LINE"
);
}
);
width = 518;
}
);
leftKerningGroup = N;
leftMetricsKey = H;
rightKerningGroup = N;
rightMetricsKey = H;
unicode = 0049;
},
{
glyphname = J;
lastChange = "2019-04-30 22:04:04 +0000";
layers = (
{
anchors = (
{
name = top;
position = "{516, 1446}";
}
);
background = {
anchors = (
{
name = top;
position = "{416, 1484}";
}
);
paths = (
{
closed = 1;
nodes = (
"770 1442 LINE SMOOTH",
"770 1468 OFFCURVE",
"758 1484 OFFCURVE",
"734 1484 CURVE SMOOTH",
"356 1484 LINE SMOOTH",
"332 1484 OFFCURVE",
"316 1468 OFFCURVE",
"316 1438 CURVE SMOOTH",
"316 536 LINE SMOOTH",
"316 400 OFFCURVE",
"258 350 OFFCURVE",
"160 350 CURVE SMOOTH",
"116 350 OFFCURVE",
"82 360 OFFCURVE",
"50 364 CURVE SMOOTH",
"18 368 OFFCURVE",
"4 348 OFFCURVE",
"2 318 CURVE SMOOTH",
"-16 90 LINE SMOOTH",
"-20 34 OFFCURVE",
"0 12 OFFCURVE",
"46 4 CURVE SMOOTH",
"136 -12 OFFCURVE",
"212 -20 OFFCURVE",
"294 -20 CURVE SMOOTH",
"606 -20 OFFCURVE",
"770 96 OFFCURVE",
"770 424 CURVE SMOOTH"
);
}
);
};
layerId = "258ED206-D907-4350-8EBA-CBDDA1C16BF7";
paths = (
{
closed = 1;
nodes = (
"720 1446 LINE",
"330 1446 LINE",
"330 558 LINE SMOOTH",
"330 408 OFFCURVE",
"296 340 OFFCURVE",
"158 340 CURVE SMOOTH",
"116 340 OFFCURVE",
"66 346 OFFCURVE",
"30 350 CURVE",
"30 0 LINE",
"90 -12 OFFCURVE",
"210 -20 OFFCURVE",
"292 -20 CURVE SMOOTH",
"642 -20 OFFCURVE",
"720 138 OFFCURVE",
"720 458 CURVE SMOOTH"
);
}
);
width = 850;
},
{
anchors = (
{
name = top;
position = "{504, 1446}";
}
);
background = {
anchors = (
{
name = top;
position = "{524, 1484}";
}
);
paths = (
{
closed = 1;
nodes = (
"570 1464 LINE SMOOTH",
"570 1478 OFFCURVE",
"566 1484 OFFCURVE",
"554 1484 CURVE SMOOTH",
"494 1484 LINE SMOOTH",
"482 1484 OFFCURVE",
"478 1478 OFFCURVE",
"478 1466 CURVE SMOOTH",
"478 308 LINE SMOOTH",
"478 122 OFFCURVE",
"434 68 OFFCURVE",
"304 68 CURVE SMOOTH",
"206 68 OFFCURVE",
"162 98 OFFCURVE",
"120 118 CURVE SMOOTH",
"112 122 OFFCURVE",
"106 120 OFFCURVE",
"104 110 CURVE SMOOTH",
"86 48 LINE SMOOTH",
"84 40 OFFCURVE",
"88 34 OFFCURVE",
"94 30 CURVE SMOOTH",
"108 20 OFFCURVE",
"198 -20 OFFCURVE",
"308 -20 CURVE SMOOTH",
"502 -20 OFFCURVE",
"570 98 OFFCURVE",
"570 288 CURVE SMOOTH"
);
}
);
};
layerId = "91AB5BCA-6A50-42DA-B2F7-8181BF189245";
paths = (
{
closed = 1;
nodes = (
"544 1446 LINE",
"466 1446 LINE",
"466 308 LINE SMOOTH",
"466 126 OFFCURVE",
"422 62 OFFCURVE",
"296 62 CURVE SMOOTH",
"194 62 OFFCURVE",
"144 104 OFFCURVE",
"100 124 CURVE",
"80 38 LINE",
"94 26 OFFCURVE",
"186 -20 OFFCURVE",
"300 -20 CURVE SMOOTH",
"488 -20 OFFCURVE",
"544 96 OFFCURVE",
"544 280 CURVE SMOOTH"
);
}
);
width = 764;
}
);
leftKerningGroup = J;
leftMetricsKey = X;
rightKerningGroup = N;
rightMetricsKey = H;
unicode = 004A;
},
{
glyphname = K;
lastChange = "2019-05-06 19:22:05 +0000";
layers = (
{
anchors = (
{
name = bottom;
position = "{714, 0}";
},
{
name = top;
position = "{740, 1446}";
}
);
background = {
anchors = (
{
name = bottom;
position = "{710, 0}";
},
{
name = top;
position = "{710, 1484}";
}
);
paths = (
{
closed = 1;
nodes = (
"1022 960 LINE SMOOTH",
"1010 988 OFFCURVE",
"1012 1002 OFFCURVE",
"1028 1024 CURVE SMOOTH",
"1356 1426 LINE SMOOTH",
"1382 1456 OFFCURVE",
"1358 1484 OFFCURVE",
"1314 1484 CURVE SMOOTH",
"1010 1484 LINE SMOOTH",
"962 1484 OFFCURVE",
"946 1472 OFFCURVE",
"924 1442 CURVE SMOOTH",
"556 926 LINE",
"540 906 OFFCURVE",
"526 904 OFFCURVE",
"526 936 CURVE SMOOTH",
"526 1442 LINE SMOOTH",
"526 1468 OFFCURVE",
"514 1484 OFFCURVE",
"490 1484 CURVE SMOOTH",
"110 1484 LINE SMOOTH",
"88 1484 OFFCURVE",
"72 1468 OFFCURVE",
"72 1438 CURVE SMOOTH",
"72 50 LINE SMOOTH",
"72 16 OFFCURVE",
"84 0 OFFCURVE",
"126 0 CURVE SMOOTH",
"460 0 LINE SMOOTH",
"506 0 OFFCURVE",
"526 16 OFFCURVE",
"526 58 CURVE SMOOTH",
"526 360 LINE SMOOTH",
"526 380 OFFCURVE",
"528 392 OFFCURVE",
"538 404 CURVE SMOOTH",
"680 586 LINE SMOOTH",
"700 612 OFFCURVE",
"712 616 OFFCURVE",
"724 596 CURVE SMOOTH",
"968 40 LINE SMOOTH",
"982 10 OFFCURVE",
"1006 0 OFFCURVE",
"1040 0 CURVE SMOOTH",
"1430 0 LINE SMOOTH",
"1470 0 OFFCURVE",
"1474 30 OFFCURVE",
"1458 62 CURVE SMOOTH"
);
}
);
};
guideLines = (
{
angle = 54.4985;
position = "{664, 670}";
},
{
angle = -62.8805;
position = "{351, 283}";
}
);
hints = (
{
horizontal = 1;
origin = "{0, 6}";
target = up;
type = BottomGhost;
},
{
horizontal = 1;
origin = "{0, 5}";
target = down;
type = TopGhost;
},
{
place = "{164, 442}";
type = Stem;
}
);
layerId = "258ED206-D907-4350-8EBA-CBDDA1C16BF7";
paths = (
{
closed = 1;
nodes = (
"992 894 LINE",
"1390 1446 LINE",
"952 1446 LINE",
"534 862 LINE",
"534 1446 LINE",
"130 1446 LINE",
"130 0 LINE",
"534 0 LINE",
"534 378 LINE",
"714 610 LINE",
"1036 0 LINE",
"1454 0 LINE"
);
}
);
width = 1484;
},
{
anchors = (
{
name = bottom;
position = "{664, 0}";
},
{
name = top;
position = "{698, 1446}";
}
);
background = {
anchors = (
{
name = bottom;
position = "{686, 0}";
},
{
name = top;
position = "{746, 1484}";
}
);
paths = (
{
closed = 1;
nodes = (
"686 890 LINE SMOOTH",
"682 898 OFFCURVE",
"682 898 OFFCURVE",
"686 902 CURVE SMOOTH",
"1204 1468 LINE SMOOTH",
"1212 1476 OFFCURVE",
"1210 1484 OFFCURVE",
"1198 1484 CURVE SMOOTH",
"1122 1484 LINE SMOOTH",
"1110 1484 OFFCURVE",
"1106 1482 OFFCURVE",
"1100 1476 CURVE SMOOTH",
"334 644 LINE SMOOTH",
"324 634 OFFCURVE",
"320 634 OFFCURVE",
"320 646 CURVE SMOOTH",
"320 1468 LINE SMOOTH",
"320 1480 OFFCURVE",
"314 1484 OFFCURVE",
"304 1484 CURVE SMOOTH",
"244 1484 LINE SMOOTH",
"232 1484 OFFCURVE",
"228 1478 OFFCURVE",
"228 1468 CURVE SMOOTH",
"228 18 LINE SMOOTH",
"228 4 OFFCURVE",
"234 0 OFFCURVE",
"248 0 CURVE SMOOTH",
"300 0 LINE SMOOTH",
"314 0 OFFCURVE",
"320 6 OFFCURVE",
"320 18 CURVE SMOOTH",
"320 492 LINE SMOOTH",
"320 508 OFFCURVE",
"324 514 OFFCURVE",
"336 526 CURVE SMOOTH",
"600 818 LINE SMOOTH",
"610 828 OFFCURVE",
"616 830 OFFCURVE",
"624 818 CURVE SMOOTH",
"1140 10 LINE SMOOTH",
"1144 4 OFFCURVE",
"1152 0 OFFCURVE",
"1162 0 CURVE SMOOTH",
"1240 0 LINE SMOOTH",
"1248 0 OFFCURVE",
"1252 6 OFFCURVE",
"1246 14 CURVE SMOOTH"
);
}
);
};
layerId = "91AB5BCA-6A50-42DA-B2F7-8181BF189245";
paths = (
{
closed = 1;
nodes = (
"656 876 LINE",
"1178 1446 LINE",
"1070 1446 LINE",
"302 612 LINE",
"302 1446 LINE",
"220 1446 LINE",
"220 0 LINE",
"302 0 LINE",
"302 496 LINE",
"588 814 LINE",
"1108 0 LINE",
"1212 0 LINE"
);
}
);
width = 1292;
}
);
leftKerningGroup = N;
leftMetricsKey = H;
rightKerningGroup = K;
rightMetricsKey = X;
unicode = 004B;
},
{
glyphname = L;
lastChange = "2019-05-02 20:37:44 +0000";
layers = (
{
anchors = (
{
name = bottom;
position = "{608, 0}";
},
{
name = top;
position = "{316, 1446}";
},
{
name = topright;
position = "{972, 1446}";
}
);
background = {
anchors = (
{
name = bottom;
position = "{602, 0}";
},
{
name = top;
position = "{310, 1484}";
},
{
name = topright;
position = "{994, 1484}";
}
);
paths = (
{
closed = 1;
nodes = (
"78 50 LINE SMOOTH",
"78 16 OFFCURVE",
"90 0 OFFCURVE",
"132 0 CURVE SMOOTH",
"1154 0 LINE SMOOTH",
"1188 0 OFFCURVE",
"1204 20 OFFCURVE",
"1204 44 CURVE SMOOTH",
"1204 290 LINE SMOOTH",
"1204 318 OFFCURVE",
"1186 328 OFFCURVE",
"1158 328 CURVE SMOOTH",
"556 328 LINE SMOOTH",
"538 328 OFFCURVE",
"532 334 OFFCURVE",
"532 356 CURVE SMOOTH",
"532 1442 LINE SMOOTH",
"532 1468 OFFCURVE",
"520 1484 OFFCURVE",
"496 1484 CURVE SMOOTH",
"116 1484 LINE SMOOTH",
"94 1484 OFFCURVE",
"78 1468 OFFCURVE",
"78 1438 CURVE SMOOTH"
);
}
);
};
layerId = "258ED206-D907-4350-8EBA-CBDDA1C16BF7";
paths = (
{
closed = 1;
nodes = (
"130 0 LINE",
"1098 0 LINE",
"1098 320 LINE",
"520 320 LINE",
"520 1446 LINE",
"130 1446 LINE"
);
}
);
width = 1128;
},
{
anchors = (
{
name = bottom;
position = "{620, 0}";
},
{
name = top;
position = "{266, 1446}";
},
{
name = topright;
position = "{820, 1446}";
}
);
background = {
anchors = (
{
name = bottom;
position = "{638, 0}";
},
{
name = top;
position = "{274, 1484}";
},
{
name = topright;
position = "{846, 1484}";
}
);
paths = (
{
closed = 1;
nodes = (
"228 20 LINE SMOOTH",
"228 6 OFFCURVE",
"232 0 OFFCURVE",
"246 0 CURVE",
"1066 0 LINE",
"1076 0 OFFCURVE",
"1080 4 OFFCURVE",
"1080 14 CURVE SMOOTH",
"1080 66 LINE SMOOTH",
"1080 78 OFFCURVE",
"1076 80 OFFCURVE",
"1064 80 CURVE SMOOTH",
"338 80 LINE SMOOTH",
"324 80 OFFCURVE",
"320 82 OFFCURVE",
"320 98 CURVE SMOOTH",
"320 1464 LINE SMOOTH",
"320 1480 OFFCURVE",
"316 1484 OFFCURVE",
"302 1484 CURVE SMOOTH",
"246 1484 LINE SMOOTH",
"232 1484 OFFCURVE",
"228 1480 OFFCURVE",
"228 1464 CURVE SMOOTH"
);
}
);
};
layerId = "91AB5BCA-6A50-42DA-B2F7-8181BF189245";
paths = (
{
closed = 1;
nodes = (
"220 0 LINE",
"1044 0 LINE",
"1044 86 LINE",
"306 86 LINE",
"306 1446 LINE",
"222 1446 LINE"
);
}
);
width = 1124;
}
);
leftKerningGroup = N;
leftMetricsKey = H;
rightKerningGroup = L;
rightMetricsKey = X;
unicode = 004C;
},
{
glyphname = Lslash;
lastChange = "2019-04-30 22:14:14 +0000";
layers = (
{
background = {
components = (
{
name = L;
transform = "{1, 0, 0, 1, 20, 0}";
}
);
paths = (
{
closed = 1;
nodes = (
"874 1072 OFFCURVE",
"860 1086 OFFCURVE",
"826 1076 CURVE SMOOTH",
"38 866 LINE SMOOTH",
"14 860 OFFCURVE",
"0 850 OFFCURVE",
"0 820 CURVE SMOOTH",
"0 586 LINE SMOOTH",
"0 554 OFFCURVE",
"12 540 OFFCURVE",
"50 552 CURVE SMOOTH",
"834 774 LINE SMOOTH",
"862 782 OFFCURVE",
"874 798 OFFCURVE",
"874 820 CURVE SMOOTH",
"874 1042 LINE SMOOTH"
);
}
);
};
components = (
{
name = L;
transform = "{1, 0, 0, 1, 40, 0}";
}
);
layerId = "258ED206-D907-4350-8EBA-CBDDA1C16BF7";
paths = (
{
closed = 1;
nodes = (
"0 856 LINE",
"0 538 LINE",
"874 786 LINE",
"874 1088 LINE"
);
}
);
width = 1168;
},
{
background = {
components = (
{
name = L;
transform = "{1, 0, 0, 1, -5, 0}";
}
);
paths = (
{
closed = 1;
nodes = (
"634 850 OFFCURVE",
"630 854 OFFCURVE",
"620 852 CURVE SMOOTH",
"70 712 LINE SMOOTH",
"64 710 OFFCURVE",
"60 704 OFFCURVE",
"60 694 CURVE SMOOTH",
"60 648 LINE SMOOTH",
"60 638 OFFCURVE",
"64 636 OFFCURVE",
"74 638 CURVE SMOOTH",
"622 780 LINE SMOOTH",
"630 782 OFFCURVE",
"634 788 OFFCURVE",
"634 796 CURVE SMOOTH",
"634 842 LINE SMOOTH"
);
}
);
};
components = (
{
name = L;
transform = "{1, 0, 0, 1, -10, 0}";
}
);
layerId = "91AB5BCA-6A50-42DA-B2F7-8181BF189245";
paths = (
{
closed = 1;
nodes = (
"60 710 LINE",
"60 634 LINE",
"634 784 LINE",
"634 856 LINE"
);
}
);
width = 1114;
}
);
leftKerningGroup = N;
rightKerningGroup = L;
rightMetricsKey = L;
unicode = 0141;
},
{
glyphname = M;
lastChange = "2019-05-06 17:57:15 +0000";
layers = (
{
background = {
paths = (
{
closed = 1;
nodes = (
"420 0 LINE SMOOTH",
"456 0 OFFCURVE",
"464 8 OFFCURVE",
"464 44 CURVE SMOOTH",
"464 928 LINE SMOOTH",
"464 954 OFFCURVE",
"478 962 OFFCURVE",
"488 930 CURVE SMOOTH",
"776 36 LINE SMOOTH",
"784 12 OFFCURVE",
"800 0 OFFCURVE",
"824 0 CURVE SMOOTH",
"1034 0 LINE SMOOTH",
"1056 0 OFFCURVE",
"1074 14 OFFCURVE",
"1082 36 CURVE SMOOTH",
"1370 946 LINE SMOOTH",
"1378 970 OFFCURVE",
"1394 970 OFFCURVE",
"1394 948 CURVE SMOOTH",
"1394 50 LINE SMOOTH",
"1394 16 OFFCURVE",
"1406 0 OFFCURVE",
"1446 0 CURVE SMOOTH",
"1784 0 LINE SMOOTH",
"1830 0 OFFCURVE",
"1848 16 OFFCURVE",
"1848 58 CURVE SMOOTH",
"1848 1442 LINE SMOOTH",
"1848 1468 OFFCURVE",
"1836 1484 OFFCURVE",
"1812 1484 CURVE SMOOTH",
"1234 1484 LINE SMOOTH",
"1206 1484 OFFCURVE",
"1190 1462 OFFCURVE",
"1180 1426 CURVE SMOOTH",
"994 812 LINE SMOOTH",
"988 794 OFFCURVE",
"976 790 OFFCURVE",
"968 812 CURVE SMOOTH",
"760 1448 LINE SMOOTH",
"750 1476 OFFCURVE",
"738 1484 OFFCURVE",
"704 1484 CURVE SMOOTH",
"144 1484 LINE SMOOTH",
"114 1484 OFFCURVE",
"102 1470 OFFCURVE",
"102 1438 CURVE SMOOTH",
"102 56 LINE SMOOTH",
"102 22 OFFCURVE",
"122 0 OFFCURVE",
"154 0 CURVE SMOOTH"
);
}
);
};
guideLines = (
{
angle = -105;
position = "{456, 261}";
},
{
angle = 105;
position = "{456, 261}";
}
);
layerId = "258ED206-D907-4350-8EBA-CBDDA1C16BF7";
paths = (
{
closed = 1;
nodes = (
"520 0 LINE",
"520 1048 LINE",
"802 0 LINE",
"1082 0 LINE",
"1364 1048 LINE",
"1364 0 LINE",
"1754 0 LINE",
"1754 1446 LINE",
"1178 1446 LINE",
"942 564 LINE",
"708 1446 LINE",
"130 1446 LINE",
"130 0 LINE"
);
}
);
width = 1884;
},
{
background = {
guideLines = (
{
position = "{44, 566}";
showMeasurement = 1;
}
);
paths = (
{
closed = 1;
nodes = (
"288 0 LINE SMOOTH",
"302 0 OFFCURVE",
"308 6 OFFCURVE",
"308 18 CURVE SMOOTH",
"308 1244 LINE SMOOTH",
"308 1252 OFFCURVE",
"312 1250 OFFCURVE",
"314 1244 CURVE SMOOTH",
"802 20 LINE SMOOTH",
"808 6 OFFCURVE",
"818 0 OFFCURVE",
"840 0 CURVE SMOOTH",
"894 0 LINE SMOOTH",
"912 0 OFFCURVE",
"920 6 OFFCURVE",
"926 22 CURVE SMOOTH",
"1424 1254 LINE SMOOTH",
"1426 1260 OFFCURVE",
"1430 1264 OFFCURVE",
"1430 1254 CURVE SMOOTH",
"1430 18 LINE SMOOTH",
"1430 4 OFFCURVE",
"1436 0 OFFCURVE",
"1450 0 CURVE SMOOTH",
"1504 0 LINE SMOOTH",
"1516 0 OFFCURVE",
"1522 6 OFFCURVE",
"1522 20 CURVE SMOOTH",
"1522 1464 LINE SMOOTH",
"1522 1480 OFFCURVE",
"1518 1484 OFFCURVE",
"1504 1484 CURVE SMOOTH",
"1446 1484 LINE SMOOTH",
"1434 1484 OFFCURVE",
"1428 1480 OFFCURVE",
"1424 1470 CURVE SMOOTH",
"882 130 LINE SMOOTH",
"870 102 OFFCURVE",
"860 102 OFFCURVE",
"850 128 CURVE SMOOTH",
"316 1468 LINE",
"312 1480 OFFCURVE",
"306 1484 OFFCURVE",
"290 1484 CURVE SMOOTH",
"238 1484 LINE SMOOTH",
"224 1484 OFFCURVE",
"220 1480 OFFCURVE",
"220 1464 CURVE SMOOTH",
"220 20 LINE SMOOTH",
"220 6 OFFCURVE",
"224 0 OFFCURVE",
"238 0 CURVE SMOOTH"
);
}
);
};
guideLines = (
{
position = "{115, 525}";
showMeasurement = 1;
},
{
angle = 68.255;
position = "{397, 0}";
}
);
layerId = "91AB5BCA-6A50-42DA-B2F7-8181BF189245";
paths = (
{
closed = 1;
nodes = (
"306 0 LINE",
"306 1216 LINE",
"792 0 LINE",
"908 0 LINE",
"1400 1232 LINE",
"1400 0 LINE",
"1486 0 LINE",
"1486 1446 LINE",
"1400 1446 LINE",
"850 88 LINE",
"308 1446 LINE",
"220 1446 LINE",
"220 0 LINE"
);
}
);
width = 1706;
}
);
leftKerningGroup = N;
leftMetricsKey = "=H";
rightKerningGroup = N;
rightMetricsKey = H;
unicode = 004D;
},
{
glyphname = N;
lastChange = "2019-05-06 20:05:28 +0000";
layers = (
{
anchors = (
{
name = bottom;
position = "{802, 0}";
},
{
name = top;
position = "{802, 1446}";
}
);
background = {
anchors = (
{
name = bottom;
position = "{800, 0}";
},
{
name = top;
position = "{800, 1484}";
}
);
paths = (
{
closed = 1;
nodes = (
"1106 1484 OFFCURVE",
"1092 1468 OFFCURVE",
"1092 1442 CURVE SMOOTH",
"1092 788 LINE SMOOTH",
"1092 756 OFFCURVE",
"1078 756 OFFCURVE",
"1060 780 CURVE SMOOTH",
"580 1448 LINE SMOOTH",
"558 1478 OFFCURVE",
"546 1484 OFFCURVE",
"512 1484 CURVE SMOOTH",
"186 1484 LINE SMOOTH",
"156 1484 OFFCURVE",
"142 1470 OFFCURVE",
"142 1438 CURVE SMOOTH",
"142 40 LINE SMOOTH",
"142 10 OFFCURVE",
"162 0 OFFCURVE",
"192 0 CURVE SMOOTH",
"464 0 LINE SMOOTH",
"500 0 OFFCURVE",
"514 12 OFFCURVE",
"512 44 CURVE SMOOTH",
"512 772 LINE SMOOTH",
"512 786 OFFCURVE",
"522 790 OFFCURVE",
"532 776 CURVE SMOOTH",
"1082 30 LINE SMOOTH",
"1102 4 OFFCURVE",
"1114 0 OFFCURVE",
"1136 0 CURVE SMOOTH",
"1410 0 LINE SMOOTH",
"1436 0 OFFCURVE",
"1456 14 OFFCURVE",
"1456 36 CURVE SMOOTH",
"1456 1450 LINE SMOOTH",
"1456 1472 OFFCURVE",
"1446 1484 OFFCURVE",
"1426 1484 CURVE SMOOTH",
"1136 1484 LINE SMOOTH"
);
}
);
};
guideLines = (
{
angle = 125.0467;
position = "{523, 296}";
}
);
layerId = "258ED206-D907-4350-8EBA-CBDDA1C16BF7";
paths = (
{
closed = 1;
nodes = (
"1086 640 LINE",
"522 1446 LINE",
"130 1446 LINE",
"130 0 LINE",
"520 0 LINE",
"520 862 LINE",
"1124 0 LINE",
"1476 0 LINE",
"1476 1446 LINE",
"1086 1446 LINE"
);
}
);
width = 1606;
},
{
anchors = (
{
name = bottom;
position = "{678, 0}";
},
{
name = top;
position = "{726, 1446}";
}
);
background = {
anchors = (
{
name = bottom;
position = "{710, 0}";
},
{
name = top;
position = "{780, 1484}";
}
);
guideLines = (
{
position = "{49, 576}";
showMeasurement = 1;
}
);
paths = (
{
closed = 1;
nodes = (
"1190 1484 OFFCURVE",
"1186 1478 OFFCURVE",
"1186 1466 CURVE SMOOTH",
"1186 214 LINE SMOOTH",
"1186 202 OFFCURVE",
"1172 190 OFFCURVE",
"1158 210 CURVE SMOOTH",
"304 1470 LINE SMOOTH",
"296 1482 OFFCURVE",
"290 1484 OFFCURVE",
"274 1484 CURVE SMOOTH",
"238 1484 LINE",
"224 1484 OFFCURVE",
"220 1480 OFFCURVE",
"220 1464 CURVE SMOOTH",
"220 20 LINE SMOOTH",
"220 6 OFFCURVE",
"224 0 OFFCURVE",
"238 0 CURVE SMOOTH",
"288 0 LINE SMOOTH",
"302 0 OFFCURVE",
"308 6 OFFCURVE",
"308 18 CURVE SMOOTH",
"308 1274 LINE SMOOTH",
"308 1290 OFFCURVE",
"318 1294 OFFCURVE",
"332 1274 CURVE SMOOTH",
"1188 12 LINE SMOOTH",
"1198 -2 OFFCURVE",
"1210 0 OFFCURVE",
"1226 0 CURVE SMOOTH",
"1256 0 LINE SMOOTH",
"1268 0 OFFCURVE",
"1274 6 OFFCURVE",
"1274 20 CURVE SMOOTH",
"1274 1464 LINE SMOOTH",
"1274 1480 OFFCURVE",
"1270 1484 OFFCURVE",
"1256 1484 CURVE SMOOTH",
"1202 1484 LINE SMOOTH"
);
}
);
};
guideLines = (
{
position = "{120, 534}";
showMeasurement = 1;
},
{
angle = 123.9688;
position = "{122, 610}";
}
);
layerId = "91AB5BCA-6A50-42DA-B2F7-8181BF189245";
paths = (
{
closed = 1;
nodes = (
"1154 156 LINE",
"284 1446 LINE",
"220 1446 LINE",
"220 0 LINE",
"298 0 LINE",
"298 1286 LINE",
"1164 0 LINE",
"1232 0 LINE",
"1232 1446 LINE",
"1154 1446 LINE"
);
}
);
width = 1452;
}
);
leftKerningGroup = N;
leftMetricsKey = H;
rightKerningGroup = N;
rightMetricsKey = H;
unicode = 004E;
},
{
glyphname = Eng;
lastChange = "2019-05-06 20:05:28 +0000";
layers = (
{
background = {
paths = (
{
closed = 1;
nodes = (
"1114 1484 LINE SMOOTH",
"1084 1484 OFFCURVE",
"1070 1468 OFFCURVE",
"1070 1442 CURVE SMOOTH",
"1070 868 LINE SMOOTH",
"1070 836 OFFCURVE",
"1056 836 OFFCURVE",
"1038 860 CURVE",
"558 1448 LINE SMOOTH",
"534 1478 OFFCURVE",
"524 1484 OFFCURVE",
"490 1484 CURVE SMOOTH",
"164 1484 LINE SMOOTH",
"134 1484 OFFCURVE",
"120 1470 OFFCURVE",
"120 1438 CURVE SMOOTH",
"120 40 LINE SMOOTH",
"120 10 OFFCURVE",
"140 0 OFFCURVE",
"170 0 CURVE SMOOTH",
"442 0 LINE SMOOTH",
"478 0 OFFCURVE",
"492 12 OFFCURVE",
"490 44 CURVE",
"490 772 LINE",
"490 786 OFFCURVE",
"498 790 OFFCURVE",
"510 776 CURVE SMOOTH",
"990 194 LINE",
"990 176 LINE SMOOTH",
"984 62 OFFCURVE",
"924 20 OFFCURVE",
"834 20 CURVE SMOOTH",
"790 20 OFFCURVE",
"744 30 OFFCURVE",
"712 34 CURVE SMOOTH",
"680 38 OFFCURVE",
"666 18 OFFCURVE",
"664 -12 CURVE SMOOTH",
"646 -240 LINE SMOOTH",
"642 -296 OFFCURVE",
"662 -318 OFFCURVE",
"708 -326 CURVE SMOOTH",
"798 -342 OFFCURVE",
"886 -350 OFFCURVE",
"968 -350 CURVE SMOOTH",
"1272 -350 OFFCURVE",
"1434 -228 OFFCURVE",
"1434 94 CURVE SMOOTH",
"1434 1450 LINE SMOOTH",
"1434 1472 OFFCURVE",
"1424 1484 OFFCURVE",
"1404 1484 CURVE SMOOTH"
);
}
);
};
components = (
{
name = N;
},
{
alignment = -1;
name = "_j-hook";
transform = "{1, 0, 0, 1, 744, -460}";
}
);
layerId = "258ED206-D907-4350-8EBA-CBDDA1C16BF7";
width = 1614;
},
{
background = {
paths = (
{
closed = 1;
nodes = (
"1206 1484 LINE SMOOTH",
"1194 1484 OFFCURVE",
"1190 1478 OFFCURVE",
"1190 1466 CURVE SMOOTH",
"1190 214 LINE SMOOTH",
"1190 202 OFFCURVE",
"1176 188 OFFCURVE",
"1162 208 CURVE SMOOTH",
"310 1470 LINE SMOOTH",
"302 1482 OFFCURVE",
"296 1484 OFFCURVE",
"282 1484 CURVE SMOOTH",
"240 1484 LINE SMOOTH",
"226 1484 OFFCURVE",
"222 1480 OFFCURVE",
"222 1464 CURVE SMOOTH",
"222 20 LINE SMOOTH",
"222 6 OFFCURVE",
"226 0 OFFCURVE",
"240 0 CURVE SMOOTH",
"290 0 LINE SMOOTH",
"304 0 OFFCURVE",
"310 6 OFFCURVE",
"310 18 CURVE SMOOTH",
"310 1280 LINE SMOOTH",
"310 1296 OFFCURVE",
"314 1300 OFFCURVE",
"328 1280 CURVE SMOOTH",
"1184 24 LINE",
"1184 -82 LINE SMOOTH",
"1184 -224 OFFCURVE",
"1122 -270 OFFCURVE",
"1014 -270 CURVE SMOOTH",
"954 -270 OFFCURVE",
"906 -256 OFFCURVE",
"874 -244 CURVE SMOOTH",
"864 -240 OFFCURVE",
"860 -242 OFFCURVE",
"858 -252 CURVE",
"852 -302 LINE",
"852 -310 OFFCURVE",
"854 -316 OFFCURVE",
"860 -320 CURVE SMOOTH",
"874 -330 OFFCURVE",
"940 -350 OFFCURVE",
"1022 -350 CURVE SMOOTH",
"1210 -350 OFFCURVE",
"1276 -248 OFFCURVE",
"1276 -92 CURVE SMOOTH",
"1276 1464 LINE SMOOTH",
"1276 1480 OFFCURVE",
"1272 1484 OFFCURVE",
"1258 1484 CURVE SMOOTH"
);
}
);
};
components = (
{
name = N;
},
{
alignment = -1;
name = "_j-hook";
transform = "{1, 0, 0, 1, 716, -460}";
}
);
layerId = "91AB5BCA-6A50-42DA-B2F7-8181BF189245";
width = 1452;
}
);
leftKerningGroup = N;
leftMetricsKey = N;
rightKerningGroup = N;
rightMetricsKey = N;
unicode = 014A;
},
{
glyphname = O;
lastChange = "2019-05-02 20:50:03 +0000";
layers = (
{
anchors = (
{
name = bottom;
position = "{804, 0}";
},
{
name = horn;
position = "{1290, 1094}";
},
{
name = ogonek;
position = "{982, 20}";
},
{
name = top;
position = "{800, 1446}";
}
);
background = {
anchors = (
{
name = bottom;
position = "{802, 0}";
},
{
name = ogonek;
position = "{984, 20}";
},
{
name = top;
position = "{798, 1484}";
}
);
paths = (
{
closed = 1;
nodes = (
"1236 -20 OFFCURVE",
"1516 278 OFFCURVE",
"1516 738 CURVE SMOOTH",
"1516 1202 OFFCURVE",
"1230 1504 OFFCURVE",
"800 1504 CURVE SMOOTH",
"366 1504 OFFCURVE",
"80 1202 OFFCURVE",
"80 738 CURVE SMOOTH",
"80 276 OFFCURVE",
"358 -20 OFFCURVE",
"800 -20 CURVE SMOOTH"
);
},
{
closed = 1;
nodes = (
"622 292 OFFCURVE",
"556 412 OFFCURVE",
"556 732 CURVE SMOOTH",
"556 1062 OFFCURVE",
"626 1196 OFFCURVE",
"800 1196 CURVE SMOOTH",
"970 1196 OFFCURVE",
"1040 1062 OFFCURVE",
"1040 732 CURVE SMOOTH",
"1040 412 OFFCURVE",
"974 292 OFFCURVE",
"800 292 CURVE SMOOTH"
);
}
);
};
guideLines = (
{
angle = 90;
position = "{-498, 389}";
}
);
layerId = "258ED206-D907-4350-8EBA-CBDDA1C16BF7";
paths = (
{
closed = 1;
nodes = (
"1228 -20 OFFCURVE",
"1500 272 OFFCURVE",
"1500 720 CURVE SMOOTH",
"1500 1172 OFFCURVE",
"1222 1466 OFFCURVE",
"802 1466 CURVE SMOOTH",
"380 1466 OFFCURVE",
"100 1172 OFFCURVE",
"100 720 CURVE SMOOTH",
"100 270 OFFCURVE",
"372 -20 OFFCURVE",
"802 -20 CURVE SMOOTH"
);
},
{
closed = 1;
nodes = (
"642 292 OFFCURVE",
"524 402 OFFCURVE",
"524 714 CURVE SMOOTH",
"524 1036 OFFCURVE",
"642 1154 OFFCURVE",
"802 1154 CURVE SMOOTH",
"962 1154 OFFCURVE",
"1078 1036 OFFCURVE",
"1078 714 CURVE SMOOTH",
"1078 402 OFFCURVE",
"962 292 OFFCURVE",
"802 292 CURVE SMOOTH"
);
}
);
width = 1600;
},
{
anchors = (
{
name = bottom;
position = "{722, 0}";
},
{
name = horn;
position = "{1098, 1212}";
},
{
name = ogonek;
position = "{858, 18}";
},
{
name = top;
position = "{722, 1446}";
}
);
background = {
anchors = (
{
name = bottom;
position = "{742, 0}";
},
{
name = ogonek;
position = "{882, 18}";
},
{
name = top;
position = "{742, 1484}";
}
);
paths = (
{
closed = 1;
nodes = (
"1114 -20 OFFCURVE",
"1340 244 OFFCURVE",
"1340 738 CURVE SMOOTH",
"1340 1236 OFFCURVE",
"1114 1504 OFFCURVE",
"740 1504 CURVE SMOOTH",
"364 1504 OFFCURVE",
"136 1234 OFFCURVE",
"136 734 CURVE SMOOTH",
"136 242 OFFCURVE",
"360 -20 OFFCURVE",
"738 -20 CURVE SMOOTH"
);
},
{
closed = 1;
nodes = (
"410 64 OFFCURVE",
"232 286 OFFCURVE",
"232 738 CURVE SMOOTH",
"232 1194 OFFCURVE",
"410 1420 OFFCURVE",
"740 1420 CURVE SMOOTH",
"1068 1420 OFFCURVE",
"1244 1196 OFFCURVE",
"1244 738 CURVE SMOOTH",
"1244 284 OFFCURVE",
"1072 64 OFFCURVE",
"742 64 CURVE SMOOTH"
);
}
);
};
guideLines = (
{
angle = 90;
position = "{-445, 400}";
},
{
angle = 90;
position = "{398, 593}";
}
);
layerId = "91AB5BCA-6A50-42DA-B2F7-8181BF189245";
paths = (
{
closed = 1;
nodes = (
"1084 -20 OFFCURVE",
"1304 238 OFFCURVE",
"1304 720 CURVE SMOOTH",
"1304 1206 OFFCURVE",
"1084 1466 OFFCURVE",
"720 1466 CURVE SMOOTH",
"352 1466 OFFCURVE",
"130 1204 OFFCURVE",
"130 716 CURVE SMOOTH",
"130 236 OFFCURVE",
"350 -20 OFFCURVE",
"718 -20 CURVE SMOOTH"
);
},
{
closed = 1;
nodes = (
"398 62 OFFCURVE",
"218 278 OFFCURVE",
"218 720 CURVE SMOOTH",
"218 1164 OFFCURVE",
"398 1384 OFFCURVE",
"720 1384 CURVE SMOOTH",
"1040 1384 OFFCURVE",
"1216 1166 OFFCURVE",
"1216 720 CURVE SMOOTH",
"1216 276 OFFCURVE",
"1044 62 OFFCURVE",
"722 62 CURVE SMOOTH"
);
}
);
width = 1434;
}
);
leftKerningGroup = O;
rightKerningGroup = O;
unicode = 004F;
},
{
glyphname = Oslash;
lastChange = "2019-04-16 18:49:16 +0000";
layers = (
{
anchors = (
{
name = top;
position = "{788, 1446}";
}
);
background = {
anchors = (
{
name = top;
position = "{788, 1446}";
}
);
paths = (
{
closed = 1;
nodes = (
"1430 1446 LINE SMOOTH",
"1414 1462 OFFCURVE",
"1390 1458 OFFCURVE",
"1370 1438 CURVE SMOOTH",
"1242 1314 LINE",
"1126 1412 OFFCURVE",
"972 1466 OFFCURVE",
"790 1466 CURVE SMOOTH",
"366 1466 OFFCURVE",
"88 1172 OFFCURVE",
"88 720 CURVE SMOOTH",
"88 552 OFFCURVE",
"126 408 OFFCURVE",
"194 292 CURVE",
"62 164 LINE SMOOTH",
"40 140 OFFCURVE",
"42 120 OFFCURVE",
"70 92 CURVE SMOOTH",
"146 14 LINE SMOOTH",
"178 -18 OFFCURVE",
"202 -16 OFFCURVE",
"230 14 CURVE SMOOTH",
"342 122 LINE",
"458 32 OFFCURVE",
"610 -20 OFFCURVE",
"790 -20 CURVE SMOOTH",
"1216 -20 OFFCURVE",
"1488 272 OFFCURVE",
"1488 720 CURVE SMOOTH",
"1488 884 OFFCURVE",
"1452 1026 OFFCURVE",
"1384 1140 CURVE",
"1532 1286 LINE",
"1552 1302 OFFCURVE",
"1550 1322 OFFCURVE",
"1534 1338 CURVE SMOOTH"
);
},
{
closed = 1;
nodes = (
"552 1036 OFFCURVE",
"620 1166 OFFCURVE",
"790 1166 CURVE SMOOTH",
"876 1166 OFFCURVE",
"936 1132 OFFCURVE",
"974 1052 CURVE",
"554 642 LINE",
"552 666 OFFCURVE",
"552 690 OFFCURVE",
"552 714 CURVE"
);
},
{
closed = 1;
nodes = (
"1024 402 OFFCURVE",
"960 284 OFFCURVE",
"790 284 CURVE SMOOTH",
"704 284 OFFCURVE",
"644 314 OFFCURVE",
"606 380 CURVE",
"1022 788 LINE",
"1024 762 OFFCURVE",
"1024 740 OFFCURVE",
"1024 714 CURVE SMOOTH"
);
}
);
};
layerId = "258ED206-D907-4350-8EBA-CBDDA1C16BF7";
paths = (
{
closed = 1;
nodes = (
"342 122 LINE",
"458 32 OFFCURVE",
"610 -20 OFFCURVE",
"790 -20 CURVE SMOOTH",
"1216 -20 OFFCURVE",
"1488 272 OFFCURVE",
"1488 720 CURVE SMOOTH",
"1488 884 OFFCURVE",
"1452 1026 OFFCURVE",
"1384 1140 CURVE",
"1558 1312 LINE",
"1406 1472 LINE",
"1242 1314 LINE",
"1126 1412 OFFCURVE",
"972 1466 OFFCURVE",
"790 1466 CURVE SMOOTH",
"366 1466 OFFCURVE",
"88 1172 OFFCURVE",
"88 720 CURVE SMOOTH",
"88 552 OFFCURVE",
"126 408 OFFCURVE",
"194 292 CURVE",
"30 134 LINE",
"186 -28 LINE"
);
},
{
closed = 1;
nodes = (
"704 284 OFFCURVE",
"644 314 OFFCURVE",
"606 380 CURVE",
"1024 790 LINE",
"1024 670 OFFCURVE",
"1018 576 OFFCURVE",
"1002 502 CURVE SMOOTH",
"972 348 OFFCURVE",
"904 284 OFFCURVE",
"790 284 CURVE SMOOTH"
);
},
{
closed = 1;
nodes = (
"552 740 OFFCURVE",
"556 824 OFFCURVE",
"568 894 CURVE SMOOTH",
"596 1084 OFFCURVE",
"666 1166 OFFCURVE",
"790 1166 CURVE SMOOTH",
"876 1166 OFFCURVE",
"936 1132 OFFCURVE",
"974 1052 CURVE",
"552 640 LINE"
);
}
);
width = 1598;
},
{
anchors = (
{
name = top;
position = "{726, 1446}";
}
);
background = {
anchors = (
{
name = top;
position = "{726, 1446}";
}
);
paths = (
{
closed = 1;
nodes = (
"1318 1460 LINE",
"1310 1468 OFFCURVE",
"1302 1464 OFFCURVE",
"1294 1454 CURVE",
"1148 1286 LINE",
"1046 1404 OFFCURVE",
"904 1466 OFFCURVE",
"726 1466 CURVE SMOOTH",
"360 1466 OFFCURVE",
"138 1204 OFFCURVE",
"138 716 CURVE SMOOTH",
"138 518 OFFCURVE",
"174 358 OFFCURVE",
"244 240 CURVE",
"80 50 LINE",
"72 40 OFFCURVE",
"74 36 OFFCURVE",
"88 22 CURVE SMOOTH",
"122 -10 LINE",
"138 -22 OFFCURVE",
"148 -22 OFFCURVE",
"158 -6 CURVE",
"302 158 LINE",
"400 40 OFFCURVE",
"544 -20 OFFCURVE",
"724 -20 CURVE SMOOTH",
"1090 -20 OFFCURVE",
"1312 238 OFFCURVE",
"1312 720 CURVE SMOOTH",
"1312 920 OFFCURVE",
"1274 1082 OFFCURVE",
"1204 1204 CURVE",
"1370 1396 LINE",
"1376 1404 OFFCURVE",
"1374 1412 OFFCURVE",
"1368 1418 CURVE"
);
},
{
closed = 1;
nodes = (
"236 1164 OFFCURVE",
"404 1382 OFFCURVE",
"726 1382 CURVE SMOOTH",
"886 1382 OFFCURVE",
"1006 1328 OFFCURVE",
"1088 1218 CURVE",
"308 314 LINE",
"260 418 OFFCURVE",
"236 552 OFFCURVE",
"236 720 CURVE SMOOTH"
);
},
{
closed = 1;
nodes = (
"1212 276 OFFCURVE",
"1050 64 OFFCURVE",
"728 64 CURVE SMOOTH",
"566 64 OFFCURVE",
"444 118 OFFCURVE",
"360 228 CURVE",
"1140 1132 LINE",
"1188 1026 OFFCURVE",
"1212 890 OFFCURVE",
"1212 720 CURVE SMOOTH"
);
}
);
};
layerId = "91AB5BCA-6A50-42DA-B2F7-8181BF189245";
paths = (
{
closed = 1;
nodes = (
"302 158 LINE",
"400 40 OFFCURVE",
"544 -20 OFFCURVE",
"724 -20 CURVE SMOOTH",
"1090 -20 OFFCURVE",
"1312 238 OFFCURVE",
"1312 720 CURVE SMOOTH",
"1312 920 OFFCURVE",
"1274 1082 OFFCURVE",
"1204 1204 CURVE",
"1380 1408 LINE",
"1308 1470 LINE",
"1148 1286 LINE",
"1046 1404 OFFCURVE",
"904 1466 OFFCURVE",
"726 1466 CURVE SMOOTH",
"360 1466 OFFCURVE",
"138 1204 OFFCURVE",
"138 716 CURVE SMOOTH",
"138 518 OFFCURVE",
"174 358 OFFCURVE",
"244 240 CURVE",
"70 38 LINE",
"140 -26 LINE"
);
},
{
closed = 1;
nodes = (
"566 64 OFFCURVE",
"444 118 OFFCURVE",
"360 228 CURVE",
"1140 1132 LINE",
"1188 1026 OFFCURVE",
"1212 890 OFFCURVE",
"1212 720 CURVE SMOOTH",
"1212 276 OFFCURVE",
"1050 64 OFFCURVE",
"728 64 CURVE SMOOTH"
);
},
{
closed = 1;
nodes = (
"260 418 OFFCURVE",
"236 552 OFFCURVE",
"236 720 CURVE SMOOTH",
"236 1164 OFFCURVE",
"404 1382 OFFCURVE",
"726 1382 CURVE SMOOTH",
"886 1382 OFFCURVE",
"1006 1328 OFFCURVE",
"1088 1218 CURVE",
"308 314 LINE"
);
}
);
width = 1450;
}
);
leftKerningGroup = Oslash;
rightKerningGroup = Oslash;
unicode = 00D8;
},
{
glyphname = OE;
lastChange = "2019-05-06 20:25:21 +0000";
layers = (
{
background = {
paths = (
{
closed = 1;
nodes = (
"1494 328 LINE",
"1494 584 LINE",
"1932 584 LINE",
"1932 906 LINE",
"1494 906 LINE",
"1494 1156 LINE",
"2192 1156 LINE",
"2194 1484 LINE",
"1230 1484 LINE",
"1106 1484 LINE",
"1036 1498 OFFCURVE",
"950 1504 OFFCURVE",
"848 1504 CURVE SMOOTH",
"366 1504 OFFCURVE",
"80 1202 OFFCURVE",
"80 738 CURVE SMOOTH",
"80 276 OFFCURVE",
"358 -20 OFFCURVE",
"824 -20 CURVE SMOOTH",
"936 -20 OFFCURVE",
"1030 -14 OFFCURVE",
"1106 0 CURVE",
"1206 0 LINE",
"1220 0 OFFCURVE",
"1234 0 OFFCURVE",
"1248 0 CURVE",
"2164 0 LINE SMOOTH",
"2198 0 OFFCURVE",
"2212 20 OFFCURVE",
"2212 44 CURVE SMOOTH",
"2212 290 LINE SMOOTH",
"2212 318 OFFCURVE",
"2196 328 OFFCURVE",
"2168 328 CURVE SMOOTH"
);
},
{
closed = 1;
nodes = (
"622 292 OFFCURVE",
"556 412 OFFCURVE",
"556 732 CURVE SMOOTH",
"556 1062 OFFCURVE",
"626 1196 OFFCURVE",
"800 1196 CURVE SMOOTH",
"970 1196 OFFCURVE",
"1040 1062 OFFCURVE",
"1040 732 CURVE SMOOTH",
"1040 412 OFFCURVE",
"974 292 OFFCURVE",
"800 292 CURVE SMOOTH"
);
}
);
};
layerId = "258ED206-D907-4350-8EBA-CBDDA1C16BF7";
paths = (
{
closed = 1;
nodes = (
"1478 320 LINE",
"1478 570 LINE",
"1906 570 LINE",
"1906 884 LINE",
"1478 884 LINE",
"1478 1128 LINE",
"2160 1128 LINE",
"2162 1446 LINE",
"1222 1446 LINE",
"1100 1446 LINE",
"1032 1460 OFFCURVE",
"948 1466 OFFCURVE",
"848 1466 CURVE SMOOTH",
"380 1466 OFFCURVE",
"100 1172 OFFCURVE",
"100 720 CURVE SMOOTH",
"100 270 OFFCURVE",
"372 -20 OFFCURVE",
"826 -20 CURVE SMOOTH",
"934 -20 OFFCURVE",
"1026 -14 OFFCURVE",
"1100 0 CURVE",
"1198 0 LINE",
"2178 0 LINE",
"2178 320 LINE"
);
},
{
closed = 1;
nodes = (
"628 284 OFFCURVE",
"564 402 OFFCURVE",
"564 714 CURVE SMOOTH",
"564 1036 OFFCURVE",
"632 1166 OFFCURVE",
"802 1166 CURVE SMOOTH",
"968 1166 OFFCURVE",
"1036 1036 OFFCURVE",
"1036 714 CURVE SMOOTH",
"1036 402 OFFCURVE",
"972 284 OFFCURVE",
"802 284 CURVE SMOOTH"
);
}
);
width = 2263;
},
{
background = {
paths = (
{
closed = 1;
nodes = (
"1358 80 LINE SMOOTH",
"1344 80 OFFCURVE",
"1340 82 OFFCURVE",
"1340 98 CURVE SMOOTH",
"1340 692 LINE SMOOTH",
"1340 708 OFFCURVE",
"1344 710 OFFCURVE",
"1358 710 CURVE SMOOTH",
"1912 710 LINE SMOOTH",
"1924 710 OFFCURVE",
"1928 712 OFFCURVE",
"1928 724 CURVE SMOOTH",
"1928 776 LINE SMOOTH",
"1928 786 OFFCURVE",
"1924 790 OFFCURVE",
"1914 790 CURVE SMOOTH",
"1358 790 LINE SMOOTH",
"1344 790 OFFCURVE",
"1340 792 OFFCURVE",
"1340 804 CURVE SMOOTH",
"1340 1386 LINE SMOOTH",
"1340 1402 OFFCURVE",
"1344 1404 OFFCURVE",
"1358 1404 CURVE SMOOTH",
"2074 1404 LINE SMOOTH",
"2086 1404 OFFCURVE",
"2090 1406 OFFCURVE",
"2090 1418 CURVE SMOOTH",
"2090 1470 LINE SMOOTH",
"2090 1480 OFFCURVE",
"2086 1484 OFFCURVE",
"2076 1484 CURVE SMOOTH",
"1266 1484 LINE SMOOTH",
"1252 1484 OFFCURVE",
"1248 1480 OFFCURVE",
"1248 1464 CURVE SMOOTH",
"1248 1200 LINE",
"1148 1400 OFFCURVE",
"974 1504 OFFCURVE",
"740 1504 CURVE SMOOTH",
"364 1504 OFFCURVE",
"136 1234 OFFCURVE",
"136 734 CURVE SMOOTH",
"136 242 OFFCURVE",
"360 -20 OFFCURVE",
"738 -20 CURVE SMOOTH",
"972 -20 OFFCURVE",
"1148 82 OFFCURVE",
"1248 280 CURVE",
"1248 20 LINE SMOOTH",
"1248 4 OFFCURVE",
"1252 0 OFFCURVE",
"1266 0 CURVE SMOOTH",
"2106 0 LINE SMOOTH",
"2116 0 OFFCURVE",
"2120 4 OFFCURVE",
"2120 14 CURVE SMOOTH",
"2120 66 LINE SMOOTH",
"2120 78 OFFCURVE",
"2116 80 OFFCURVE",
"2104 80 CURVE SMOOTH"
);
},
{
closed = 1;
nodes = (
"410 64 OFFCURVE",
"232 286 OFFCURVE",
"232 738 CURVE SMOOTH",
"232 1194 OFFCURVE",
"410 1420 OFFCURVE",
"740 1420 CURVE SMOOTH",
"1068 1420 OFFCURVE",
"1238 1196 OFFCURVE",
"1238 738 CURVE SMOOTH",
"1238 284 OFFCURVE",
"1072 64 OFFCURVE",
"742 64 CURVE SMOOTH"
);
}
);
};
layerId = "91AB5BCA-6A50-42DA-B2F7-8181BF189245";
paths = (
{
closed = 1;
nodes = (
"1304 78 LINE",
"1304 692 LINE",
"1878 692 LINE",
"1878 770 LINE",
"1304 770 LINE",
"1304 1368 LINE",
"2036 1368 LINE",
"2036 1446 LINE",
"1214 1446 LINE",
"1214 1170 LINE",
"1118 1366 OFFCURVE",
"948 1466 OFFCURVE",
"720 1466 CURVE SMOOTH",
"354 1466 OFFCURVE",
"130 1204 OFFCURVE",
"130 716 CURVE SMOOTH",
"130 236 OFFCURVE",
"350 -20 OFFCURVE",
"718 -20 CURVE SMOOTH",
"946 -20 OFFCURVE",
"1118 80 OFFCURVE",
"1214 274 CURVE",
"1214 0 LINE",
"2066 0 LINE",
"2066 78 LINE"
);
},
{
closed = 1;
nodes = (
"398 62 OFFCURVE",
"224 278 OFFCURVE",
"224 720 CURVE SMOOTH",
"224 1164 OFFCURVE",
"398 1384 OFFCURVE",
"720 1384 CURVE SMOOTH",
"1040 1384 OFFCURVE",
"1206 1166 OFFCURVE",
"1206 720 CURVE SMOOTH",
"1206 276 OFFCURVE",
"1044 62 OFFCURVE",
"722 62 CURVE SMOOTH"
);
}
);
width = 2206;
}
);
leftKerningGroup = O;
leftMetricsKey = O;
rightKerningGroup = E;
rightMetricsKey = E;
unicode = 0152;
},
{
glyphname = P;
lastChange = "2019-05-07 05:18:45 +0000";
layers = (
{
background = {
paths = (
{
closed = 1;
nodes = (
"1380 1324 OFFCURVE",
"1106 1484 OFFCURVE",
"778 1484 CURVE SMOOTH",
"116 1484 LINE SMOOTH",
"92 1484 OFFCURVE",
"78 1468 OFFCURVE",
"78 1438 CURVE SMOOTH",
"78 50 LINE SMOOTH",
"78 16 OFFCURVE",
"90 0 OFFCURVE",
"130 0 CURVE SMOOTH",
"466 0 LINE SMOOTH",
"512 0 OFFCURVE",
"532 16 OFFCURVE",
"532 58 CURVE SMOOTH",
"532 510 LINE SMOOTH",
"532 524 OFFCURVE",
"538 532 OFFCURVE",
"556 532 CURVE SMOOTH",
"830 532 LINE SMOOTH",
"1156 532 OFFCURVE",
"1380 710 OFFCURVE",
"1380 1002 CURVE SMOOTH"
);
},
{
closed = 1;
nodes = (
"916 922 OFFCURVE",
"858 852 OFFCURVE",
"762 852 CURVE SMOOTH",
"566 852 LINE SMOOTH",
"540 852 OFFCURVE",
"532 866 OFFCURVE",
"532 896 CURVE SMOOTH",
"532 1122 LINE SMOOTH",
"532 1152 OFFCURVE",
"544 1164 OFFCURVE",
"578 1164 CURVE SMOOTH",
"750 1164 LINE SMOOTH",
"842 1164 OFFCURVE",
"916 1104 OFFCURVE",
"916 1008 CURVE SMOOTH"
);
}
);
};
layerId = "258ED206-D907-4350-8EBA-CBDDA1C16BF7";
rightMetricsKey = "=O-30";
paths = (
{
closed = 1;
nodes = (
"520 0 LINE",
"520 498 LINE",
"752 498 LINE SMOOTH",
"1070 498 OFFCURVE",
"1270 670 OFFCURVE",
"1270 956 CURVE SMOOTH",
"1270 1270 OFFCURVE",
"1022 1446 OFFCURVE",
"702 1446 CURVE SMOOTH",
"130 1446 LINE",
"130 0 LINE"
);
},
{
closed = 1;
nodes = (
"516 1158 LINE",
"740 1158 LINE SMOOTH",
"826 1158 OFFCURVE",
"912 1076 OFFCURVE",
"912 976 CURVE SMOOTH",
"912 882 OFFCURVE",
"838 788 OFFCURVE",
"740 788 CURVE SMOOTH",
"516 788 LINE"
);
}
);
width = 1340;
},
{
background = {
paths = (
{
closed = 1;
nodes = (
"1222 1368 OFFCURVE",
"1000 1484 OFFCURVE",
"690 1484 CURVE SMOOTH",
"246 1484 LINE SMOOTH",
"232 1484 OFFCURVE",
"228 1480 OFFCURVE",
"228 1464 CURVE SMOOTH",
"228 16 LINE SMOOTH",
"228 6 OFFCURVE",
"234 0 OFFCURVE",
"244 0 CURVE SMOOTH",
"304 0 LINE SMOOTH",
"314 0 OFFCURVE",
"320 6 OFFCURVE",
"320 18 CURVE SMOOTH",
"320 636 LINE SMOOTH",
"320 648 OFFCURVE",
"324 654 OFFCURVE",
"336 654 CURVE SMOOTH",
"702 654 LINE SMOOTH",
"1004 654 OFFCURVE",
"1222 774 OFFCURVE",
"1222 1070 CURVE SMOOTH"
);
},
{
closed = 1;
nodes = (
"1126 830 OFFCURVE",
"958 734 OFFCURVE",
"702 734 CURVE SMOOTH",
"334 734 LINE SMOOTH",
"324 734 OFFCURVE",
"320 740 OFFCURVE",
"320 754 CURVE SMOOTH",
"320 1388 LINE SMOOTH",
"320 1400 OFFCURVE",
"326 1404 OFFCURVE",
"338 1404 CURVE SMOOTH",
"688 1404 LINE SMOOTH",
"958 1404 OFFCURVE",
"1126 1324 OFFCURVE",
"1126 1076 CURVE SMOOTH"
);
}
);
};
layerId = "91AB5BCA-6A50-42DA-B2F7-8181BF189245";
paths = (
{
closed = 1;
nodes = (
"306 0 LINE",
"306 554 LINE",
"678 554 LINE SMOOTH",
"974 554 OFFCURVE",
"1186 716 OFFCURVE",
"1186 1006 CURVE SMOOTH",
"1186 1296 OFFCURVE",
"970 1446 OFFCURVE",
"666 1446 CURVE SMOOTH",
"220 1446 LINE",
"220 0 LINE"
);
},
{
closed = 1;
nodes = (
"306 1362 LINE",
"664 1362 LINE SMOOTH",
"928 1362 OFFCURVE",
"1098 1252 OFFCURVE",
"1098 1012 CURVE SMOOTH",
"1098 772 OFFCURVE",
"928 640 OFFCURVE",
"678 640 CURVE SMOOTH",
"306 640 LINE"
);
}
);
width = 1296;
}
);
leftKerningGroup = N;
leftMetricsKey = H;
rightKerningGroup = P;
rightMetricsKey = "=O-20";
unicode = 0050;
},
{
glyphname = Thorn;
lastChange = "2019-05-02 20:50:13 +0000";
layers = (
{
background = {
paths = (
{
closed = 1;
nodes = (
"1440 1060 OFFCURVE",
"1166 1216 OFFCURVE",
"838 1216 CURVE SMOOTH",
"586 1216 LINE SMOOTH",
"572 1216 OFFCURVE",
"566 1224 OFFCURVE",
"566 1240 CURVE SMOOTH",
"566 1442 LINE SMOOTH",
"566 1468 OFFCURVE",
"554 1484 OFFCURVE",
"530 1484 CURVE SMOOTH",
"150 1484 LINE SMOOTH",
"128 1484 OFFCURVE",
"112 1468 OFFCURVE",
"112 1438 CURVE SMOOTH",
"112 50 LINE SMOOTH",
"112 16 OFFCURVE",
"124 0 OFFCURVE",
"164 0 CURVE SMOOTH",
"500 0 LINE SMOOTH",
"546 0 OFFCURVE",
"566 16 OFFCURVE",
"566 58 CURVE SMOOTH",
"566 262 LINE SMOOTH",
"566 276 OFFCURVE",
"572 284 OFFCURVE",
"590 284 CURVE SMOOTH",
"890 284 LINE SMOOTH",
"1216 284 OFFCURVE",
"1440 458 OFFCURVE",
"1440 744 CURVE SMOOTH"
);
},
{
closed = 1;
nodes = (
"976 670 OFFCURVE",
"918 604 OFFCURVE",
"822 604 CURVE SMOOTH",
"600 604 LINE SMOOTH",
"574 604 OFFCURVE",
"566 618 OFFCURVE",
"566 648 CURVE SMOOTH",
"566 854 LINE SMOOTH",
"566 884 OFFCURVE",
"578 896 OFFCURVE",
"612 896 CURVE SMOOTH",
"810 896 LINE SMOOTH",
"902 896 OFFCURVE",
"976 840 OFFCURVE",
"976 750 CURVE SMOOTH"
);
}
);
};
layerId = "258ED206-D907-4350-8EBA-CBDDA1C16BF7";
paths = (
{
closed = 1;
nodes = (
"1426 1034 OFFCURVE",
"1158 1186 OFFCURVE",
"838 1186 CURVE SMOOTH",
"574 1186 LINE",
"574 1446 LINE",
"130 1446 LINE",
"130 0 LINE",
"574 0 LINE",
"574 276 LINE",
"890 276 LINE SMOOTH",
"1208 276 OFFCURVE",
"1426 446 OFFCURVE",
"1426 726 CURVE SMOOTH"
);
},
{
closed = 1;
nodes = (
"974 654 OFFCURVE",
"916 588 OFFCURVE",
"822 588 CURVE SMOOTH",
"574 588 LINE",
"574 874 LINE",
"812 874 LINE SMOOTH",
"900 874 OFFCURVE",
"974 820 OFFCURVE",
"974 732 CURVE SMOOTH"
);
}
);
width = 1496;
},
{
background = {
paths = (
{
closed = 1;
nodes = (
"1222 1044 OFFCURVE",
"1002 1158 OFFCURVE",
"690 1158 CURVE SMOOTH",
"332 1158 LINE SMOOTH",
"324 1158 OFFCURVE",
"320 1162 OFFCURVE",
"320 1168 CURVE SMOOTH",
"320 1464 LINE SMOOTH",
"320 1480 OFFCURVE",
"316 1484 OFFCURVE",
"302 1484 CURVE SMOOTH",
"246 1484 LINE SMOOTH",
"232 1484 OFFCURVE",
"228 1480 OFFCURVE",
"228 1464 CURVE SMOOTH",
"228 16 LINE SMOOTH",
"228 6 OFFCURVE",
"234 0 OFFCURVE",
"244 0 CURVE SMOOTH",
"304 0 LINE SMOOTH",
"314 0 OFFCURVE",
"320 6 OFFCURVE",
"320 18 CURVE SMOOTH",
"320 346 LINE SMOOTH",
"320 358 OFFCURVE",
"324 364 OFFCURVE",
"336 364 CURVE SMOOTH",
"702 364 LINE SMOOTH",
"1002 364 OFFCURVE",
"1222 478 OFFCURVE",
"1222 780 CURVE SMOOTH"
);
},
{
closed = 1;
nodes = (
"1126 536 OFFCURVE",
"958 444 OFFCURVE",
"702 444 CURVE SMOOTH",
"334 444 LINE SMOOTH",
"324 444 OFFCURVE",
"320 450 OFFCURVE",
"320 464 CURVE SMOOTH",
"320 1062 LINE SMOOTH",
"320 1074 OFFCURVE",
"326 1078 OFFCURVE",
"338 1078 CURVE SMOOTH",
"688 1078 LINE SMOOTH",
"958 1078 OFFCURVE",
"1126 1002 OFFCURVE",
"1126 780 CURVE SMOOTH"
);
}
);
};
layerId = "91AB5BCA-6A50-42DA-B2F7-8181BF189245";
paths = (
{
closed = 1;
nodes = (
"1190 1018 OFFCURVE",
"976 1130 OFFCURVE",
"670 1130 CURVE SMOOTH",
"310 1130 LINE",
"310 1446 LINE",
"220 1446 LINE",
"220 0 LINE",
"310 0 LINE",
"310 354 LINE",
"682 354 LINE SMOOTH",
"976 354 OFFCURVE",
"1190 466 OFFCURVE",
"1190 760 CURVE SMOOTH"
);
},
{
closed = 1;
nodes = (
"1096 522 OFFCURVE",
"932 432 OFFCURVE",
"682 432 CURVE SMOOTH",
"310 432 LINE",
"310 1052 LINE",
"668 1052 LINE SMOOTH",
"932 1052 OFFCURVE",
"1096 976 OFFCURVE",
"1096 760 CURVE SMOOTH"
);
}
);
width = 1300;
}
);
leftKerningGroup = N;
leftMetricsKey = P;
rightKerningGroup = P;
rightMetricsKey = P;
unicode = 00DE;
},
{
glyphname = Q;
lastChange = "2019-04-29 18:43:28 +0000";
layers = (
{
background = {
paths = (
{
closed = 1;
nodes = (
"80 276 OFFCURVE",
"358 -20 OFFCURVE",
"800 -20 CURVE SMOOTH",
"852 -20 OFFCURVE",
"894 -18 OFFCURVE",
"942 -12 CURVE SMOOTH",
"956 -10 OFFCURVE",
"966 -12 OFFCURVE",
"972 -20 CURVE SMOOTH",
"1086 -168 OFFCURVE",
"1230 -256 OFFCURVE",
"1430 -256 CURVE SMOOTH",
"1494 -256 OFFCURVE",
"1518 -244 OFFCURVE",
"1518 -194 CURVE SMOOTH",
"1518 26 LINE SMOOTH",
"1518 40 OFFCURVE",
"1512 56 OFFCURVE",
"1484 60 CURVE SMOOTH",
"1398 72 OFFCURVE",
"1304 122 OFFCURVE",
"1304 156 CURVE SMOOTH",
"1304 164 OFFCURVE",
"1304 168 OFFCURVE",
"1308 172 CURVE",
"1442 304 OFFCURVE",
"1518 498 OFFCURVE",
"1518 738 CURVE SMOOTH",
"1518 1202 OFFCURVE",
"1232 1504 OFFCURVE",
"800 1504 CURVE SMOOTH",
"366 1504 OFFCURVE",
"80 1202 OFFCURVE",
"80 738 CURVE SMOOTH"
);
},
{
closed = 1;
nodes = (
"556 1064 OFFCURVE",
"626 1196 OFFCURVE",
"800 1196 CURVE SMOOTH",
"972 1196 OFFCURVE",
"1042 1064 OFFCURVE",
"1042 734 CURVE SMOOTH",
"1042 412 OFFCURVE",
"976 292 OFFCURVE",
"800 292 CURVE SMOOTH",
"622 292 OFFCURVE",
"556 412 OFFCURVE",
"556 734 CURVE SMOOTH"
);
}
);
};
layerId = "258ED206-D907-4350-8EBA-CBDDA1C16BF7";
paths = (
{
closed = 1;
nodes = (
"100 270 OFFCURVE",
"372 -20 OFFCURVE",
"802 -20 CURVE SMOOTH",
"852 -20 OFFCURVE",
"892 -18 OFFCURVE",
"962 -10 CURVE",
"1134 -226 OFFCURVE",
"1270 -250 OFFCURVE",
"1502 -250 CURVE",
"1502 54 LINE",
"1404 54 OFFCURVE",
"1314 104 OFFCURVE",
"1298 160 CURVE",
"1428 300 OFFCURVE",
"1502 486 OFFCURVE",
"1502 720 CURVE SMOOTH",
"1502 1172 OFFCURVE",
"1224 1466 OFFCURVE",
"802 1466 CURVE SMOOTH",
"380 1466 OFFCURVE",
"100 1172 OFFCURVE",
"100 720 CURVE SMOOTH"
);
},
{
closed = 1;
nodes = (
"526 1038 OFFCURVE",
"634 1154 OFFCURVE",
"802 1154 CURVE SMOOTH",
"970 1154 OFFCURVE",
"1078 1038 OFFCURVE",
"1078 716 CURVE SMOOTH",
"1078 402 OFFCURVE",
"974 292 OFFCURVE",
"802 292 CURVE SMOOTH",
"630 292 OFFCURVE",
"526 402 OFFCURVE",
"526 716 CURVE SMOOTH"
);
}
);
width = 1602;
},
{
background = {
paths = (
{
closed = 1;
nodes = (
"136 232 OFFCURVE",
"370 -20 OFFCURVE",
"738 -20 CURVE SMOOTH",
"790 -20 OFFCURVE",
"850 -14 OFFCURVE",
"900 -2 CURVE SMOOTH",
"914 2 OFFCURVE",
"924 -2 OFFCURVE",
"930 -10 CURVE SMOOTH",
"1060 -192 OFFCURVE",
"1192 -244 OFFCURVE",
"1280 -244 CURVE SMOOTH",
"1308 -244 OFFCURVE",
"1320 -240 OFFCURVE",
"1320 -218 CURVE SMOOTH",
"1320 -174 LINE SMOOTH",
"1320 -168 OFFCURVE",
"1318 -162 OFFCURVE",
"1306 -160 CURVE SMOOTH",
"1156 -140 OFFCURVE",
"1022 -22 OFFCURVE",
"1022 32 CURVE SMOOTH",
"1022 40 OFFCURVE",
"1024 44 OFFCURVE",
"1034 50 CURVE SMOOTH",
"1228 166 OFFCURVE",
"1340 378 OFFCURVE",
"1340 738 CURVE SMOOTH",
"1340 1240 OFFCURVE",
"1114 1504 OFFCURVE",
"738 1504 CURVE SMOOTH",
"362 1504 OFFCURVE",
"136 1240 OFFCURVE",
"136 738 CURVE SMOOTH"
);
},
{
closed = 1;
nodes = (
"232 1184 OFFCURVE",
"404 1420 OFFCURVE",
"738 1420 CURVE SMOOTH",
"1072 1420 OFFCURVE",
"1244 1184 OFFCURVE",
"1244 738 CURVE SMOOTH",
"1244 282 OFFCURVE",
"1066 64 OFFCURVE",
"738 64 CURVE SMOOTH",
"410 64 OFFCURVE",
"232 282 OFFCURVE",
"232 734 CURVE SMOOTH"
);
}
);
};
layerId = "91AB5BCA-6A50-42DA-B2F7-8181BF189245";
paths = (
{
closed = 1;
nodes = (
"130 226 OFFCURVE",
"360 -20 OFFCURVE",
"718 -20 CURVE SMOOTH",
"774 -20 OFFCURVE",
"830 -12 OFFCURVE",
"894 2 CURVE",
"996 -196 OFFCURVE",
"1190 -238 OFFCURVE",
"1286 -238 CURVE",
"1286 -158 LINE",
"1158 -152 OFFCURVE",
"1046 -100 OFFCURVE",
"980 36 CURVE",
"1214 158 OFFCURVE",
"1304 388 OFFCURVE",
"1304 720 CURVE SMOOTH",
"1304 1210 OFFCURVE",
"1084 1466 OFFCURVE",
"718 1466 CURVE SMOOTH",
"352 1466 OFFCURVE",
"130 1210 OFFCURVE",
"130 720 CURVE SMOOTH"
);
},
{
closed = 1;
nodes = (
"218 1154 OFFCURVE",
"392 1384 OFFCURVE",
"718 1384 CURVE SMOOTH",
"1044 1384 OFFCURVE",
"1218 1154 OFFCURVE",
"1218 720 CURVE SMOOTH",
"1218 274 OFFCURVE",
"1038 62 OFFCURVE",
"718 62 CURVE SMOOTH",
"398 62 OFFCURVE",
"218 274 OFFCURVE",
"218 716 CURVE SMOOTH"
);
}
);
width = 1434;
}
);
leftKerningGroup = O;
leftMetricsKey = O;
rightKerningGroup = O;
rightMetricsKey = O;
unicode = 0051;
},
{
glyphname = R;
lastChange = "2019-04-30 22:04:04 +0000";
layers = (
{
anchors = (
{
name = bottom;
position = "{714, 0}";
},
{
name = top;
position = "{694, 1446}";
}
);
background = {
anchors = (
{
name = bottom;
position = "{710, 0}";
},
{
name = top;
position = "{690, 1484}";
}
);
paths = (
{
closed = 1;
nodes = (
"1124 624 LINE SMOOTH",
"1118 640 OFFCURVE",
"1118 656 OFFCURVE",
"1132 662 CURVE SMOOTH",
"1284 720 OFFCURVE",
"1394 872 OFFCURVE",
"1394 1060 CURVE SMOOTH",
"1394 1328 OFFCURVE",
"1170 1484 OFFCURVE",
"784 1484 CURVE SMOOTH",
"116 1484 LINE SMOOTH",
"92 1484 OFFCURVE",
"78 1468 OFFCURVE",
"78 1438 CURVE SMOOTH",
"78 50 LINE SMOOTH",
"78 16 OFFCURVE",
"90 0 OFFCURVE",
"130 0 CURVE SMOOTH",
"466 0 LINE SMOOTH",
"512 0 OFFCURVE",
"532 16 OFFCURVE",
"532 58 CURVE SMOOTH",
"532 568 LINE SMOOTH",
"532 574 OFFCURVE",
"538 590 OFFCURVE",
"556 590 CURVE SMOOTH",
"648 590 LINE SMOOTH",
"686 590 OFFCURVE",
"702 580 OFFCURVE",
"710 558 CURVE SMOOTH",
"898 42 LINE SMOOTH",
"906 14 OFFCURVE",
"924 0 OFFCURVE",
"952 0 CURVE SMOOTH",
"1340 0 LINE SMOOTH",
"1372 0 OFFCURVE",
"1390 30 OFFCURVE",
"1376 64 CURVE SMOOTH"
);
},
{
closed = 1;
nodes = (
"566 888 LINE SMOOTH",
"540 888 OFFCURVE",
"532 900 OFFCURVE",
"532 930 CURVE SMOOTH",
"532 1148 LINE SMOOTH",
"532 1178 OFFCURVE",
"544 1188 OFFCURVE",
"578 1188 CURVE SMOOTH",
"754 1188 LINE SMOOTH",
"844 1188 OFFCURVE",
"924 1134 OFFCURVE",
"924 1032 CURVE SMOOTH",
"924 946 OFFCURVE",
"868 888 OFFCURVE",
"766 888 CURVE SMOOTH"
);
}
);
};
layerId = "258ED206-D907-4350-8EBA-CBDDA1C16BF7";
paths = (
{
closed = 1;
nodes = (
"1078 560 LINE",
"1212 642 OFFCURVE",
"1308 758 OFFCURVE",
"1308 980 CURVE SMOOTH",
"1308 1242 OFFCURVE",
"1162 1446 OFFCURVE",
"786 1446 CURVE SMOOTH",
"130 1446 LINE",
"130 0 LINE",
"520 0 LINE",
"520 498 LINE",
"724 498 LINE",
"934 0 LINE",
"1332 0 LINE"
);
},
{
closed = 1;
nodes = (
"520 788 LINE",
"520 1158 LINE",
"742 1158 LINE SMOOTH",
"830 1158 OFFCURVE",
"916 1076 OFFCURVE",
"916 976 CURVE SMOOTH",
"916 882 OFFCURVE",
"842 788 OFFCURVE",
"742 788 CURVE SMOOTH"
);
}
);
width = 1392;
},
{
anchors = (
{
name = bottom;
position = "{652, 0}";
},
{
name = top;
position = "{638, 1446}";
}
);
background = {
anchors = (
{
name = bottom;
position = "{670, 0}";
},
{
name = top;
position = "{656, 1484}";
}
);
paths = (
{
closed = 1;
nodes = (
"894 718 LINE",
"892 724 OFFCURVE",
"894 730 OFFCURVE",
"902 732 CURVE SMOOTH",
"1040 768 OFFCURVE",
"1206 870 OFFCURVE",
"1206 1116 CURVE SMOOTH",
"1206 1360 OFFCURVE",
"1038 1484 OFFCURVE",
"750 1484 CURVE SMOOTH",
"234 1484 LINE SMOOTH",
"220 1484 OFFCURVE",
"216 1480 OFFCURVE",
"216 1464 CURVE SMOOTH",
"216 18 LINE SMOOTH",
"216 6 OFFCURVE",
"220 0 OFFCURVE",
"236 0 CURVE SMOOTH",
"288 0 LINE SMOOTH",
"304 0 OFFCURVE",
"308 6 OFFCURVE",
"308 22 CURVE SMOOTH",
"308 688 LINE SMOOTH",
"308 702 OFFCURVE",
"314 710 OFFCURVE",
"332 710 CURVE SMOOTH",
"764 710 LINE SMOOTH",
"790 710 OFFCURVE",
"800 704 OFFCURVE",
"806 690 CURVE SMOOTH",
"1090 18 LINE SMOOTH",
"1096 6 OFFCURVE",
"1100 0 OFFCURVE",
"1114 0 CURVE SMOOTH",
"1170 0 LINE SMOOTH",
"1184 0 OFFCURVE",
"1192 14 OFFCURVE",
"1186 28 CURVE SMOOTH"
);
},
{
closed = 1;
nodes = (
"322 790 LINE SMOOTH",
"312 790 OFFCURVE",
"308 796 OFFCURVE",
"308 808 CURVE SMOOTH",
"308 1388 LINE SMOOTH",
"308 1400 OFFCURVE",
"314 1404 OFFCURVE",
"330 1404 CURVE SMOOTH",
"748 1404 LINE SMOOTH",
"990 1404 OFFCURVE",
"1110 1306 OFFCURVE",
"1110 1102 CURVE SMOOTH",
"1110 878 OFFCURVE",
"966 790 OFFCURVE",
"680 790 CURVE SMOOTH"
);
}
);
};
layerId = "91AB5BCA-6A50-42DA-B2F7-8181BF189245";
paths = (
{
closed = 1;
nodes = (
"866 706 LINE",
"1006 742 OFFCURVE",
"1174 846 OFFCURVE",
"1174 1088 CURVE SMOOTH",
"1174 1326 OFFCURVE",
"1010 1446 OFFCURVE",
"730 1446 CURVE SMOOTH",
"220 1446 LINE",
"220 0 LINE",
"298 0 LINE",
"298 688 LINE",
"784 688 LINE",
"1076 0 LINE",
"1166 0 LINE"
);
},
{
closed = 1;
nodes = (
"298 770 LINE",
"298 1366 LINE",
"728 1366 LINE SMOOTH",
"964 1366 OFFCURVE",
"1090 1280 OFFCURVE",
"1090 1074 CURVE SMOOTH",
"1090 856 OFFCURVE",
"940 770 OFFCURVE",
"662 770 CURVE SMOOTH"
);
}
);
width = 1284;
}
);
leftKerningGroup = N;
leftMetricsKey = H;
rightKerningGroup = R;
rightMetricsKey = "=X+30";
unicode = 0052;
},
{
glyphname = S;
lastChange = "2019-05-07 16:59:54 +0000";
layers = (
{
anchors = (
{
name = bottom;
position = "{748, 0}";
},
{
name = top;
position = "{748, 1446}";
}
);
background = {
anchors = (
{
name = bottom;
position = "{744, 0}";
},
{
name = top;
position = "{744, 1484}";
}
);
paths = (
{
closed = 1;
nodes = (
"1050 1058 OFFCURVE",
"1062 1056 OFFCURVE",
"1082 1070 CURVE SMOOTH",
"1300 1228 LINE SMOOTH",
"1326 1248 OFFCURVE",
"1312 1270 OFFCURVE",
"1300 1288 CURVE SMOOTH",
"1208 1418 OFFCURVE",
"982 1504 OFFCURVE",
"744 1504 CURVE SMOOTH",
"366 1504 OFFCURVE",
"128 1290 OFFCURVE",
"128 1030 CURVE SMOOTH",
"128 820 OFFCURVE",
"280 646 OFFCURVE",
"520 586 CURVE SMOOTH",
"824 512 LINE SMOOTH",
"910 492 OFFCURVE",
"950 452 OFFCURVE",
"950 404 CURVE SMOOTH",
"950 330 OFFCURVE",
"854 288 OFFCURVE",
"708 288 CURVE SMOOTH",
"550 288 OFFCURVE",
"472 334 OFFCURVE",
"384 448 CURVE SMOOTH",
"368 468 OFFCURVE",
"344 476 OFFCURVE",
"308 452 CURVE SMOOTH",
"102 310 LINE SMOOTH",
"74 288 OFFCURVE",
"74 272 OFFCURVE",
"90 244 CURVE SMOOTH",
"184 86 OFFCURVE",
"450 -20 OFFCURVE",
"742 -20 CURVE SMOOTH",
"1136 -20 OFFCURVE",
"1382 172 OFFCURVE",
"1382 468 CURVE SMOOTH",
"1382 674 OFFCURVE",
"1266 842 OFFCURVE",
"1016 904 CURVE SMOOTH",
"684 990 LINE SMOOTH",
"584 1014 OFFCURVE",
"556 1056 OFFCURVE",
"556 1092 CURVE SMOOTH",
"556 1142 OFFCURVE",
"610 1194 OFFCURVE",
"760 1194 CURVE SMOOTH",
"916 1194 OFFCURVE",
"974 1138 OFFCURVE",
"1022 1086 CURVE SMOOTH"
);
}
);
};
guideLines = (
{
angle = 214.3236;
position = "{685, 302}";
}
);
layerId = "258ED206-D907-4350-8EBA-CBDDA1C16BF7";
paths = (
{
closed = 1;
nodes = (
"1116 -20 OFFCURVE",
"1388 164 OFFCURVE",
"1388 410 CURVE SMOOTH",
"1388 554 OFFCURVE",
"1362 814 OFFCURVE",
"942 886 CURVE SMOOTH",
"716 924 LINE SMOOTH",
"590 946 OFFCURVE",
"558 984 OFFCURVE",
"558 1050 CURVE SMOOTH",
"558 1102 OFFCURVE",
"604 1164 OFFCURVE",
"756 1164 CURVE SMOOTH",
"892 1164 OFFCURVE",
"972 1120 OFFCURVE",
"984 1008 CURVE",
"1378 1008 LINE",
"1352 1246 OFFCURVE",
"1102 1464 OFFCURVE",
"748 1464 CURVE SMOOTH",
"414 1464 OFFCURVE",
"138 1294 OFFCURVE",
"142 1002 CURVE SMOOTH",
"146 756 OFFCURVE",
"296 612 OFFCURVE",
"522 576 CURVE SMOOTH",
"748 538 LINE SMOOTH",
"870 518 OFFCURVE",
"990 498 OFFCURVE",
"990 410 CURVE SMOOTH",
"990 308 OFFCURVE",
"874 278 OFFCURVE",
"752 278 CURVE SMOOTH",
"616 278 OFFCURVE",
"526 338 OFFCURVE",
"504 440 CURVE",
"100 440 LINE",
"126 118 OFFCURVE",
"450 -20 OFFCURVE",
"754 -20 CURVE SMOOTH"
);
}
);
width = 1488;
},
{
anchors = (
{
name = bottom;
position = "{634, 0}";
},
{
name = top;
position = "{646, 1446}";
}
);
background = {
anchors = (
{
name = bottom;
position = "{672, 0}";
},
{
name = top;
position = "{664, 1484}";
}
);
paths = (
{
closed = 1;
nodes = (
"1038 1240 OFFCURVE",
"1042 1236 OFFCURVE",
"1052 1244 CURVE SMOOTH",
"1096 1284 LINE SMOOTH",
"1108 1294 OFFCURVE",
"1104 1304 OFFCURVE",
"1096 1312 CURVE SMOOTH",
"982 1432 OFFCURVE",
"848 1504 OFFCURVE",
"662 1504 CURVE SMOOTH",
"388 1504 OFFCURVE",
"198 1362 OFFCURVE",
"198 1112 CURVE SMOOTH",
"198 984 OFFCURVE",
"258 842 OFFCURVE",
"474 760 CURVE SMOOTH",
"776 644 LINE SMOOTH",
"994 560 OFFCURVE",
"1040 478 OFFCURVE",
"1040 360 CURVE SMOOTH",
"1040 146 OFFCURVE",
"882 64 OFFCURVE",
"644 64 CURVE SMOOTH",
"430 64 OFFCURVE",
"334 138 OFFCURVE",
"222 282 CURVE SMOOTH",
"212 294 OFFCURVE",
"202 296 OFFCURVE",
"182 282 CURVE SMOOTH",
"160 266 LINE SMOOTH",
"140 252 OFFCURVE",
"138 240 OFFCURVE",
"148 226 CURVE SMOOTH",
"266 58 OFFCURVE",
"422 -20 OFFCURVE",
"644 -20 CURVE SMOOTH",
"946 -20 OFFCURVE",
"1132 120 OFFCURVE",
"1132 364 CURVE SMOOTH",
"1132 532 OFFCURVE",
"1046 652 OFFCURVE",
"810 738 CURVE SMOOTH",
"534 838 LINE SMOOTH",
"320 916 OFFCURVE",
"290 1036 OFFCURVE",
"290 1114 CURVE SMOOTH",
"290 1312 OFFCURVE",
"438 1420 OFFCURVE",
"656 1420 CURVE SMOOTH",
"824 1420 OFFCURVE",
"946 1348 OFFCURVE",
"1026 1254 CURVE SMOOTH"
);
}
);
};
layerId = "91AB5BCA-6A50-42DA-B2F7-8181BF189245";
paths = (
{
closed = 1;
nodes = (
"1000 -20 OFFCURVE",
"1172 150 OFFCURVE",
"1172 354 CURVE SMOOTH",
"1172 518 OFFCURVE",
"1090 668 OFFCURVE",
"862 728 CURVE SMOOTH",
"554 808 LINE SMOOTH",
"326 868 OFFCURVE",
"252 942 OFFCURVE",
"252 1066 CURVE SMOOTH",
"252 1286 OFFCURVE",
"474 1382 OFFCURVE",
"646 1382 CURVE SMOOTH",
"842 1382 OFFCURVE",
"1024 1300 OFFCURVE",
"1064 1064 CURVE",
"1144 1080 LINE",
"1124 1280 OFFCURVE",
"978 1464 OFFCURVE",
"650 1464 CURVE SMOOTH",
"358 1464 OFFCURVE",
"166 1292 OFFCURVE",
"166 1064 CURVE SMOOTH",
"166 892 OFFCURVE",
"286 798 OFFCURVE",
"500 744 CURVE SMOOTH",
"822 664 LINE SMOOTH",
"1008 618 OFFCURVE",
"1086 504 OFFCURVE",
"1086 350 CURVE SMOOTH",
"1086 180 OFFCURVE",
"910 58 OFFCURVE",
"658 58 CURVE SMOOTH",
"446 58 OFFCURVE",
"248 156 OFFCURVE",
"204 352 CURVE",
"120 334 LINE",
"164 110 OFFCURVE",
"394 -20 OFFCURVE",
"658 -20 CURVE SMOOTH"
);
}
);
width = 1292;
}
);
leftKerningGroup = S;
rightKerningGroup = S;
unicode = 0053;
},
{
glyphname = Schwa;
lastChange = "2019-04-29 18:43:28 +0000";
layers = (
{
background = {
paths = (
{
closed = 1;
nodes = (
"1032 862 OFFCURVE",
"1018 850 OFFCURVE",
"992 850 CURVE SMOOTH",
"126 850 LINE SMOOTH",
"82 850 OFFCURVE",
"80 828 OFFCURVE",
"80 784 CURVE SMOOTH",
"80 272 OFFCURVE",
"322 -20 OFFCURVE",
"788 -20 CURVE SMOOTH",
"1174 -20 OFFCURVE",
"1512 316 OFFCURVE",
"1512 760 CURVE SMOOTH",
"1512 1198 OFFCURVE",
"1238 1504 OFFCURVE",
"794 1504 CURVE SMOOTH",
"502 1504 OFFCURVE",
"290 1378 OFFCURVE",
"166 1134 CURVE SMOOTH",
"150 1102 OFFCURVE",
"152 1084 OFFCURVE",
"176 1072 CURVE SMOOTH",
"452 936 LINE SMOOTH",
"486 918 OFFCURVE",
"498 924 OFFCURVE",
"506 938 CURVE SMOOTH",
"598 1088 OFFCURVE",
"674 1156 OFFCURVE",
"798 1156 CURVE SMOOTH",
"994 1156 OFFCURVE",
"1032 1012 OFFCURVE",
"1032 894 CURVE SMOOTH"
);
},
{
closed = 1;
nodes = (
"1004 384 OFFCURVE",
"946 292 OFFCURVE",
"784 292 CURVE SMOOTH",
"648 292 OFFCURVE",
"566 402 OFFCURVE",
"566 534 CURVE SMOOTH",
"566 564 OFFCURVE",
"576 570 OFFCURVE",
"610 570 CURVE SMOOTH",
"1028 568 LINE"
);
}
);
};
layerId = "258ED206-D907-4350-8EBA-CBDDA1C16BF7";
paths = (
{
closed = 1;
nodes = (
"1028 840 OFFCURVE",
"1014 828 OFFCURVE",
"990 828 CURVE SMOOTH",
"146 828 LINE SMOOTH",
"102 828 OFFCURVE",
"100 808 OFFCURVE",
"100 764 CURVE SMOOTH",
"100 266 OFFCURVE",
"336 -20 OFFCURVE",
"790 -20 CURVE SMOOTH",
"1166 -20 OFFCURVE",
"1496 308 OFFCURVE",
"1496 742 CURVE SMOOTH",
"1496 1168 OFFCURVE",
"1230 1466 OFFCURVE",
"796 1466 CURVE SMOOTH",
"512 1466 OFFCURVE",
"304 1344 OFFCURVE",
"184 1106 CURVE SMOOTH",
"168 1074 OFFCURVE",
"170 1056 OFFCURVE",
"194 1046 CURVE SMOOTH",
"462 912 LINE SMOOTH",
"496 896 OFFCURVE",
"508 900 OFFCURVE",
"516 914 CURVE SMOOTH",
"606 1060 OFFCURVE",
"680 1128 OFFCURVE",
"800 1128 CURVE SMOOTH",
"992 1128 OFFCURVE",
"1028 986 OFFCURVE",
"1028 872 CURVE SMOOTH"
);
},
{
closed = 1;
nodes = (
"1002 374 OFFCURVE",
"944 284 OFFCURVE",
"786 284 CURVE SMOOTH",
"654 284 OFFCURVE",
"574 392 OFFCURVE",
"574 520 CURVE SMOOTH",
"574 550 OFFCURVE",
"584 556 OFFCURVE",
"616 556 CURVE SMOOTH",
"1024 554 LINE"
);
}
);
width = 1596;
},
{
background = {
paths = (
{
closed = 1;
nodes = (
"1234 762 OFFCURVE",
"1232 760 OFFCURVE",
"1222 760 CURVE SMOOTH",
"152 760 LINE SMOOTH",
"136 760 OFFCURVE",
"136 750 OFFCURVE",
"136 738 CURVE SMOOTH",
"136 348 OFFCURVE",
"268 -20 OFFCURVE",
"738 -20 CURVE SMOOTH",
"1196 -20 OFFCURVE",
"1338 360 OFFCURVE",
"1338 732 CURVE SMOOTH",
"1338 1062 OFFCURVE",
"1238 1504 OFFCURVE",
"738 1504 CURVE SMOOTH",
"282 1504 OFFCURVE",
"194 1120 OFFCURVE",
"164 1044 CURVE SMOOTH",
"160 1034 OFFCURVE",
"158 1028 OFFCURVE",
"166 1026 CURVE SMOOTH",
"242 1000 LINE SMOOTH",
"250 998 OFFCURVE",
"254 996 OFFCURVE",
"256 1000 CURVE SMOOTH",
"284 1062 OFFCURVE",
"320 1418 OFFCURVE",
"738 1418 CURVE SMOOTH",
"1174 1418 OFFCURVE",
"1234 1008 OFFCURVE",
"1234 772 CURVE SMOOTH"
);
},
{
closed = 1;
nodes = (
"1228 382 OFFCURVE",
"1130 66 OFFCURVE",
"738 66 CURVE SMOOTH",
"344 66 OFFCURVE",
"240 384 OFFCURVE",
"240 664 CURVE SMOOTH",
"240 672 OFFCURVE",
"244 676 OFFCURVE",
"256 676 CURVE SMOOTH",
"1234 676 LINE"
);
}
);
};
layerId = "91AB5BCA-6A50-42DA-B2F7-8181BF189245";
paths = (
{
closed = 1;
nodes = (
"1202 742 OFFCURVE",
"1200 742 OFFCURVE",
"1190 742 CURVE SMOOTH",
"146 742 LINE SMOOTH",
"130 742 OFFCURVE",
"130 732 OFFCURVE",
"130 720 CURVE SMOOTH",
"130 340 OFFCURVE",
"260 -20 OFFCURVE",
"718 -20 CURVE SMOOTH",
"1164 -20 OFFCURVE",
"1302 352 OFFCURVE",
"1302 714 CURVE SMOOTH",
"1302 1036 OFFCURVE",
"1206 1466 OFFCURVE",
"718 1466 CURVE SMOOTH",
"274 1466 OFFCURVE",
"188 1092 OFFCURVE",
"158 1018 CURVE SMOOTH",
"154 1008 OFFCURVE",
"152 1002 OFFCURVE",
"160 1000 CURVE SMOOTH",
"234 976 LINE SMOOTH",
"242 974 OFFCURVE",
"246 972 OFFCURVE",
"248 976 CURVE SMOOTH",
"276 1036 OFFCURVE",
"310 1382 OFFCURVE",
"718 1382 CURVE SMOOTH",
"1142 1382 OFFCURVE",
"1202 982 OFFCURVE",
"1202 752 CURVE SMOOTH"
);
},
{
closed = 1;
nodes = (
"1196 372 OFFCURVE",
"1100 64 OFFCURVE",
"718 64 CURVE SMOOTH",
"334 64 OFFCURVE",
"232 374 OFFCURVE",
"232 648 CURVE SMOOTH",
"232 656 OFFCURVE",
"236 660 OFFCURVE",
"248 660 CURVE SMOOTH",
"1202 660 LINE"
);
}
);
width = 1432;
}
);
leftKerningGroup = e;
leftMetricsKey = O;
rightKerningGroup = e;
rightMetricsKey = O;
unicode = 018F;
},
{
glyphname = T;
lastChange = "2019-05-07 05:58:52 +0000";
layers = (
{
anchors = (
{
name = bottom;
position = "{654, 0}";
},
{
name = top;
position = "{654, 1446}";
}
);
background = {
anchors = (
{
name = bottom;
position = "{656, 0}";
},
{
name = top;
position = "{656, 1484}";
}
);
paths = (
{
closed = 1;
nodes = (
"8 1172 OFFCURVE",
"26 1162 OFFCURVE",
"54 1162 CURVE SMOOTH",
"406 1162 LINE SMOOTH",
"422 1162 OFFCURVE",
"428 1154 OFFCURVE",
"428 1134 CURVE SMOOTH",
"428 40 LINE SMOOTH",
"428 14 OFFCURVE",
"442 0 OFFCURVE",
"464 0 CURVE SMOOTH",
"844 0 LINE SMOOTH",
"866 0 OFFCURVE",
"882 14 OFFCURVE",
"882 44 CURVE SMOOTH",
"882 1142 LINE SMOOTH",
"882 1156 OFFCURVE",
"890 1162 OFFCURVE",
"906 1162 CURVE SMOOTH",
"1260 1162 LINE SMOOTH",
"1286 1162 OFFCURVE",
"1304 1172 OFFCURVE",
"1304 1200 CURVE SMOOTH",
"1304 1438 LINE SMOOTH",
"1304 1464 OFFCURVE",
"1288 1484 OFFCURVE",
"1254 1484 CURVE SMOOTH",
"58 1484 LINE SMOOTH",
"24 1484 OFFCURVE",
"8 1464 OFFCURVE",
"8 1438 CURVE SMOOTH",
"8 1200 LINE SMOOTH"
);
}
);
};
layerId = "258ED206-D907-4350-8EBA-CBDDA1C16BF7";
paths = (
{
closed = 1;
nodes = (
"440 1104 LINE",
"440 0 LINE",
"830 0 LINE",
"830 1104 LINE",
"1244 1104 LINE",
"1244 1446 LINE",
"30 1446 LINE",
"30 1104 LINE"
);
}
);
width = 1274;
},
{
anchors = (
{
name = bottom;
position = "{618, 4}";
},
{
name = top;
position = "{618, 1446}";
}
);
background = {
anchors = (
{
name = bottom;
position = "{634, 0}";
},
{
name = top;
position = "{634, 1484}";
}
);
paths = (
{
closed = 1;
nodes = (
"82 1406 OFFCURVE",
"86 1404 OFFCURVE",
"98 1404 CURVE SMOOTH",
"566 1404 LINE SMOOTH",
"582 1404 OFFCURVE",
"586 1402 OFFCURVE",
"586 1386 CURVE SMOOTH",
"586 20 LINE SMOOTH",
"586 4 OFFCURVE",
"590 0 OFFCURVE",
"606 0 CURVE SMOOTH",
"660 0 LINE SMOOTH",
"674 0 OFFCURVE",
"678 4 OFFCURVE",
"678 20 CURVE SMOOTH",
"678 1386 LINE SMOOTH",
"678 1402 OFFCURVE",
"682 1404 OFFCURVE",
"698 1404 CURVE SMOOTH",
"1124 1404 LINE SMOOTH",
"1136 1404 OFFCURVE",
"1140 1406 OFFCURVE",
"1140 1418 CURVE SMOOTH",
"1140 1470 LINE SMOOTH",
"1140 1480 OFFCURVE",
"1136 1484 OFFCURVE",
"1126 1484 CURVE SMOOTH",
"96 1484 LINE SMOOTH",
"86 1484 OFFCURVE",
"82 1480 OFFCURVE",
"82 1470 CURVE SMOOTH",
"82 1418 LINE SMOOTH"
);
}
);
};
layerId = "91AB5BCA-6A50-42DA-B2F7-8181BF189245";
paths = (
{
closed = 1;
nodes = (
"576 1366 LINE",
"576 0 LINE",
"654 0 LINE",
"654 1366 LINE",
"1110 1366 LINE",
"1110 1446 LINE",
"80 1446 LINE",
"80 1366 LINE"
);
}
);
width = 1190;
}
);
leftKerningGroup = T;
leftMetricsKey = X;
rightKerningGroup = T;
rightMetricsKey = X;
unicode = 0054;
},
{
glyphname = Tbar;
lastChange = "2019-04-30 21:57:47 +0000";
layers = (
{
background = {
components = (
{
name = T;
transform = "{1, 0, 0, 1, -22, 0}";
}
);
paths = (
{
closed = 1;
nodes = (
"1064 828 OFFCURVE",
"1050 844 OFFCURVE",
"1028 844 CURVE SMOOTH",
"226 844 LINE SMOOTH",
"202 844 OFFCURVE",
"188 828 OFFCURVE",
"188 798 CURVE SMOOTH",
"188 612 LINE SMOOTH",
"188 578 OFFCURVE",
"200 562 OFFCURVE",
"240 562 CURVE SMOOTH",
"998 562 LINE SMOOTH",
"1044 562 OFFCURVE",
"1064 578 OFFCURVE",
"1064 618 CURVE SMOOTH",
"1064 804 LINE SMOOTH"
);
}
);
};
components = (
{
name = T;
}
);
layerId = "258ED206-D907-4350-8EBA-CBDDA1C16BF7";
paths = (
{
closed = 1;
nodes = (
"208 822 LINE",
"208 548 LINE",
"1062 548 LINE",
"1062 822 LINE"
);
}
);
width = 1274;
},
{
background = {
components = (
{
name = T;
transform = "{1, 0, 0, 1, 4, 0}";
}
);
guideLines = (
{
angle = 90;
position = "{179, 188}";
showMeasurement = 1;
}
);
paths = (
{
closed = 1;
nodes = (
"1016 798 OFFCURVE",
"1012 804 OFFCURVE",
"1002 804 CURVE SMOOTH",
"298 804 LINE SMOOTH",
"288 804 OFFCURVE",
"284 798 OFFCURVE",
"284 786 CURVE SMOOTH",
"284 740 LINE SMOOTH",
"284 726 OFFCURVE",
"288 720 OFFCURVE",
"304 720 CURVE SMOOTH",
"990 720 LINE SMOOTH",
"1008 720 OFFCURVE",
"1016 726 OFFCURVE",
"1016 742 CURVE SMOOTH",
"1016 788 LINE SMOOTH"
);
}
);
};
components = (
{
name = T;
}
);
guideLines = (
{
angle = 90;
position = "{233, 175}";
showMeasurement = 1;
}
);
layerId = "91AB5BCA-6A50-42DA-B2F7-8181BF189245";
paths = (
{
closed = 1;
nodes = (
"214 784 LINE",
"214 702 LINE",
"928 702 LINE",
"928 784 LINE"
);
}
);
width = 1190;
}
);
leftKerningGroup = T;
leftMetricsKey = T;
rightKerningGroup = T;
rightMetricsKey = T;
unicode = 0166;
},
{
glyphname = U;
lastChange = "2019-04-30 22:04:04 +0000";
layers = (
{
anchors = (
{
name = bottom;
position = "{754, 0}";
},
{
name = horn;
position = "{1310, 1094}";
},
{
name = ogonek;
position = "{912, 24}";
},
{
name = top;
position = "{754, 1446}";
}
);
background = {
anchors = (
{
name = ogonek;
position = "{944, 20}";
},
{
name = top;
position = "{754, 1484}";
}
);
paths = (
{
closed = 1;
nodes = (
"1360 1442 LINE SMOOTH",
"1360 1468 OFFCURVE",
"1348 1484 OFFCURVE",
"1324 1484 CURVE SMOOTH",
"1024 1484 LINE SMOOTH",
"1000 1484 OFFCURVE",
"986 1468 OFFCURVE",
"986 1438 CURVE SMOOTH",
"986 584 LINE SMOOTH",
"986 362 OFFCURVE",
"878 298 OFFCURVE",
"754 298 CURVE SMOOTH",
"618 298 OFFCURVE",
"534 374 OFFCURVE",
"534 578 CURVE SMOOTH",
"534 1442 LINE SMOOTH",
"534 1468 OFFCURVE",
"522 1484 OFFCURVE",
"498 1484 CURVE SMOOTH",
"118 1484 LINE SMOOTH",
"96 1484 OFFCURVE",
"80 1468 OFFCURVE",
"80 1438 CURVE SMOOTH",
"80 626 LINE SMOOTH",
"80 208 OFFCURVE",
"242 -20 OFFCURVE",
"720 -20 CURVE SMOOTH",
"1102 -20 OFFCURVE",
"1360 124 OFFCURVE",
"1360 586 CURVE SMOOTH"
);
}
);
};
layerId = "258ED206-D907-4350-8EBA-CBDDA1C16BF7";
paths = (
{
closed = 1;
nodes = (
"1378 1446 LINE",
"984 1446 LINE",
"984 582 LINE SMOOTH",
"984 382 OFFCURVE",
"874 306 OFFCURVE",
"754 306 CURVE SMOOTH",
"632 306 OFFCURVE",
"524 382 OFFCURVE",
"524 582 CURVE SMOOTH",
"524 1446 LINE",
"130 1446 LINE",
"130 598 LINE SMOOTH",
"130 230 OFFCURVE",
"288 -20 OFFCURVE",
"754 -20 CURVE SMOOTH",
"1220 -20 OFFCURVE",
"1378 230 OFFCURVE",
"1378 598 CURVE SMOOTH"
);
}
);
width = 1478;
},
{
anchors = (
{
name = bottom;
position = "{696, 4}";
},
{
name = horn;
position = "{1148, 1212}";
},
{
name = ogonek;
position = "{838, 18}";
},
{
name = top;
position = "{702, 1446}";
}
);
background = {
anchors = (
{
name = ogonek;
position = "{860, 18}";
},
{
name = top;
position = "{724, 1484}";
}
);
paths = (
{
closed = 1;
nodes = (
"1210 1466 LINE SMOOTH",
"1210 1478 OFFCURVE",
"1206 1484 OFFCURVE",
"1194 1484 CURVE SMOOTH",
"1146 1484 LINE SMOOTH",
"1134 1484 OFFCURVE",
"1130 1478 OFFCURVE",
"1130 1466 CURVE SMOOTH",
"1130 458 LINE SMOOTH",
"1130 194 OFFCURVE",
"996 64 OFFCURVE",
"720 64 CURVE SMOOTH",
"448 64 OFFCURVE",
"314 192 OFFCURVE",
"314 452 CURVE SMOOTH",
"314 1464 LINE SMOOTH",
"314 1480 OFFCURVE",
"310 1484 OFFCURVE",
"294 1484 CURVE SMOOTH",
"238 1484 LINE SMOOTH",
"226 1484 OFFCURVE",
"222 1478 OFFCURVE",
"222 1462 CURVE SMOOTH",
"222 490 LINE SMOOTH",
"222 142 OFFCURVE",
"380 -20 OFFCURVE",
"716 -20 CURVE SMOOTH",
"1048 -20 OFFCURVE",
"1210 138 OFFCURVE",
"1210 460 CURVE SMOOTH"
);
}
);
};
layerId = "91AB5BCA-6A50-42DA-B2F7-8181BF189245";
paths = (
{
closed = 1;
nodes = (
"1178 1446 LINE",
"1100 1446 LINE",
"1100 444 LINE SMOOTH",
"1100 188 OFFCURVE",
"966 56 OFFCURVE",
"698 56 CURVE SMOOTH",
"432 56 OFFCURVE",
"306 192 OFFCURVE",
"306 444 CURVE SMOOTH",
"306 1446 LINE",
"220 1446 LINE",
"220 478 LINE SMOOTH",
"220 138 OFFCURVE",
"370 -20 OFFCURVE",
"698 -20 CURVE SMOOTH",
"1020 -20 OFFCURVE",
"1178 134 OFFCURVE",
"1178 448 CURVE SMOOTH"
);
}
);
width = 1368;
}
);
leftKerningGroup = U;
leftMetricsKey = H;
rightKerningGroup = U;
rightMetricsKey = "=H-30";
unicode = 0055;
},
{
glyphname = V;
lastChange = "2019-04-30 21:57:47 +0000";
layers = (
{
background = {
paths = (
{
closed = 1;
nodes = (
"1092 1484 LINE SMOOTH",
"1068 1484 OFFCURVE",
"1046 1468 OFFCURVE",
"1040 1442 CURVE SMOOTH",
"790 566 LINE SMOOTH",
"784 546 OFFCURVE",
"776 546 OFFCURVE",
"770 564 CURVE SMOOTH",
"502 1442 LINE SMOOTH",
"494 1468 OFFCURVE",
"476 1484 OFFCURVE",
"452 1484 CURVE SMOOTH",
"66 1484 LINE SMOOTH",
"34 1484 OFFCURVE",
"16 1456 OFFCURVE",
"28 1426 CURVE SMOOTH",
"492 50 LINE SMOOTH",
"502 16 OFFCURVE",
"526 0 OFFCURVE",
"566 0 CURVE SMOOTH",
"890 0 LINE SMOOTH",
"930 0 OFFCURVE",
"954 16 OFFCURVE",
"964 50 CURVE SMOOTH",
"1428 1426 LINE SMOOTH",
"1438 1456 OFFCURVE",
"1422 1484 OFFCURVE",
"1390 1484 CURVE SMOOTH"
);
}
);
};
guideLines = (
{
angle = -108.62;
position = "{370, 211}";
}
);
layerId = "258ED206-D907-4350-8EBA-CBDDA1C16BF7";
paths = (
{
closed = 1;
nodes = (
"1066 1446 LINE",
"732 456 LINE",
"396 1446 LINE",
"30 1446 LINE",
"518 0 LINE",
"946 0 LINE",
"1434 1446 LINE"
);
}
);
width = 1464;
},
{
background = {
paths = (
{
closed = 1;
nodes = (
"1194 1484 LINE SMOOTH",
"1182 1484 OFFCURVE",
"1176 1480 OFFCURVE",
"1172 1470 CURVE SMOOTH",
"684 130 LINE SMOOTH",
"674 102 OFFCURVE",
"662 102 OFFCURVE",
"652 128 CURVE SMOOTH",
"178 1468 LINE SMOOTH",
"174 1480 OFFCURVE",
"168 1484 OFFCURVE",
"152 1484 CURVE SMOOTH",
"106 1484 LINE SMOOTH",
"92 1484 OFFCURVE",
"86 1476 OFFCURVE",
"90 1464 CURVE SMOOTH",
"600 20 LINE SMOOTH",
"604 6 OFFCURVE",
"616 0 OFFCURVE",
"638 0 CURVE SMOOTH",
"702 0 LINE SMOOTH",
"720 0 OFFCURVE",
"728 6 OFFCURVE",
"734 22 CURVE SMOOTH",
"1258 1466 LINE SMOOTH",
"1262 1476 OFFCURVE",
"1256 1484 OFFCURVE",
"1244 1484 CURVE SMOOTH"
);
}
);
};
layerId = "91AB5BCA-6A50-42DA-B2F7-8181BF189245";
paths = (
{
closed = 1;
nodes = (
"1148 1446 LINE",
"650 82 LINE",
"166 1446 LINE",
"80 1446 LINE",
"592 0 LINE",
"708 0 LINE",
"1232 1446 LINE"
);
}
);
width = 1312;
}
);
leftKerningGroup = V;
leftMetricsKey = X;
rightKerningGroup = V;
rightMetricsKey = X;
unicode = 0056;
},
{
glyphname = W;
lastChange = "2019-05-07 16:26:59 +0000";
layers = (
{
anchors = (
{
name = top;
position = "{982, 1446}";
}
);
background = {
anchors = (
{
name = top;
position = "{1030, 1484}";
}
);
paths = (
{
closed = 1;
nodes = (
"1790 1484 LINE SMOOTH",
"1748 1484 OFFCURVE",
"1732 1468 OFFCURVE",
"1726 1442 CURVE SMOOTH",
"1522 678 LINE SMOOTH",
"1518 662 OFFCURVE",
"1504 666 OFFCURVE",
"1500 682 CURVE SMOOTH",
"1280 1442 LINE SMOOTH",
"1272 1468 OFFCURVE",
"1258 1484 OFFCURVE",
"1216 1484 CURVE SMOOTH",
"936 1484 LINE SMOOTH",
"894 1484 OFFCURVE",
"878 1468 OFFCURVE",
"872 1442 CURVE SMOOTH",
"662 692 LINE SMOOTH",
"656 670 OFFCURVE",
"646 670 OFFCURVE",
"638 700 CURVE SMOOTH",
"426 1442 LINE SMOOTH",
"418 1468 OFFCURVE",
"404 1484 OFFCURVE",
"362 1484 CURVE SMOOTH",
"32 1484 LINE SMOOTH",
"-20 1484 OFFCURVE",
"-40 1450 OFFCURVE",
"-28 1404 CURVE SMOOTH",
"380 50 LINE SMOOTH",
"392 16 OFFCURVE",
"412 0 OFFCURVE",
"452 0 CURVE SMOOTH",
"738 0 LINE SMOOTH",
"780 0 OFFCURVE",
"800 16 OFFCURVE",
"810 50 CURVE SMOOTH",
"1016 750 LINE SMOOTH",
"1030 790 OFFCURVE",
"1040 786 OFFCURVE",
"1048 754 CURVE SMOOTH",
"1256 50 LINE SMOOTH",
"1266 16 OFFCURVE",
"1288 0 OFFCURVE",
"1328 0 CURVE SMOOTH",
"1604 0 LINE SMOOTH",
"1644 0 OFFCURVE",
"1664 16 OFFCURVE",
"1676 50 CURVE SMOOTH",
"2082 1404 LINE SMOOTH",
"2094 1450 OFFCURVE",
"2074 1484 OFFCURVE",
"2022 1484 CURVE SMOOTH"
);
}
);
};
guideLines = (
{
angle = -73.94;
position = "{214, 670}";
},
{
angle = 74.3834;
position = "{417, 670}";
}
);
layerId = "258ED206-D907-4350-8EBA-CBDDA1C16BF7";
paths = (
{
closed = 1;
nodes = (
"1558 1446 LINE",
"1342 670 LINE",
"1118 1446 LINE",
"846 1446 LINE",
"630 670 LINE",
"406 1446 LINE",
"30 1446 LINE",
"466 0 LINE",
"752 0 LINE",
"982 786 LINE",
"1212 0 LINE",
"1502 0 LINE",
"1934 1446 LINE"
);
}
);
width = 1964;
},
{
anchors = (
{
name = top;
position = "{962, 1446}";
}
);
background = {
anchors = (
{
name = top;
position = "{1000, 1484}";
}
);
guideLines = (
{
position = "{44, 125}";
showMeasurement = 1;
}
);
paths = (
{
closed = 1;
nodes = (
"1844 1484 LINE SMOOTH",
"1832 1484 OFFCURVE",
"1822 1480 OFFCURVE",
"1820 1470 CURVE SMOOTH",
"1442 144 LINE SMOOTH",
"1434 116 OFFCURVE",
"1426 116 OFFCURVE",
"1418 142 CURVE SMOOTH",
"1048 1468 LINE SMOOTH",
"1044 1480 OFFCURVE",
"1040 1484 OFFCURVE",
"1024 1484 CURVE SMOOTH",
"974 1484 LINE SMOOTH",
"956 1484 OFFCURVE",
"950 1476 OFFCURVE",
"948 1470 CURVE SMOOTH",
"570 144 LINE SMOOTH",
"562 116 OFFCURVE",
"554 116 OFFCURVE",
"546 142 CURVE SMOOTH",
"176 1468 LINE SMOOTH",
"172 1480 OFFCURVE",
"168 1484 OFFCURVE",
"152 1484 CURVE SMOOTH",
"102 1484 LINE SMOOTH",
"88 1484 OFFCURVE",
"82 1476 OFFCURVE",
"86 1464 CURVE SMOOTH",
"490 20 LINE SMOOTH",
"494 6 OFFCURVE",
"506 0 OFFCURVE",
"526 0 CURVE SMOOTH",
"590 0 LINE SMOOTH",
"610 0 OFFCURVE",
"618 6 OFFCURVE",
"622 22 CURVE SMOOTH",
"992 1316 LINE SMOOTH",
"994 1324 OFFCURVE",
"998 1324 OFFCURVE",
"1000 1316 CURVE SMOOTH",
"1362 20 LINE SMOOTH",
"1366 6 OFFCURVE",
"1378 0 OFFCURVE",
"1398 0 CURVE SMOOTH",
"1462 0 LINE SMOOTH",
"1482 0 OFFCURVE",
"1490 6 OFFCURVE",
"1494 22 CURVE SMOOTH",
"1908 1466 LINE SMOOTH",
"1910 1476 OFFCURVE",
"1906 1484 OFFCURVE",
"1894 1484 CURVE SMOOTH"
);
}
);
};
guideLines = (
{
position = "{117, 116}";
showMeasurement = 1;
}
);
layerId = "91AB5BCA-6A50-42DA-B2F7-8181BF189245";
paths = (
{
closed = 1;
nodes = (
"1762 1446 LINE",
"1378 98 LINE",
"1000 1446 LINE",
"922 1446 LINE",
"538 98 LINE",
"168 1446 LINE",
"80 1446 LINE",
"486 0 LINE",
"590 0 LINE",
"960 1296 LINE",
"1322 0 LINE",
"1432 0 LINE",
"1848 1446 LINE"
);
}
);
width = 1928;
}
);
leftKerningGroup = V;
leftMetricsKey = X;
rightKerningGroup = V;
rightMetricsKey = X;
unicode = 0057;
},
{
glyphname = X;
lastChange = "2019-05-06 19:22:31 +0000";
layers = (
{
background = {
paths = (
{
closed = 1;
nodes = (
"976 806 LINE",
"1420 1484 LINE",
"986 1484 LINE",
"758 1082 LINE",
"530 1484 LINE",
"20 1484 LINE",
"492 748 LINE",
"74 102 LINE SMOOTH",
"22 22 OFFCURVE",
"44 0 OFFCURVE",
"100 0 CURVE SMOOTH",
"448 0 LINE",
"714 466 LINE",
"986 0 LINE",
"1406 0 LINE SMOOTH",
"1462 0 OFFCURVE",
"1484 24 OFFCURVE",
"1434 102 CURVE SMOOTH"
);
}
);
};
layerId = "258ED206-D907-4350-8EBA-CBDDA1C16BF7";
paths = (
{
closed = 1;
nodes = (
"946 786 LINE",
"1378 1446 LINE",
"970 1446 LINE",
"748 1054 LINE",
"524 1446 LINE",
"42 1446 LINE",
"502 730 LINE",
"30 0 LINE",
"444 0 LINE",
"704 454 LINE",
"970 0 LINE",
"1456 0 LINE"
);
}
);
width = 1486;
},
{
background = {
guideLines = (
{
angle = 90;
position = "{64, 437}";
},
{
angle = 90;
position = "{575, 372}";
},
{
position = "{30, 716}";
showMeasurement = 1;
},
{
position = "{24, 32}";
showMeasurement = 1;
},
{
position = "{94, 454}";
showMeasurement = 1;
},
{
position = "{92, 290}";
showMeasurement = 1;
},
{
angle = 236.602;
position = "{307, 374}";
},
{
angle = 123.344;
position = "{364, 374}";
},
{
angle = 56.5817;
position = "{352, 370}";
},
{
angle = 123.4;
position = "{317, 370}";
}
);
paths = (
{
closed = 1;
nodes = (
"712 748 LINE SMOOTH",
"704 760 OFFCURVE",
"706 768 OFFCURVE",
"714 780 CURVE SMOOTH",
"1182 1472 LINE SMOOTH",
"1186 1478 OFFCURVE",
"1186 1484 OFFCURVE",
"1178 1484 CURVE SMOOTH",
"1096 1484 LINE SMOOTH",
"1088 1484 OFFCURVE",
"1084 1482 OFFCURVE",
"1080 1476 CURVE SMOOTH",
"666 862 LINE SMOOTH",
"652 842 OFFCURVE",
"644 844 OFFCURVE",
"632 860 CURVE SMOOTH",
"218 1476 LINE SMOOTH",
"214 1482 OFFCURVE",
"212 1484 OFFCURVE",
"200 1484 CURVE SMOOTH",
"122 1484 LINE SMOOTH",
"114 1484 OFFCURVE",
"112 1474 OFFCURVE",
"116 1468 CURVE SMOOTH",
"580 782 LINE SMOOTH",
"590 766 OFFCURVE",
"592 754 OFFCURVE",
"582 740 CURVE SMOOTH",
"98 20 LINE SMOOTH",
"88 4 OFFCURVE",
"92 0 OFFCURVE",
"104 0 CURVE SMOOTH",
"176 0 LINE SMOOTH",
"182 0 OFFCURVE",
"188 2 OFFCURVE",
"192 8 CURVE SMOOTH",
"626 648 LINE SMOOTH",
"646 678 OFFCURVE",
"654 676 OFFCURVE",
"668 654 CURVE SMOOTH",
"1108 8 LINE SMOOTH",
"1112 2 OFFCURVE",
"1114 0 OFFCURVE",
"1122 0 CURVE SMOOTH",
"1194 0 LINE SMOOTH",
"1206 0 OFFCURVE",
"1214 4 OFFCURVE",
"1202 20 CURVE SMOOTH"
);
}
);
};
guideLines = (
{
angle = 90;
position = "{135, 405}";
},
{
angle = 90;
position = "{585, 345}";
},
{
position = "{-62, 1446}";
showMeasurement = 1;
},
{
position = "{100, 29}";
showMeasurement = 1;
},
{
position = "{161, 421}";
showMeasurement = 1;
},
{
position = "{255, 619}";
showMeasurement = 1;
},
{
angle = 236.0258;
position = "{175, 0}";
},
{
angle = 124.2389;
position = "{1084, 0}";
},
{
angle = 236.0258;
position = "{330, 371}";
}
);
layerId = "91AB5BCA-6A50-42DA-B2F7-8181BF189245";
paths = (
{
closed = 1;
nodes = (
"674 742 LINE",
"1150 1446 LINE",
"1055 1446 LINE",
"627 811 LINE",
"196 1446 LINE",
"101 1446 LINE",
"580 742 LINE",
"80 0 LINE",
"175 0 LINE",
"627 671 LINE",
"1084 0 LINE",
"1179 0 LINE"
);
}
);
width = 1259;
}
);
leftKerningGroup = X;
rightKerningGroup = X;
unicode = 0058;
},
{
glyphname = Y;
lastChange = "2019-04-30 21:57:47 +0000";
layers = (
{
anchors = (
{
name = bottom;
position = "{736, 0}";
},
{
name = top;
position = "{786, 1446}";
}
);
background = {
anchors = (
{
name = top;
position = "{784, 1484}";
}
);
paths = (
{
closed = 1;
nodes = (
"1130 1484 LINE SMOOTH",
"1092 1484 OFFCURVE",
"1078 1476 OFFCURVE",
"1062 1442 CURVE SMOOTH",
"820 996 LINE SMOOTH",
"806 972 OFFCURVE",
"798 974 OFFCURVE",
"786 998 CURVE SMOOTH",
"540 1442 LINE SMOOTH",
"522 1474 OFFCURVE",
"512 1484 OFFCURVE",
"472 1484 CURVE SMOOTH",
"70 1484 LINE SMOOTH",
"28 1484 OFFCURVE",
"14 1460 OFFCURVE",
"34 1428 CURVE SMOOTH",
"502 664 LINE SMOOTH",
"520 634 OFFCURVE",
"530 618 OFFCURVE",
"530 576 CURVE SMOOTH",
"530 50 LINE SMOOTH",
"530 16 OFFCURVE",
"542 0 OFFCURVE",
"582 0 CURVE SMOOTH",
"918 0 LINE SMOOTH",
"964 0 OFFCURVE",
"984 16 OFFCURVE",
"984 58 CURVE SMOOTH",
"984 550 LINE SMOOTH",
"984 634 OFFCURVE",
"986 654 OFFCURVE",
"1004 682 CURVE SMOOTH",
"1472 1438 LINE SMOOTH",
"1488 1464 OFFCURVE",
"1478 1484 OFFCURVE",
"1444 1484 CURVE SMOOTH"
);
}
);
};
guideLines = (
{
angle = 58.823;
position = "{508, 670}";
}
);
layerId = "258ED206-D907-4350-8EBA-CBDDA1C16BF7";
paths = (
{
closed = 1;
nodes = (
"1020 1446 LINE",
"736 932 LINE",
"450 1446 LINE",
"30 1446 LINE",
"540 602 LINE",
"540 0 LINE",
"930 0 LINE",
"930 602 LINE",
"1444 1446 LINE"
);
}
);
width = 1474;
},
{
anchors = (
{
name = bottom;
position = "{604, 0}";
},
{
name = top;
position = "{600, 1450}";
}
);
background = {
anchors = (
{
name = top;
position = "{608, 1484}";
}
);
paths = (
{
closed = 1;
nodes = (
"1092 1484 LINE SMOOTH",
"1074 1484 OFFCURVE",
"1070 1482 OFFCURVE",
"1060 1466 CURVE SMOOTH",
"642 748 LINE SMOOTH",
"626 722 OFFCURVE",
"612 720 OFFCURVE",
"594 752 CURVE SMOOTH",
"174 1466 LINE SMOOTH",
"166 1480 OFFCURVE",
"160 1484 OFFCURVE",
"142 1484 CURVE SMOOTH",
"96 1484 LINE SMOOTH",
"76 1484 OFFCURVE",
"72 1474 OFFCURVE",
"80 1460 CURVE SMOOTH",
"568 630 LINE SMOOTH",
"576 616 OFFCURVE",
"578 610 OFFCURVE",
"578 590 CURVE SMOOTH",
"578 22 LINE SMOOTH",
"578 8 OFFCURVE",
"584 0 OFFCURVE",
"602 0 CURVE SMOOTH",
"640 0 LINE SMOOTH",
"662 0 OFFCURVE",
"670 8 OFFCURVE",
"670 26 CURVE SMOOTH",
"670 612 LINE SMOOTH",
"670 632 OFFCURVE",
"670 640 OFFCURVE",
"678 652 CURVE SMOOTH",
"1156 1462 LINE SMOOTH",
"1164 1474 OFFCURVE",
"1158 1484 OFFCURVE",
"1144 1484 CURVE SMOOTH"
);
}
);
};
guideLines = (
{
angle = 239.8907;
position = "{289, 335}";
},
{
angle = -59.5603;
position = "{254, 328}";
}
);
layerId = "91AB5BCA-6A50-42DA-B2F7-8181BF189245";
paths = (
{
closed = 1;
nodes = (
"1032 1446 LINE",
"604 702 LINE",
"168 1446 LINE",
"80 1446 LINE",
"564 624 LINE",
"564 0 LINE",
"642 0 LINE",
"642 622 LINE",
"1118 1446 LINE"
);
}
);
width = 1198;
}
);
leftKerningGroup = Y;
leftMetricsKey = X;
rightKerningGroup = Y;
rightMetricsKey = X;
unicode = 0059;
},
{
glyphname = Z;
lastChange = "2019-05-03 17:06:24 +0000";
layers = (
{
anchors = (
{
name = bottom;
position = "{691, 0}";
},
{
name = top;
position = "{737, 1446}";
}
);
background = {
anchors = (
{
name = bottom;
position = "{687, 0}";
},
{
name = top;
position = "{735, 1484}";
}
);
paths = (
{
closed = 1;
nodes = (
"1347 0 LINE",
"1347 332 LINE",
"665 332 LINE",
"1359 1308 LINE",
"1359 1484 LINE",
"111 1484 LINE",
"111 1154 LINE",
"725 1154 LINE",
"45 182 LINE",
"45 0 LINE"
);
}
);
};
layerId = "258ED206-D907-4350-8EBA-CBDDA1C16BF7";
paths = (
{
closed = 1;
nodes = (
"1295 0 LINE",
"1295 324 LINE",
"611 324 LINE",
"1307 1276 LINE",
"1307 1446 LINE",
"129 1446 LINE",
"129 1126 LINE",
"747 1126 LINE",
"65 178 LINE",
"65 0 LINE"
);
}
);
width = 1372;
},
{
anchors = (
{
name = bottom;
position = "{610, 0}";
},
{
name = top;
position = "{596, 1446}";
}
);
background = {
anchors = (
{
name = bottom;
position = "{628, 0}";
},
{
name = top;
position = "{614, 1484}";
}
);
paths = (
{
closed = 1;
nodes = (
"1092 0 LINE",
"1092 80 LINE",
"224 80 LINE",
"1092 1430 LINE",
"1092 1484 LINE",
"134 1484 LINE",
"134 1404 LINE",
"976 1404 LINE",
"114 56 LINE",
"114 0 LINE"
);
}
);
};
guideLines = (
{
angle = 237.1304;
position = "{462, 659}";
}
);
layerId = "91AB5BCA-6A50-42DA-B2F7-8181BF189245";
paths = (
{
closed = 1;
nodes = (
"1062 0 LINE",
"1062 78 LINE",
"208 78 LINE",
"1062 1386 LINE",
"1062 1446 LINE",
"128 1446 LINE",
"128 1368 LINE",
"960 1368 LINE",
"110 62 LINE",
"110 0 LINE"
);
}
);
width = 1172;
}
);
leftKerningGroup = Z;
leftMetricsKey = "=H/2";
rightKerningGroup = Z;
rightMetricsKey = "=H/2";
unicode = 005A;
},
{
glyphname = a;
lastChange = "2019-05-07 22:23:30 +0000";
layers = (
{
anchors = (
{
name = bottom;
position = "{587, 0}";
},
{
name = ogonek;
position = "{1001, 20}";
},
{
name = top;
position = "{589, 1034}";
}
);
background = {
anchors = (
{
name = ogonek;
position = "{989, 20}";
},
{
name = top;
position = "{565, 1060}";
}
);
guideLines = (
{
angle = 90;
position = "{335, 102}";
}
);
paths = (
{
closed = 1;
nodes = (
"651 112 OFFCURVE",
"667 110 OFFCURVE",
"671 84 CURVE SMOOTH",
"673 70 LINE SMOOTH",
"679 32 OFFCURVE",
"689 0 OFFCURVE",
"725 0 CURVE SMOOTH",
"999 0 LINE SMOOTH",
"1037 0 OFFCURVE",
"1045 14 OFFCURVE",
"1045 54 CURVE SMOOTH",
"1045 750 LINE SMOOTH",
"1045 946 OFFCURVE",
"935 1080 OFFCURVE",
"565 1080 CURVE SMOOTH",
"303 1080 OFFCURVE",
"121 1012 OFFCURVE",
"61 842 CURVE SMOOTH",
"43 792 OFFCURVE",
"55 782 OFFCURVE",
"75 778 CURVE SMOOTH",
"337 726 LINE SMOOTH",
"373 720 OFFCURVE",
"381 726 OFFCURVE",
"391 748 CURVE SMOOTH",
"425 822 OFFCURVE",
"491 842 OFFCURVE",
"547 842 CURVE SMOOTH",
"627 842 OFFCURVE",
"665 800 OFFCURVE",
"665 726 CURVE SMOOTH",
"665 692 LINE SMOOTH",
"665 668 OFFCURVE",
"645 664 OFFCURVE",
"635 664 CURVE SMOOTH",
"621 664 LINE SMOOTH",
"243 664 OFFCURVE",
"7 506 OFFCURVE",
"7 272 CURVE SMOOTH",
"7 106 OFFCURVE",
"127 -20 OFFCURVE",
"327 -20 CURVE SMOOTH",
"451 -20 OFFCURVE",
"545 24 OFFCURVE",
"617 84 CURVE SMOOTH"
);
},
{
closed = 1;
nodes = (
"665 342 LINE SMOOTH",
"665 312 OFFCURVE",
"643 290 OFFCURVE",
"619 270 CURVE SMOOTH",
"597 252 OFFCURVE",
"561 232 OFFCURVE",
"509 232 CURVE SMOOTH",
"437 232 OFFCURVE",
"395 270 OFFCURVE",
"395 326 CURVE SMOOTH",
"395 438 OFFCURVE",
"563 484 OFFCURVE",
"627 484 CURVE SMOOTH",
"635 484 LINE SMOOTH",
"659 484 OFFCURVE",
"665 472 OFFCURVE",
"665 448 CURVE SMOOTH"
);
}
);
};
guideLines = (
{
angle = 270;
position = "{332, 93}";
},
{
angle = 270;
position = "{297, 516}";
}
);
layerId = "258ED206-D907-4350-8EBA-CBDDA1C16BF7";
rightMetricsKey = "=n";
paths = (
{
closed = 1;
nodes = (
"553 -20 OFFCURVE",
"639 24 OFFCURVE",
"701 164 CURVE",
"735 0 LINE",
"1057 0 LINE",
"1057 732 LINE SMOOTH",
"1057 922 OFFCURVE",
"949 1054 OFFCURVE",
"589 1054 CURVE SMOOTH",
"323 1054 OFFCURVE",
"107 956 OFFCURVE",
"95 712 CURVE",
"411 712 LINE",
"443 782 OFFCURVE",
"517 800 OFFCURVE",
"571 802 CURVE SMOOTH",
"649 804 OFFCURVE",
"685 774 OFFCURVE",
"685 708 CURVE SMOOTH",
"685 664 LINE",
"605 664 LINE SMOOTH",
"229 664 OFFCURVE",
"55 534 OFFCURVE",
"55 310 CURVE SMOOTH",
"55 96 OFFCURVE",
"217 -20 OFFCURVE",
"413 -20 CURVE SMOOTH"
);
},
{
closed = 1;
nodes = (
"483 226 OFFCURVE",
"421 272 OFFCURVE",
"421 350 CURVE SMOOTH",
"421 452 OFFCURVE",
"561 480 OFFCURVE",
"623 480 CURVE SMOOTH",
"685 480 LINE",
"685 350 LINE",
"683 284 OFFCURVE",
"625 226 OFFCURVE",
"549 226 CURVE SMOOTH"
);
}
);
width = 1167;
},
{
anchors = (
{
name = bottom;
position = "{561, 0}";
},
{
name = ogonek;
position = "{921, 28}";
},
{
name = top;
position = "{561, 1034}";
}
);
background = {
anchors = (
{
name = ogonek;
position = "{947, 28}";
},
{
name = top;
position = "{577, 1060}";
}
);
paths = (
{
closed = 1;
nodes = (
"871 156 OFFCURVE",
"879 154 OFFCURVE",
"881 140 CURVE SMOOTH",
"885 18 LINE SMOOTH",
"885 4 OFFCURVE",
"891 0 OFFCURVE",
"903 0 CURVE SMOOTH",
"939 0 LINE SMOOTH",
"951 0 OFFCURVE",
"959 4 OFFCURVE",
"959 20 CURVE SMOOTH",
"959 734 LINE SMOOTH",
"959 950 OFFCURVE",
"811 1080 OFFCURVE",
"585 1080 CURVE SMOOTH",
"395 1080 OFFCURVE",
"261 986 OFFCURVE",
"177 862 CURVE SMOOTH",
"169 852 OFFCURVE",
"171 846 OFFCURVE",
"177 842 CURVE SMOOTH",
"225 812 LINE SMOOTH",
"233 806 OFFCURVE",
"237 810 OFFCURVE",
"245 820 CURVE SMOOTH",
"335 940 OFFCURVE",
"443 1004 OFFCURVE",
"581 1004 CURVE SMOOTH",
"761 1004 OFFCURVE",
"879 896 OFFCURVE",
"879 726 CURVE SMOOTH",
"879 664 LINE SMOOTH",
"879 646 OFFCURVE",
"867 636 OFFCURVE",
"845 634 CURVE SMOOTH",
"635 616 LINE SMOOTH",
"307 588 OFFCURVE",
"141 472 OFFCURVE",
"141 270 CURVE SMOOTH",
"141 90 OFFCURVE",
"271 -20 OFFCURVE",
"481 -20 CURVE SMOOTH",
"629 -20 OFFCURVE",
"751 34 OFFCURVE",
"861 144 CURVE SMOOTH"
);
},
{
closed = 1;
nodes = (
"879 342 LINE SMOOTH",
"879 282 OFFCURVE",
"839 214 OFFCURVE",
"765 154 CURVE SMOOTH",
"689 94 OFFCURVE",
"591 56 OFFCURVE",
"493 56 CURVE SMOOTH",
"331 56 OFFCURVE",
"225 138 OFFCURVE",
"225 276 CURVE SMOOTH",
"225 430 OFFCURVE",
"359 522 OFFCURVE",
"673 546 CURVE SMOOTH",
"851 560 LINE SMOOTH",
"869 562 OFFCURVE",
"879 554 OFFCURVE",
"879 532 CURVE SMOOTH"
);
}
);
};
guideLines = (
{
position = "{393, 208}";
showMeasurement = 1;
}
);
hints = (
{
horizontal = 1;
place = "{7662, 362}";
type = Stem;
}
);
layerId = "91AB5BCA-6A50-42DA-B2F7-8181BF189245";
rightMetricsKey = "=n";
paths = (
{
closed = 1;
nodes = (
"619 -20 OFFCURVE",
"767 28 OFFCURVE",
"857 200 CURVE",
"861 0 LINE",
"933 0 LINE",
"933 716 LINE SMOOTH",
"933 926 OFFCURVE",
"783 1054 OFFCURVE",
"563 1054 CURVE SMOOTH",
"323 1054 OFFCURVE",
"197 904 OFFCURVE",
"187 758 CURVE",
"271 758 LINE",
"293 900 OFFCURVE",
"409 978 OFFCURVE",
"559 978 CURVE SMOOTH",
"735 978 OFFCURVE",
"855 880 OFFCURVE",
"855 714 CURVE SMOOTH",
"855 614 LINE",
"617 606 LINE SMOOTH",
"273 594 OFFCURVE",
"135 496 OFFCURVE",
"135 264 CURVE SMOOTH",
"135 88 OFFCURVE",
"263 -20 OFFCURVE",
"467 -20 CURVE SMOOTH"
);
},
{
closed = 1;
nodes = (
"321 54 OFFCURVE",
"217 134 OFFCURVE",
"217 270 CURVE SMOOTH",
"217 450 OFFCURVE",
"325 526 OFFCURVE",
"655 532 CURVE SMOOTH",
"855 536 LINE",
"855 334 LINE SMOOTH",
"855 194 OFFCURVE",
"651 54 OFFCURVE",
"479 54 CURVE SMOOTH"
);
}
);
width = 1103;
}
);
leftKerningGroup = o;
leftMetricsKey = "=|e+5";
rightKerningGroup = n;
rightMetricsKey = "=n";
unicode = 0061;
},
{
glyphname = ae;
lastChange = "2019-05-07 21:40:22 +0000";
layers = (
{
anchors = (
{
name = top;
position = "{909, 1034}";
}
);
background = {
anchors = (
{
name = top;
position = "{895, 1060}";
}
);
paths = (
{
closed = 1;
nodes = (
"1739 458 LINE SMOOTH",
"1773 460 OFFCURVE",
"1775 474 OFFCURVE",
"1775 508 CURVE SMOOTH",
"1775 870 OFFCURVE",
"1545 1080 OFFCURVE",
"1231 1080 CURVE SMOOTH",
"1127 1080 OFFCURVE",
"1027 1052 OFFCURVE",
"941 1000 CURVE",
"865 1050 OFFCURVE",
"747 1078 OFFCURVE",
"569 1080 CURVE SMOOTH",
"263 1080 OFFCURVE",
"149 998 OFFCURVE",
"73 842 CURVE SMOOTH",
"63 820 OFFCURVE",
"69 782 OFFCURVE",
"87 778 CURVE SMOOTH",
"349 726 LINE SMOOTH",
"385 720 OFFCURVE",
"393 722 OFFCURVE",
"403 748 CURVE",
"437 822 OFFCURVE",
"503 842 OFFCURVE",
"559 842 CURVE SMOOTH",
"639 842 OFFCURVE",
"677 800 OFFCURVE",
"677 726 CURVE SMOOTH",
"677 692 LINE SMOOTH",
"677 668 OFFCURVE",
"657 664 OFFCURVE",
"641 664 CURVE",
"595 662 LINE SMOOTH",
"211 644 OFFCURVE",
"19 500 OFFCURVE",
"19 286 CURVE SMOOTH",
"19 104 OFFCURVE",
"139 -20 OFFCURVE",
"365 -20 CURVE SMOOTH",
"549 -20 OFFCURVE",
"679 24 OFFCURVE",
"801 142 CURVE SMOOTH",
"809 150 OFFCURVE",
"815 150 OFFCURVE",
"823 142 CURVE SMOOTH",
"923 40 OFFCURVE",
"1071 -20 OFFCURVE",
"1239 -20 CURVE SMOOTH",
"1463 -20 OFFCURVE",
"1599 34 OFFCURVE",
"1743 236 CURVE",
"1761 258 OFFCURVE",
"1755 276 OFFCURVE",
"1735 284 CURVE SMOOTH",
"1553 358 LINE SMOOTH",
"1527 368 OFFCURVE",
"1521 366 OFFCURVE",
"1511 356 CURVE SMOOTH",
"1423 270 OFFCURVE",
"1361 244 OFFCURVE",
"1293 244 CURVE SMOOTH",
"1177 244 OFFCURVE",
"1087 302 OFFCURVE",
"1087 424 CURVE SMOOTH",
"1087 448 OFFCURVE",
"1097 458 OFFCURVE",
"1117 458 CURVE SMOOTH"
);
},
{
closed = 1;
nodes = (
"1349 846 OFFCURVE",
"1387 744 OFFCURVE",
"1387 692 CURVE SMOOTH",
"1387 668 OFFCURVE",
"1379 664 OFFCURVE",
"1353 664 CURVE SMOOTH",
"1093 666 LINE",
"1091 790 OFFCURVE",
"1167 846 OFFCURVE",
"1249 846 CURVE SMOOTH"
);
},
{
closed = 1;
nodes = (
"677 320 LINE SMOOTH",
"677 254 OFFCURVE",
"603 216 OFFCURVE",
"527 216 CURVE SMOOTH",
"449 216 OFFCURVE",
"407 254 OFFCURVE",
"407 312 CURVE SMOOTH",
"407 410 OFFCURVE",
"537 460 OFFCURVE",
"613 466 CURVE SMOOTH",
"641 468 LINE SMOOTH",
"665 468 OFFCURVE",
"677 456 OFFCURVE",
"677 432 CURVE SMOOTH"
);
}
);
};
layerId = "258ED206-D907-4350-8EBA-CBDDA1C16BF7";
paths = (
{
closed = 1;
nodes = (
"1767 446 LINE",
"1767 830 OFFCURVE",
"1543 1054 OFFCURVE",
"1237 1054 CURVE SMOOTH",
"1137 1054 OFFCURVE",
"1039 1026 OFFCURVE",
"955 976 CURVE",
"881 1024 OFFCURVE",
"765 1052 OFFCURVE",
"591 1054 CURVE SMOOTH",
"279 1054 OFFCURVE",
"159 954 OFFCURVE",
"81 766 CURVE",
"417 700 LINE",
"453 796 OFFCURVE",
"523 820 OFFCURVE",
"583 820 CURVE SMOOTH",
"661 820 OFFCURVE",
"697 780 OFFCURVE",
"697 708 CURVE SMOOTH",
"697 650 LINE",
"617 646 LINE SMOOTH",
"243 628 OFFCURVE",
"55 488 OFFCURVE",
"55 278 CURVE SMOOTH",
"55 102 OFFCURVE",
"173 -20 OFFCURVE",
"393 -20 CURVE SMOOTH",
"573 -20 OFFCURVE",
"699 24 OFFCURVE",
"819 138 CURVE SMOOTH",
"825 146 OFFCURVE",
"831 146 OFFCURVE",
"839 138 CURVE SMOOTH",
"937 40 OFFCURVE",
"1081 -20 OFFCURVE",
"1245 -20 CURVE SMOOTH",
"1473 -20 OFFCURVE",
"1613 40 OFFCURVE",
"1761 264 CURVE",
"1525 360 LINE",
"1433 268 OFFCURVE",
"1369 238 OFFCURVE",
"1297 238 CURVE SMOOTH",
"1185 238 OFFCURVE",
"1097 304 OFFCURVE",
"1097 446 CURVE"
);
},
{
closed = 1;
nodes = (
"1353 824 OFFCURVE",
"1389 708 OFFCURVE",
"1389 648 CURVE",
"1103 650 LINE",
"1101 770 OFFCURVE",
"1175 824 OFFCURVE",
"1255 824 CURVE SMOOTH"
);
},
{
closed = 1;
nodes = (
"697 312 LINE SMOOTH",
"697 248 OFFCURVE",
"625 210 OFFCURVE",
"551 210 CURVE SMOOTH",
"475 210 OFFCURVE",
"435 248 OFFCURVE",
"435 304 CURVE SMOOTH",
"435 400 OFFCURVE",
"561 448 OFFCURVE",
"635 454 CURVE SMOOTH",
"697 458 LINE"
);
}
);
width = 1817;
},
{
anchors = (
{
name = top;
position = "{925, 1034}";
}
);
background = {
anchors = (
{
name = top;
position = "{951, 1060}";
}
);
paths = (
{
closed = 1;
nodes = (
"1771 508 LINE SMOOTH",
"1799 508 OFFCURVE",
"1807 522 OFFCURVE",
"1807 548 CURVE SMOOTH",
"1807 888 OFFCURVE",
"1623 1080 OFFCURVE",
"1349 1080 CURVE SMOOTH",
"1161 1080 OFFCURVE",
"1017 1000 OFFCURVE",
"937 842 CURVE",
"897 1002 OFFCURVE",
"785 1080 OFFCURVE",
"587 1080 CURVE SMOOTH",
"417 1080 OFFCURVE",
"263 1000 OFFCURVE",
"177 862 CURVE SMOOTH",
"171 852 OFFCURVE",
"171 846 OFFCURVE",
"177 842 CURVE SMOOTH",
"221 812 LINE SMOOTH",
"229 806 OFFCURVE",
"233 808 OFFCURVE",
"243 820 CURVE SMOOTH",
"335 940 OFFCURVE",
"443 1004 OFFCURVE",
"571 1004 CURVE SMOOTH",
"771 1004 OFFCURVE",
"879 896 OFFCURVE",
"879 726 CURVE SMOOTH",
"879 664 LINE SMOOTH",
"879 646 OFFCURVE",
"867 636 OFFCURVE",
"843 634 CURVE SMOOTH",
"619 616 LINE SMOOTH",
"293 588 OFFCURVE",
"141 468 OFFCURVE",
"141 272 CURVE SMOOTH",
"141 90 OFFCURVE",
"265 -20 OFFCURVE",
"473 -20 CURVE SMOOTH",
"735 -20 OFFCURVE",
"851 124 OFFCURVE",
"923 216 CURVE SMOOTH",
"927 222 OFFCURVE",
"929 222 OFFCURVE",
"933 216 CURVE SMOOTH",
"991 130 OFFCURVE",
"1099 -20 OFFCURVE",
"1343 -20 CURVE SMOOTH",
"1537 -20 OFFCURVE",
"1699 74 OFFCURVE",
"1767 200 CURVE SMOOTH",
"1773 212 OFFCURVE",
"1771 216 OFFCURVE",
"1765 220 CURVE SMOOTH",
"1721 250 LINE SMOOTH",
"1711 256 OFFCURVE",
"1709 254 OFFCURVE",
"1699 242 CURVE SMOOTH",
"1641 162 OFFCURVE",
"1555 56 OFFCURVE",
"1347 56 CURVE SMOOTH",
"1123 56 OFFCURVE",
"947 268 OFFCURVE",
"947 456 CURVE SMOOTH",
"947 498 OFFCURVE",
"953 506 OFFCURVE",
"987 506 CURVE SMOOTH"
);
},
{
closed = 1;
nodes = (
"1563 1004 OFFCURVE",
"1721 828 OFFCURVE",
"1721 612 CURVE SMOOTH",
"1721 588 OFFCURVE",
"1719 580 OFFCURVE",
"1687 580 CURVE SMOOTH",
"951 582 LINE",
"953 836 OFFCURVE",
"1123 1004 OFFCURVE",
"1343 1004 CURVE SMOOTH"
);
},
{
closed = 1;
nodes = (
"879 354 LINE",
"879 198 OFFCURVE",
"707 68 OFFCURVE",
"493 58 CURVE SMOOTH",
"325 50 OFFCURVE",
"227 142 OFFCURVE",
"227 276 CURVE SMOOTH",
"227 430 OFFCURVE",
"359 520 OFFCURVE",
"659 544 CURVE SMOOTH",
"849 558 LINE SMOOTH",
"875 560 OFFCURVE",
"879 550 OFFCURVE",
"879 530 CURVE SMOOTH"
);
}
);
};
hints = (
{
horizontal = 1;
place = "{7662, 362}";
type = Stem;
}
);
layerId = "91AB5BCA-6A50-42DA-B2F7-8181BF189245";
paths = (
{
closed = 1;
nodes = (
"1761 496 LINE",
"1761 852 OFFCURVE",
"1581 1054 OFFCURVE",
"1313 1054 CURVE SMOOTH",
"1131 1054 OFFCURVE",
"991 976 OFFCURVE",
"913 820 CURVE",
"873 976 OFFCURVE",
"763 1054 OFFCURVE",
"571 1054 CURVE SMOOTH",
"401 1054 OFFCURVE",
"249 970 OFFCURVE",
"163 826 CURVE",
"223 784 LINE",
"317 910 OFFCURVE",
"427 978 OFFCURVE",
"555 978 CURVE SMOOTH",
"751 978 OFFCURVE",
"855 874 OFFCURVE",
"855 708 CURVE SMOOTH",
"855 620 LINE",
"601 600 LINE SMOOTH",
"285 574 OFFCURVE",
"135 456 OFFCURVE",
"135 266 CURVE SMOOTH",
"135 88 OFFCURVE",
"257 -20 OFFCURVE",
"459 -20 CURVE SMOOTH",
"715 -20 OFFCURVE",
"829 120 OFFCURVE",
"899 210 CURVE SMOOTH",
"903 216 OFFCURVE",
"905 216 OFFCURVE",
"909 210 CURVE SMOOTH",
"965 126 OFFCURVE",
"1069 -20 OFFCURVE",
"1307 -20 CURVE SMOOTH",
"1501 -20 OFFCURVE",
"1661 78 OFFCURVE",
"1729 208 CURVE",
"1667 252 LINE",
"1609 166 OFFCURVE",
"1521 54 OFFCURVE",
"1311 54 CURVE SMOOTH",
"1093 54 OFFCURVE",
"921 286 OFFCURVE",
"921 494 CURVE"
);
},
{
closed = 1;
nodes = (
"1523 978 OFFCURVE",
"1677 794 OFFCURVE",
"1677 566 CURVE",
"925 568 LINE",
"927 816 OFFCURVE",
"1093 978 OFFCURVE",
"1307 978 CURVE SMOOTH"
);
},
{
closed = 1;
nodes = (
"855 346 LINE",
"855 194 OFFCURVE",
"687 66 OFFCURVE",
"479 56 CURVE SMOOTH",
"315 48 OFFCURVE",
"219 138 OFFCURVE",
"219 270 CURVE SMOOTH",
"219 420 OFFCURVE",
"349 508 OFFCURVE",
"641 530 CURVE SMOOTH",
"855 546 LINE"
);
}
);
width = 1891;
}
);
leftKerningGroup = o;
leftMetricsKey = a;
rightKerningGroup = e;
rightMetricsKey = e;
unicode = 00E6;
},
{
glyphname = b;
lastChange = "2019-05-07 21:27:06 +0000";
layers = (
{
background = {
paths = (
{
closed = 1;
nodes = (
"328 0 OFFCURVE",
"344 14 OFFCURVE",
"354 46 CURVE SMOOTH",
"386 140 LINE SMOOTH",
"392 156 OFFCURVE",
"400 158 OFFCURVE",
"412 146 CURVE SMOOTH",
"490 44 OFFCURVE",
"598 -20 OFFCURVE",
"724 -20 CURVE SMOOTH",
"1016 -20 OFFCURVE",
"1178 198 OFFCURVE",
"1178 538 CURVE SMOOTH",
"1178 872 OFFCURVE",
"1026 1080 OFFCURVE",
"766 1080 CURVE SMOOTH",
"676 1080 OFFCURVE",
"594 1054 OFFCURVE",
"512 976 CURVE SMOOTH",
"492 960 OFFCURVE",
"474 960 OFFCURVE",
"474 992 CURVE SMOOTH",
"474 1442 LINE SMOOTH",
"474 1468 OFFCURVE",
"462 1484 OFFCURVE",
"438 1484 CURVE SMOOTH",
"112 1484 LINE SMOOTH",
"90 1484 OFFCURVE",
"74 1468 OFFCURVE",
"74 1438 CURVE SMOOTH",
"74 50 LINE SMOOTH",
"74 16 OFFCURVE",
"86 0 OFFCURVE",
"128 0 CURVE SMOOTH",
"302 0 LINE SMOOTH"
);
},
{
closed = 1;
nodes = (
"514 806 OFFCURVE",
"560 836 OFFCURVE",
"622 836 CURVE SMOOTH",
"720 836 OFFCURVE",
"774 762 OFFCURVE",
"774 530 CURVE SMOOTH",
"774 296 OFFCURVE",
"720 214 OFFCURVE",
"616 214 CURVE SMOOTH",
"532 214 OFFCURVE",
"474 270 OFFCURVE",
"474 370 CURVE SMOOTH",
"474 756 LINE"
);
}
);
};
layerId = "258ED206-D907-4350-8EBA-CBDDA1C16BF7";
paths = (
{
closed = 1;
nodes = (
"1028 -20 OFFCURVE",
"1186 194 OFFCURVE",
"1186 524 CURVE SMOOTH",
"1186 850 OFFCURVE",
"1038 1054 OFFCURVE",
"784 1054 CURVE SMOOTH",
"682 1054 OFFCURVE",
"570 1004 OFFCURVE",
"500 878 CURVE",
"500 1486 LINE",
"110 1486 LINE",
"110 0 LINE",
"384 0 LINE",
"424 144 LINE",
"480 32 OFFCURVE",
"614 -20 OFFCURVE",
"742 -20 CURVE SMOOTH"
);
},
{
closed = 1;
nodes = (
"552 252 OFFCURVE",
"500 336 OFFCURVE",
"500 528 CURVE",
"500 528 LINE",
"500 706 OFFCURVE",
"556 780 OFFCURVE",
"644 780 CURVE SMOOTH",
"724 780 OFFCURVE",
"792 736 OFFCURVE",
"792 528 CURVE SMOOTH",
"792 320 OFFCURVE",
"730 252 OFFCURVE",
"638 252 CURVE"
);
}
);
width = 1226;
},
{
background = {
paths = (
{
closed = 1;
nodes = (
"244 0 OFFCURVE",
"250 6 OFFCURVE",
"250 26 CURVE SMOOTH",
"254 128 LINE SMOOTH",
"254 146 OFFCURVE",
"264 148 OFFCURVE",
"274 134 CURVE SMOOTH",
"298 100 OFFCURVE",
"398 -20 OFFCURVE",
"604 -20 CURVE SMOOTH",
"892 -20 OFFCURVE",
"1060 192 OFFCURVE",
"1060 534 CURVE SMOOTH",
"1060 832 OFFCURVE",
"932 1080 OFFCURVE",
"626 1080 CURVE SMOOTH",
"414 1080 OFFCURVE",
"302 964 OFFCURVE",
"282 946 CURVE SMOOTH",
"264 930 OFFCURVE",
"256 930 OFFCURVE",
"256 956 CURVE SMOOTH",
"256 1462 LINE SMOOTH",
"256 1478 OFFCURVE",
"252 1484 OFFCURVE",
"240 1484 CURVE SMOOTH",
"194 1484 LINE SMOOTH",
"182 1484 OFFCURVE",
"176 1478 OFFCURVE",
"176 1464 CURVE SMOOTH",
"176 26 LINE SMOOTH",
"176 6 OFFCURVE",
"182 0 OFFCURVE",
"198 0 CURVE SMOOTH",
"220 0 LINE SMOOTH"
);
},
{
closed = 1;
nodes = (
"336 926 OFFCURVE",
"464 1004 OFFCURVE",
"612 1004 CURVE SMOOTH",
"848 1004 OFFCURVE",
"974 818 OFFCURVE",
"974 534 CURVE SMOOTH",
"974 206 OFFCURVE",
"804 56 OFFCURVE",
"596 56 CURVE SMOOTH",
"428 56 OFFCURVE",
"256 192 OFFCURVE",
"256 354 CURVE SMOOTH",
"256 830 LINE"
);
}
);
};
layerId = "91AB5BCA-6A50-42DA-B2F7-8181BF189245";
paths = (
{
closed = 1;
nodes = (
"890 -20 OFFCURVE",
"1032 188 OFFCURVE",
"1032 520 CURVE SMOOTH",
"1032 812 OFFCURVE",
"906 1054 OFFCURVE",
"608 1054 CURVE SMOOTH",
"348 1054 OFFCURVE",
"268 884 OFFCURVE",
"248 840 CURVE",
"248 1486 LINE",
"170 1486 LINE",
"170 0 LINE",
"240 0 LINE",
"246 212 LINE",
"262 164 OFFCURVE",
"332 -20 OFFCURVE",
"608 -20 CURVE SMOOTH"
);
},
{
closed = 1;
nodes = (
"392 54 OFFCURVE",
"252 208 OFFCURVE",
"248 356 CURVE",
"248 678 LINE",
"256 722 OFFCURVE",
"286 978 OFFCURVE",
"600 978 CURVE SMOOTH",
"834 978 OFFCURVE",
"948 798 OFFCURVE",
"948 520 CURVE SMOOTH",
"948 200 OFFCURVE",
"810 54 OFFCURVE",
"606 54 CURVE SMOOTH"
);
}
);
width = 1162;
}
);
leftKerningGroup = n;
leftMetricsKey = n;
rightKerningGroup = o;
rightMetricsKey = o;
unicode = 0062;
},
{
glyphname = c;
lastChange = "2019-05-07 21:47:24 +0000";
layers = (
{
anchors = (
{
name = bottom;
position = "{560, 0}";
},
{
name = top;
position = "{559, 1034}";
}
);
background = {
anchors = (
{
name = bottom;
position = "{536, 0}";
},
{
name = top;
position = "{538, 1060}";
}
);
paths = (
{
closed = 1;
nodes = (
"222 1080 OFFCURVE",
"-16 856 OFFCURVE",
"-16 526 CURVE SMOOTH",
"-16 202 OFFCURVE",
"218 -20 OFFCURVE",
"538 -20 CURVE SMOOTH",
"862 -20 OFFCURVE",
"994 210 OFFCURVE",
"1014 314 CURVE SMOOTH",
"1022 344 OFFCURVE",
"1018 356 OFFCURVE",
"996 360 CURVE SMOOTH",
"808 396 LINE SMOOTH",
"782 400 OFFCURVE",
"774 396 OFFCURVE",
"768 386 CURVE SMOOTH",
"718 296 OFFCURVE",
"680 228 OFFCURVE",
"570 228 CURVE SMOOTH",
"456 228 OFFCURVE",
"388 308 OFFCURVE",
"388 530 CURVE SMOOTH",
"388 744 OFFCURVE",
"450 828 OFFCURVE",
"548 828 CURVE SMOOTH",
"644 828 OFFCURVE",
"662 752 OFFCURVE",
"670 702 CURVE SMOOTH",
"674 680 OFFCURVE",
"682 672 OFFCURVE",
"704 674 CURVE SMOOTH",
"978 688 LINE SMOOTH",
"1012 690 OFFCURVE",
"1024 706 OFFCURVE",
"1014 740 CURVE SMOOTH",
"982 894 OFFCURVE",
"824 1080 OFFCURVE",
"538 1080 CURVE SMOOTH"
);
}
);
};
guideLines = (
{
angle = -0.5577;
position = "{-490, 167}";
},
{
position = "{514, 123}";
},
{
angle = 3.769;
position = "{409, 307}";
}
);
layerId = "258ED206-D907-4350-8EBA-CBDDA1C16BF7";
rightMetricsKey = "=o+10";
paths = (
{
closed = 1;
nodes = (
"262 1054 OFFCURVE",
"40 832 OFFCURVE",
"40 512 CURVE SMOOTH",
"40 196 OFFCURVE",
"266 -20 OFFCURVE",
"562 -20 CURVE SMOOTH",
"844 -20 OFFCURVE",
"1010 180 OFFCURVE",
"1010 400 CURVE",
"704 400 LINE",
"698 358 OFFCURVE",
"670 248 OFFCURVE",
"572 248 CURVE SMOOTH",
"472 248 OFFCURVE",
"398 346 OFFCURVE",
"398 516 CURVE SMOOTH",
"398 682 OFFCURVE",
"464 766 OFFCURVE",
"564 766 CURVE SMOOTH",
"664 766 OFFCURVE",
"692 670 OFFCURVE",
"700 612 CURVE",
"1016 612 LINE",
"1010 844 OFFCURVE",
"854 1054 OFFCURVE",
"562 1054 CURVE SMOOTH"
);
}
);
width = 1066;
},
{
anchors = (
{
name = bottom;
position = "{580, 0}";
},
{
name = top;
position = "{578, 1034}";
}
);
background = {
anchors = (
{
name = bottom;
position = "{596, 0}";
},
{
name = top;
position = "{592, 1060}";
}
);
paths = (
{
closed = 1;
nodes = (
"312 1080 OFFCURVE",
"114 850 OFFCURVE",
"114 526 CURVE SMOOTH",
"114 200 OFFCURVE",
"308 -20 OFFCURVE",
"594 -20 CURVE SMOOTH",
"764 -20 OFFCURVE",
"908 58 OFFCURVE",
"1004 214 CURVE SMOOTH",
"1008 222 OFFCURVE",
"1006 230 OFFCURVE",
"1000 234 CURVE SMOOTH",
"954 264 LINE SMOOTH",
"946 270 OFFCURVE",
"942 268 OFFCURVE",
"934 256 CURVE SMOOTH",
"846 120 OFFCURVE",
"738 56 OFFCURVE",
"602 56 CURVE SMOOTH",
"358 56 OFFCURVE",
"198 246 OFFCURVE",
"198 530 CURVE SMOOTH",
"198 814 OFFCURVE",
"358 1004 OFFCURVE",
"604 1004 CURVE SMOOTH",
"716 1004 OFFCURVE",
"806 956 OFFCURVE",
"916 822 CURVE SMOOTH",
"924 812 OFFCURVE",
"932 810 OFFCURVE",
"938 814 CURVE SMOOTH",
"986 846 LINE SMOOTH",
"992 850 OFFCURVE",
"994 854 OFFCURVE",
"986 866 CURVE SMOOTH",
"894 998 OFFCURVE",
"772 1080 OFFCURVE",
"594 1080 CURVE SMOOTH"
);
}
);
};
layerId = "91AB5BCA-6A50-42DA-B2F7-8181BF189245";
rightMetricsKey = "=o+20";
paths = (
{
closed = 1;
nodes = (
"298 1054 OFFCURVE",
"130 830 OFFCURVE",
"130 512 CURVE SMOOTH",
"130 196 OFFCURVE",
"298 -20 OFFCURVE",
"578 -20 CURVE SMOOTH",
"748 -20 OFFCURVE",
"922 56 OFFCURVE",
"970 276 CURVE",
"886 276 LINE",
"852 122 OFFCURVE",
"726 54 OFFCURVE",
"586 54 CURVE SMOOTH",
"352 54 OFFCURVE",
"212 238 OFFCURVE",
"212 516 CURVE SMOOTH",
"212 792 OFFCURVE",
"356 978 OFFCURVE",
"588 978 CURVE SMOOTH",
"718 978 OFFCURVE",
"840 918 OFFCURVE",
"886 754 CURVE",
"970 758 LINE",
"928 966 OFFCURVE",
"752 1054 OFFCURVE",
"578 1054 CURVE SMOOTH"
);
}
);
width = 1120;
}
);
leftKerningGroup = o;
leftMetricsKey = o;
rightKerningGroup = o;
rightMetricsKey = "=o+20";
unicode = 0063;
},
{
glyphname = d;
lastChange = "2019-05-07 21:27:06 +0000";
layers = (
{
anchors = (
{
name = bottom;
position = "{596, 0}";
},
{
name = center;
position = "{596, 516}";
},
{
name = topright;
position = "{1154, 1034}";
}
);
background = {
anchors = (
{
name = bottom;
position = "{574, 0}";
},
{
name = center;
position = "{574, 530}";
},
{
name = topright;
position = "{1146, 1060}";
}
);
paths = (
{
closed = 1;
nodes = (
"1056 0 LINE SMOOTH",
"1098 0 OFFCURVE",
"1110 16 OFFCURVE",
"1110 50 CURVE SMOOTH",
"1110 1438 LINE SMOOTH",
"1110 1468 OFFCURVE",
"1094 1484 OFFCURVE",
"1072 1484 CURVE SMOOTH",
"748 1484 LINE SMOOTH",
"724 1484 OFFCURVE",
"712 1468 OFFCURVE",
"712 1442 CURVE SMOOTH",
"712 992 LINE SMOOTH",
"712 960 OFFCURVE",
"694 960 OFFCURVE",
"674 976 CURVE SMOOTH",
"592 1056 OFFCURVE",
"516 1080 OFFCURVE",
"426 1080 CURVE SMOOTH",
"206 1080 OFFCURVE",
"6 862 OFFCURVE",
"6 526 CURVE SMOOTH",
"6 164 OFFCURVE",
"170 -20 OFFCURVE",
"406 -20 CURVE SMOOTH",
"530 -20 OFFCURVE",
"608 20 OFFCURVE",
"686 92 CURVE SMOOTH",
"700 104 OFFCURVE",
"716 102 OFFCURVE",
"716 84 CURVE SMOOTH",
"716 46 LINE SMOOTH",
"716 12 OFFCURVE",
"740 0 OFFCURVE",
"766 0 CURVE SMOOTH"
);
},
{
closed = 1;
nodes = (
"710 352 LINE SMOOTH",
"710 274 OFFCURVE",
"648 220 OFFCURVE",
"570 220 CURVE SMOOTH",
"468 220 OFFCURVE",
"410 298 OFFCURVE",
"410 528 CURVE SMOOTH",
"410 760 OFFCURVE",
"476 832 OFFCURVE",
"570 832 CURVE SMOOTH",
"632 832 OFFCURVE",
"668 806 OFFCURVE",
"710 756 CURVE"
);
}
);
};
layerId = "258ED206-D907-4350-8EBA-CBDDA1C16BF7";
leftMetricsKey = "=o+10";
paths = (
{
closed = 1;
nodes = (
"662 -20 OFFCURVE",
"760 68 OFFCURVE",
"806 212 CURVE",
"852 0 LINE",
"1128 0 LINE",
"1128 1486 LINE",
"738 1486 LINE",
"738 916 LINE",
"674 1022 OFFCURVE",
"554 1054 OFFCURVE",
"452 1054 CURVE SMOOTH",
"198 1054 OFFCURVE",
"50 850 OFFCURVE",
"50 524 CURVE SMOOTH",
"50 194 OFFCURVE",
"208 -20 OFFCURVE",
"494 -20 CURVE SMOOTH"
);
},
{
closed = 1;
nodes = (
"498 252 OFFCURVE",
"426 320 OFFCURVE",
"426 528 CURVE SMOOTH",
"426 736 OFFCURVE",
"504 780 OFFCURVE",
"584 780 CURVE SMOOTH",
"670 780 OFFCURVE",
"738 728 OFFCURVE",
"738 568 CURVE",
"738 478 LINE",
"738 324 OFFCURVE",
"674 252 OFFCURVE",
"588 252 CURVE"
);
}
);
width = 1238;
},
{
anchors = (
{
name = bottom;
position = "{584, 0}";
},
{
name = center;
position = "{608, 516}";
},
{
name = topright;
position = "{1218, 1446}";
}
);
background = {
anchors = (
{
name = bottom;
position = "{600, 0}";
},
{
name = center;
position = "{624, 530}";
},
{
name = topright;
position = "{1250, 1484}";
}
);
paths = (
{
closed = 1;
nodes = (
"974 0 LINE SMOOTH",
"992 0 OFFCURVE",
"998 6 OFFCURVE",
"998 24 CURVE SMOOTH",
"998 1466 LINE SMOOTH",
"998 1478 OFFCURVE",
"992 1484 OFFCURVE",
"982 1484 CURVE SMOOTH",
"936 1484 LINE SMOOTH",
"922 1484 OFFCURVE",
"918 1478 OFFCURVE",
"918 1464 CURVE SMOOTH",
"918 986 LINE SMOOTH",
"918 960 OFFCURVE",
"914 952 OFFCURVE",
"890 972 CURVE SMOOTH",
"828 1020 OFFCURVE",
"742 1080 OFFCURVE",
"596 1080 CURVE SMOOTH",
"302 1080 OFFCURVE",
"110 850 OFFCURVE",
"110 510 CURVE SMOOTH",
"110 156 OFFCURVE",
"316 -20 OFFCURVE",
"572 -20 CURVE SMOOTH",
"764 -20 OFFCURVE",
"866 98 OFFCURVE",
"898 132 CURVE SMOOTH",
"914 148 OFFCURVE",
"922 146 OFFCURVE",
"922 124 CURVE SMOOTH",
"922 22 LINE SMOOTH",
"922 8 OFFCURVE",
"928 0 OFFCURVE",
"942 0 CURVE SMOOTH"
);
},
{
closed = 1;
nodes = (
"918 340 LINE SMOOTH",
"918 220 OFFCURVE",
"774 56 OFFCURVE",
"582 56 CURVE SMOOTH",
"378 56 OFFCURVE",
"194 200 OFFCURVE",
"194 518 CURVE SMOOTH",
"194 822 OFFCURVE",
"364 1004 OFFCURVE",
"598 1004 CURVE SMOOTH",
"720 1004 OFFCURVE",
"820 948 OFFCURVE",
"918 852 CURVE"
);
}
);
};
layerId = "91AB5BCA-6A50-42DA-B2F7-8181BF189245";
paths = (
{
closed = 1;
nodes = (
"830 -20 OFFCURVE",
"900 164 OFFCURVE",
"916 212 CURVE",
"922 0 LINE",
"992 0 LINE",
"992 1486 LINE",
"914 1486 LINE",
"914 856 LINE",
"894 900 OFFCURVE",
"796 1054 OFFCURVE",
"554 1054 CURVE SMOOTH",
"256 1054 OFFCURVE",
"130 812 OFFCURVE",
"130 520 CURVE SMOOTH",
"130 188 OFFCURVE",
"272 -20 OFFCURVE",
"554 -20 CURVE SMOOTH"
);
},
{
closed = 1;
nodes = (
"352 54 OFFCURVE",
"214 200 OFFCURVE",
"214 520 CURVE SMOOTH",
"214 798 OFFCURVE",
"328 978 OFFCURVE",
"562 978 CURVE SMOOTH",
"852 978 OFFCURVE",
"906 722 OFFCURVE",
"914 678 CURVE",
"914 356 LINE",
"910 208 OFFCURVE",
"770 54 OFFCURVE",
"556 54 CURVE SMOOTH"
);
}
);
width = 1162;
}
);
leftKerningGroup = o;
leftMetricsKey = o;
rightKerningGroup = u;
rightMetricsKey = "=|n";
unicode = 0064;
},
{
glyphname = eth;
lastChange = "2019-05-07 21:27:06 +0000";
layers = (
{
background = {
paths = (
{
closed = 1;
nodes = (
"1120 880 OFFCURVE",
"970 1164 OFFCURVE",
"722 1338 CURVE",
"814 1390 LINE SMOOTH",
"826 1398 OFFCURVE",
"828 1408 OFFCURVE",
"822 1418 CURVE SMOOTH",
"780 1494 LINE SMOOTH",
"772 1504 OFFCURVE",
"758 1508 OFFCURVE",
"744 1498 CURVE SMOOTH",
"594 1414 LINE",
"520 1452 OFFCURVE",
"438 1480 OFFCURVE",
"352 1500 CURVE SMOOTH",
"328 1506 OFFCURVE",
"324 1504 OFFCURVE",
"310 1492 CURVE SMOOTH",
"142 1354 LINE SMOOTH",
"128 1342 OFFCURVE",
"134 1330 OFFCURVE",
"146 1326 CURVE SMOOTH",
"206 1306 OFFCURVE",
"260 1282 OFFCURVE",
"310 1256 CURVE",
"168 1178 LINE SMOOTH",
"154 1172 OFFCURVE",
"148 1156 OFFCURVE",
"164 1134 CURVE SMOOTH",
"194 1086 LINE SMOOTH",
"208 1064 OFFCURVE",
"220 1060 OFFCURVE",
"242 1072 CURVE SMOOTH",
"434 1180 LINE",
"490 1138 OFFCURVE",
"528 1102 OFFCURVE",
"566 1050 CURVE SMOOTH",
"570 1044 OFFCURVE",
"570 1040 OFFCURVE",
"562 1040 CURVE SMOOTH",
"246 1040 OFFCURVE",
"4 818 OFFCURVE",
"4 504 CURVE SMOOTH",
"4 206 OFFCURVE",
"232 -20 OFFCURVE",
"560 -20 CURVE SMOOTH",
"894 -20 OFFCURVE",
"1120 204 OFFCURVE",
"1120 564 CURVE SMOOTH"
);
},
{
closed = 1;
nodes = (
"456 236 OFFCURVE",
"408 324 OFFCURVE",
"408 512 CURVE SMOOTH",
"408 702 OFFCURVE",
"456 792 OFFCURVE",
"562 792 CURVE SMOOTH",
"670 792 OFFCURVE",
"716 702 OFFCURVE",
"716 512 CURVE SMOOTH",
"716 326 OFFCURVE",
"670 236 OFFCURVE",
"562 236 CURVE SMOOTH"
);
}
);
};
layerId = "258ED206-D907-4350-8EBA-CBDDA1C16BF7";
paths = (
{
closed = 1;
nodes = (
"1128 858 OFFCURVE",
"982 1134 OFFCURVE",
"740 1304 CURVE",
"848 1366 LINE",
"788 1474 LINE",
"616 1378 LINE",
"536 1418 OFFCURVE",
"448 1446 OFFCURVE",
"354 1468 CURVE",
"154 1302 LINE",
"220 1280 OFFCURVE",
"282 1254 OFFCURVE",
"340 1224 CURVE",
"178 1136 LINE",
"244 1030 LINE",
"460 1150 LINE",
"514 1110 OFFCURVE",
"552 1074 OFFCURVE",
"588 1024 CURVE SMOOTH",
"592 1018 OFFCURVE",
"592 1014 OFFCURVE",
"584 1014 CURVE SMOOTH",
"276 1014 OFFCURVE",
"40 798 OFFCURVE",
"40 492 CURVE SMOOTH",
"40 200 OFFCURVE",
"264 -20 OFFCURVE",
"582 -20 CURVE SMOOTH",
"908 -20 OFFCURVE",
"1128 198 OFFCURVE",
"1128 550 CURVE SMOOTH"
);
},
{
closed = 1;
nodes = (
"482 230 OFFCURVE",
"434 316 OFFCURVE",
"434 500 CURVE SMOOTH",
"434 684 OFFCURVE",
"482 772 OFFCURVE",
"584 772 CURVE SMOOTH",
"690 772 OFFCURVE",
"734 684 OFFCURVE",
"734 500 CURVE SMOOTH",
"734 318 OFFCURVE",
"690 230 OFFCURVE",
"584 230 CURVE SMOOTH"
);
}
);
width = 1168;
},
{
background = {
paths = (
{
closed = 1;
nodes = (
"1106 844 OFFCURVE",
"996 1126 OFFCURVE",
"684 1338 CURVE",
"864 1438 LINE SMOOTH",
"870 1442 OFFCURVE",
"870 1448 OFFCURVE",
"866 1454 CURVE SMOOTH",
"842 1498 LINE SMOOTH",
"840 1502 OFFCURVE",
"830 1504 OFFCURVE",
"824 1500 CURVE SMOOTH",
"616 1384 LINE",
"546 1426 OFFCURVE",
"472 1462 OFFCURVE",
"384 1498 CURVE SMOOTH",
"366 1506 OFFCURVE",
"360 1502 OFFCURVE",
"348 1494 CURVE SMOOTH",
"312 1470 LINE SMOOTH",
"302 1462 OFFCURVE",
"304 1452 OFFCURVE",
"314 1448 CURVE SMOOTH",
"398 1414 OFFCURVE",
"472 1378 OFFCURVE",
"540 1340 CURVE",
"230 1166 LINE SMOOTH",
"224 1162 OFFCURVE",
"220 1156 OFFCURVE",
"228 1144 CURVE SMOOTH",
"246 1116 LINE SMOOTH",
"254 1104 OFFCURVE",
"260 1100 OFFCURVE",
"272 1106 CURVE SMOOTH",
"608 1296 LINE",
"780 1180 OFFCURVE",
"886 1046 OFFCURVE",
"948 902 CURVE",
"862 988 OFFCURVE",
"744 1040 OFFCURVE",
"602 1040 CURVE SMOOTH",
"330 1040 OFFCURVE",
"134 816 OFFCURVE",
"134 504 CURVE SMOOTH",
"134 196 OFFCURVE",
"328 -20 OFFCURVE",
"616 -20 CURVE SMOOTH",
"924 -20 OFFCURVE",
"1106 202 OFFCURVE",
"1106 510 CURVE SMOOTH"
);
},
{
closed = 1;
nodes = (
"392 56 OFFCURVE",
"218 256 OFFCURVE",
"218 508 CURVE SMOOTH",
"218 760 OFFCURVE",
"392 964 OFFCURVE",
"622 964 CURVE SMOOTH",
"850 964 OFFCURVE",
"1022 762 OFFCURVE",
"1022 508 CURVE SMOOTH",
"1022 254 OFFCURVE",
"854 56 OFFCURVE",
"624 56 CURVE SMOOTH"
);
}
);
};
layerId = "91AB5BCA-6A50-42DA-B2F7-8181BF189245";
paths = (
{
closed = 1;
nodes = (
"1078 822 OFFCURVE",
"970 1098 OFFCURVE",
"666 1304 CURVE",
"848 1406 LINE",
"816 1470 LINE",
"600 1350 LINE",
"526 1392 OFFCURVE",
"448 1432 OFFCURVE",
"356 1468 CURVE",
"284 1420 LINE",
"374 1384 OFFCURVE",
"454 1348 OFFCURVE",
"526 1306 CURVE",
"212 1132 LINE",
"250 1070 LINE",
"592 1264 LINE",
"760 1150 OFFCURVE",
"862 1020 OFFCURVE",
"922 880 CURVE",
"840 964 OFFCURVE",
"724 1014 OFFCURVE",
"586 1014 CURVE SMOOTH",
"320 1014 OFFCURVE",
"130 796 OFFCURVE",
"130 492 CURVE SMOOTH",
"130 192 OFFCURVE",
"318 -20 OFFCURVE",
"600 -20 CURVE SMOOTH",
"900 -20 OFFCURVE",
"1078 196 OFFCURVE",
"1078 498 CURVE SMOOTH"
);
},
{
closed = 1;
nodes = (
"380 54 OFFCURVE",
"212 250 OFFCURVE",
"212 496 CURVE SMOOTH",
"212 742 OFFCURVE",
"380 940 OFFCURVE",
"606 940 CURVE SMOOTH",
"828 940 OFFCURVE",
"996 742 OFFCURVE",
"996 496 CURVE SMOOTH",
"996 248 OFFCURVE",
"832 54 OFFCURVE",
"608 54 CURVE SMOOTH"
);
}
);
width = 1208;
}
);
leftKerningGroup = o;
leftMetricsKey = o;
rightKerningGroup = o;
rightMetricsKey = o;
unicode = 00F0;
},
{
glyphname = dcroat;
lastChange = "2019-05-07 21:27:06 +0000";
layers = (
{
background = {
components = (
{
name = d;
transform = "{1, 0, 0, 1, -38, 0}";
}
);
paths = (
{
closed = 1;
nodes = (
"1150 1360 OFFCURVE",
"1138 1374 OFFCURVE",
"1118 1374 CURVE SMOOTH",
"440 1374 LINE SMOOTH",
"420 1374 OFFCURVE",
"408 1360 OFFCURVE",
"408 1334 CURVE SMOOTH",
"408 1204 LINE SMOOTH",
"408 1174 OFFCURVE",
"418 1160 OFFCURVE",
"452 1160 CURVE SMOOTH",
"1092 1160 LINE SMOOTH",
"1132 1160 OFFCURVE",
"1150 1174 OFFCURVE",
"1150 1208 CURVE SMOOTH",
"1150 1338 LINE SMOOTH"
);
}
);
};
components = (
{
name = d;
}
);
layerId = "258ED206-D907-4350-8EBA-CBDDA1C16BF7";
paths = (
{
closed = 1;
nodes = (
"534 1340 LINE",
"534 1132 LINE",
"1258 1132 LINE",
"1258 1340 LINE"
);
}
);
width = 1318;
},
{
background = {
components = (
{
name = d;
transform = "{1, 0, 0, 1, 4, 0}";
}
);
paths = (
{
closed = 1;
nodes = (
"1162 1320 OFFCURVE",
"1158 1324 OFFCURVE",
"1152 1324 CURVE SMOOTH",
"594 1324 LINE SMOOTH",
"588 1324 OFFCURVE",
"584 1320 OFFCURVE",
"584 1310 CURVE SMOOTH",
"584 1270 LINE SMOOTH",
"584 1258 OFFCURVE",
"586 1254 OFFCURVE",
"598 1254 CURVE SMOOTH",
"1142 1254 LINE SMOOTH",
"1156 1254 OFFCURVE",
"1162 1258 OFFCURVE",
"1162 1270 CURVE SMOOTH",
"1162 1312 LINE SMOOTH"
);
}
);
};
components = (
{
name = d;
}
);
layerId = "91AB5BCA-6A50-42DA-B2F7-8181BF189245";
paths = (
{
closed = 1;
nodes = (
"568 1290 LINE",
"568 1222 LINE",
"1130 1222 LINE",
"1130 1290 LINE"
);
}
);
width = 1190;
}
);
leftKerningGroup = o;
leftMetricsKey = d;
unicode = 0111;
},
{
glyphname = e;
lastChange = "2019-05-07 21:55:50 +0000";
layers = (
{
anchors = (
{
name = bottom;
position = "{574, 0}";
},
{
name = ogonek;
position = "{824, 50}";
},
{
name = top;
position = "{568, 1034}";
}
);
background = {
anchors = (
{
name = bottom;
position = "{550, 0}";
},
{
name = ogonek;
position = "{808, 52}";
},
{
name = top;
position = "{544, 1060}";
}
);
paths = (
{
closed = 1;
nodes = (
"396 448 OFFCURVE",
"406 458 OFFCURVE",
"426 458 CURVE SMOOTH",
"1048 458 LINE SMOOTH",
"1082 460 OFFCURVE",
"1084 474 OFFCURVE",
"1084 508 CURVE SMOOTH",
"1084 870 OFFCURVE",
"854 1080 OFFCURVE",
"540 1080 CURVE SMOOTH",
"244 1080 OFFCURVE",
"-16 852 OFFCURVE",
"-16 512 CURVE SMOOTH",
"-16 198 OFFCURVE",
"228 -20 OFFCURVE",
"548 -20 CURVE SMOOTH",
"772 -20 OFFCURVE",
"908 34 OFFCURVE",
"1052 236 CURVE SMOOTH",
"1070 258 OFFCURVE",
"1064 276 OFFCURVE",
"1044 284 CURVE SMOOTH",
"862 358 LINE SMOOTH",
"836 368 OFFCURVE",
"830 366 OFFCURVE",
"820 356 CURVE SMOOTH",
"732 270 OFFCURVE",
"670 244 OFFCURVE",
"602 244 CURVE SMOOTH",
"486 244 OFFCURVE",
"396 302 OFFCURVE",
"396 424 CURVE SMOOTH"
);
},
{
closed = 1;
nodes = (
"400 790 OFFCURVE",
"476 846 OFFCURVE",
"558 846 CURVE SMOOTH",
"658 846 OFFCURVE",
"696 744 OFFCURVE",
"696 692 CURVE SMOOTH",
"696 668 OFFCURVE",
"688 664 OFFCURVE",
"662 664 CURVE SMOOTH",
"402 666 LINE"
);
}
);
};
layerId = "258ED206-D907-4350-8EBA-CBDDA1C16BF7";
rightMetricsKey = "=o+10";
paths = (
{
closed = 1;
nodes = (
"1074 428 LINE",
"1074 518 LINE",
"1074 824 OFFCURVE",
"904 1054 OFFCURVE",
"566 1054 CURVE SMOOTH",
"234 1054 OFFCURVE",
"40 800 OFFCURVE",
"40 504 CURVE SMOOTH",
"40 190 OFFCURVE",
"260 -20 OFFCURVE",
"582 -20 CURVE SMOOTH",
"812 -20 OFFCURVE",
"1046 122 OFFCURVE",
"1078 352 CURVE",
"734 352 LINE",
"702 272 OFFCURVE",
"644 252 OFFCURVE",
"572 252 CURVE SMOOTH",
"488 252 OFFCURVE",
"420 304 OFFCURVE",
"422 428 CURVE"
);
},
{
closed = 1;
nodes = (
"420 724 OFFCURVE",
"486 792 OFFCURVE",
"566 792 CURVE SMOOTH",
"664 792 OFFCURVE",
"716 724 OFFCURVE",
"716 646 CURVE",
"420 646 LINE"
);
}
);
width = 1128;
},
{
anchors = (
{
name = bottom;
position = "{572, 0}";
},
{
name = ogonek;
position = "{760, 36}";
},
{
name = top;
position = "{574, 1034}";
}
);
background = {
anchors = (
{
name = bottom;
position = "{596, 0}";
},
{
name = ogonek;
position = "{782, 36}";
},
{
name = top;
position = "{590, 1060}";
}
);
paths = (
{
closed = 1;
nodes = (
"192 494 OFFCURVE",
"196 508 OFFCURVE",
"204 508 CURVE SMOOTH",
"1026 508 LINE SMOOTH",
"1056 508 OFFCURVE",
"1052 532 OFFCURVE",
"1052 548 CURVE SMOOTH",
"1052 884 OFFCURVE",
"876 1080 OFFCURVE",
"594 1080 CURVE SMOOTH",
"312 1080 OFFCURVE",
"108 872 OFFCURVE",
"108 522 CURVE SMOOTH",
"108 200 OFFCURVE",
"306 -20 OFFCURVE",
"594 -20 CURVE SMOOTH",
"782 -20 OFFCURVE",
"922 54 OFFCURVE",
"1014 200 CURVE SMOOTH",
"1020 208 OFFCURVE",
"1018 216 OFFCURVE",
"1012 220 CURVE SMOOTH",
"966 250 LINE SMOOTH",
"958 256 OFFCURVE",
"952 254 OFFCURVE",
"944 242 CURVE SMOOTH",
"872 122 OFFCURVE",
"754 56 OFFCURVE",
"594 56 CURVE SMOOTH",
"370 56 OFFCURVE",
"192 254 OFFCURVE",
"192 480 CURVE SMOOTH"
);
},
{
closed = 1;
nodes = (
"192 780 OFFCURVE",
"328 1004 OFFCURVE",
"592 1004 CURVE SMOOTH",
"824 1004 OFFCURVE",
"968 828 OFFCURVE",
"968 608 CURVE SMOOTH",
"968 586 OFFCURVE",
"962 580 OFFCURVE",
"934 580 CURVE SMOOTH",
"194 580 LINE"
);
}
);
};
guideLines = (
{
angle = 88.4926;
position = "{247, 483}";
}
);
layerId = "91AB5BCA-6A50-42DA-B2F7-8181BF189245";
paths = (
{
closed = 1;
nodes = (
"994 498 LINE",
"994 554 LINE",
"994 872 OFFCURVE",
"838 1054 OFFCURVE",
"574 1054 CURVE SMOOTH",
"292 1054 OFFCURVE",
"130 850 OFFCURVE",
"130 508 CURVE SMOOTH",
"130 170 OFFCURVE",
"316 -20 OFFCURVE",
"586 -20 CURVE SMOOTH",
"770 -20 OFFCURVE",
"924 66 OFFCURVE",
"982 276 CURVE",
"898 276 LINE",
"854 138 OFFCURVE",
"748 58 OFFCURVE",
"586 58 CURVE SMOOTH",
"326 58 OFFCURVE",
"214 264 OFFCURVE",
"214 498 CURVE"
);
},
{
closed = 1;
nodes = (
"214 768 OFFCURVE",
"320 976 OFFCURVE",
"572 976 CURVE SMOOTH",
"804 976 OFFCURVE",
"912 804 OFFCURVE",
"912 574 CURVE",
"216 574 LINE"
);
}
);
width = 1124;
}
);
leftKerningGroup = o;
leftMetricsKey = "=o+0";
rightKerningGroup = o;
rightMetricsKey = "=o+0";
unicode = 0065;
},
{
glyphname = f;
lastChange = "2019-05-07 22:23:28 +0000";
layers = (
{
background = {
paths = (
{
closed = 1;
nodes = (
"600 1060 LINE SMOOTH",
"584 1060 OFFCURVE",
"574 1066 OFFCURVE",
"574 1086 CURVE SMOOTH",
"574 1122 LINE SMOOTH",
"574 1178 OFFCURVE",
"618 1224 OFFCURVE",
"664 1224 CURVE SMOOTH",
"750 1224 LINE SMOOTH",
"774 1224 OFFCURVE",
"786 1242 OFFCURVE",
"786 1264 CURVE",
"784 1432 LINE",
"784 1464 OFFCURVE",
"764 1484 OFFCURVE",
"726 1484 CURVE SMOOTH",
"500 1484 LINE SMOOTH",
"306 1484 OFFCURVE",
"184 1376 OFFCURVE",
"184 1202 CURVE SMOOTH",
"184 1096 LINE SMOOTH",
"184 1070 OFFCURVE",
"178 1060 OFFCURVE",
"156 1060 CURVE SMOOTH",
"60 1060 LINE SMOOTH",
"26 1060 OFFCURVE",
"12 1040 OFFCURVE",
"12 1016 CURVE SMOOTH",
"12 828 LINE SMOOTH",
"12 800 OFFCURVE",
"28 790 OFFCURVE",
"56 790 CURVE SMOOTH",
"168 790 LINE SMOOTH",
"180 790 OFFCURVE",
"184 784 OFFCURVE",
"184 770 CURVE SMOOTH",
"184 40 LINE SMOOTH",
"184 14 OFFCURVE",
"198 0 OFFCURVE",
"220 0 CURVE SMOOTH",
"546 0 LINE SMOOTH",
"570 0 OFFCURVE",
"584 14 OFFCURVE",
"584 44 CURVE SMOOTH",
"584 766 LINE SMOOTH",
"584 782 OFFCURVE",
"594 790 OFFCURVE",
"608 790 CURVE SMOOTH",
"732 790 LINE SMOOTH",
"758 790 OFFCURVE",
"776 800 OFFCURVE",
"776 828 CURVE SMOOTH",
"776 1016 LINE SMOOTH",
"776 1040 OFFCURVE",
"760 1060 OFFCURVE",
"726 1060 CURVE SMOOTH"
);
}
);
};
layerId = "258ED206-D907-4350-8EBA-CBDDA1C16BF7";
leftMetricsKey = "=t";
paths = (
{
closed = 1;
nodes = (
"598 1034 LINE",
"598 1094 LINE SMOOTH",
"598 1170 OFFCURVE",
"620 1194 OFFCURVE",
"684 1194 CURVE SMOOTH",
"804 1194 LINE",
"802 1446 LINE",
"526 1446 LINE SMOOTH",
"336 1446 OFFCURVE",
"216 1342 OFFCURVE",
"216 1172 CURVE SMOOTH",
"216 1034 LINE",
"50 1034 LINE",
"50 770 LINE",
"216 770 LINE",
"216 0 LINE",
"606 0 LINE",
"606 770 LINE",
"794 770 LINE",
"794 1034 LINE"
);
}
);
width = 834;
},
{
background = {
paths = (
{
closed = 1;
nodes = (
"470 1060 LINE SMOOTH",
"460 1060 OFFCURVE",
"456 1064 OFFCURVE",
"456 1074 CURVE SMOOTH",
"456 1254 LINE SMOOTH",
"456 1356 OFFCURVE",
"482 1414 OFFCURVE",
"582 1414 CURVE SMOOTH",
"742 1414 LINE SMOOTH",
"752 1414 OFFCURVE",
"758 1418 OFFCURVE",
"758 1428 CURVE SMOOTH",
"758 1470 LINE SMOOTH",
"758 1480 OFFCURVE",
"754 1484 OFFCURVE",
"746 1484 CURVE SMOOTH",
"602 1484 LINE SMOOTH",
"442 1484 OFFCURVE",
"376 1400 OFFCURVE",
"376 1236 CURVE SMOOTH",
"376 1074 LINE SMOOTH",
"376 1064 OFFCURVE",
"372 1060 OFFCURVE",
"362 1060 CURVE SMOOTH",
"136 1060 LINE SMOOTH",
"128 1060 OFFCURVE",
"124 1056 OFFCURVE",
"124 1048 CURVE SMOOTH",
"124 1002 LINE SMOOTH",
"124 994 OFFCURVE",
"128 990 OFFCURVE",
"136 990 CURVE SMOOTH",
"364 990 LINE SMOOTH",
"372 990 OFFCURVE",
"376 984 OFFCURVE",
"376 976 CURVE SMOOTH",
"376 20 LINE SMOOTH",
"376 6 OFFCURVE",
"380 0 OFFCURVE",
"392 0 CURVE SMOOTH",
"438 0 LINE SMOOTH",
"450 0 OFFCURVE",
"456 6 OFFCURVE",
"456 22 CURVE SMOOTH",
"456 976 LINE SMOOTH",
"456 986 OFFCURVE",
"460 990 OFFCURVE",
"470 990 CURVE SMOOTH",
"736 990 LINE SMOOTH",
"744 990 OFFCURVE",
"748 994 OFFCURVE",
"748 1002 CURVE SMOOTH",
"748 1048 LINE SMOOTH",
"748 1056 OFFCURVE",
"744 1060 OFFCURVE",
"738 1060 CURVE SMOOTH"
);
}
);
};
layerId = "91AB5BCA-6A50-42DA-B2F7-8181BF189245";
rightMetricsKey = "=r+30";
paths = (
{
closed = 1;
nodes = (
"444 1034 LINE",
"444 1222 LINE SMOOTH",
"444 1322 OFFCURVE",
"470 1378 OFFCURVE",
"566 1378 CURVE SMOOTH",
"738 1378 LINE",
"738 1446 LINE",
"586 1446 LINE SMOOTH",
"430 1446 OFFCURVE",
"366 1366 OFFCURVE",
"366 1206 CURVE SMOOTH",
"366 1034 LINE",
"120 1034 LINE",
"120 966 LINE",
"366 966 LINE",
"366 0 LINE",
"444 0 LINE",
"444 966 LINE",
"728 966 LINE",
"728 1034 LINE"
);
}
);
width = 878;
}
);
leftKerningGroup = t;
leftMetricsKey = "=t";
rightKerningGroup = r;
rightMetricsKey = "=t-40";
unicode = 0066;
},
{
glyphname = g;
lastChange = "2019-05-07 21:27:06 +0000";
layers = (
{
anchors = (
{
name = top;
position = "{614, 1034}";
}
);
background = {
anchors = (
{
name = top;
position = "{592, 1060}";
}
);
paths = (
{
closed = 1;
nodes = (
"1152 1124 OFFCURVE",
"1040 1068 OFFCURVE",
"986 992 CURVE SMOOTH",
"972 972 OFFCURVE",
"944 970 OFFCURVE",
"924 986 CURVE SMOOTH",
"858 1038 OFFCURVE",
"742 1076 OFFCURVE",
"590 1076 CURVE SMOOTH",
"232 1076 OFFCURVE",
"50 938 OFFCURVE",
"50 746 CURVE SMOOTH",
"50 624 OFFCURVE",
"126 530 OFFCURVE",
"258 474 CURVE SMOOTH",
"278 462 OFFCURVE",
"264 456 OFFCURVE",
"252 450 CURVE SMOOTH",
"144 404 OFFCURVE",
"34 338 OFFCURVE",
"34 244 CURVE SMOOTH",
"34 162 OFFCURVE",
"96 112 OFFCURVE",
"166 78 CURVE SMOOTH",
"182 70 OFFCURVE",
"186 62 OFFCURVE",
"166 56 CURVE SMOOTH",
"60 26 OFFCURVE",
"-28 -16 OFFCURVE",
"-28 -106 CURVE SMOOTH",
"-28 -274 OFFCURVE",
"176 -350 OFFCURVE",
"594 -350 CURVE SMOOTH",
"996 -350 OFFCURVE",
"1200 -198 OFFCURVE",
"1200 6 CURVE SMOOTH",
"1200 170 OFFCURVE",
"1068 286 OFFCURVE",
"772 304 CURVE SMOOTH",
"468 322 LINE SMOOTH",
"410 326 OFFCURVE",
"380 334 OFFCURVE",
"380 364 CURVE SMOOTH",
"380 396 OFFCURVE",
"434 418 OFFCURVE",
"566 418 CURVE SMOOTH",
"902 418 OFFCURVE",
"1080 568 OFFCURVE",
"1080 748 CURVE SMOOTH",
"1080 768 OFFCURVE",
"1076 790 OFFCURVE",
"1070 810 CURVE SMOOTH",
"1062 838 OFFCURVE",
"1072 856 OFFCURVE",
"1110 856 CURVE SMOOTH",
"1134 856 OFFCURVE",
"1172 850 OFFCURVE",
"1198 842 CURVE SMOOTH",
"1228 832 OFFCURVE",
"1250 848 OFFCURVE",
"1250 894 CURVE SMOOTH",
"1250 1074 LINE SMOOTH",
"1250 1110 OFFCURVE",
"1232 1124 OFFCURVE",
"1210 1124 CURVE SMOOTH"
);
},
{
closed = 1;
nodes = (
"462 600 OFFCURVE",
"406 668 OFFCURVE",
"406 740 CURVE SMOOTH",
"406 822 OFFCURVE",
"462 890 OFFCURVE",
"562 890 CURVE SMOOTH",
"674 890 OFFCURVE",
"718 822 OFFCURVE",
"718 740 CURVE SMOOTH",
"718 670 OFFCURVE",
"674 600 OFFCURVE",
"562 600 CURVE SMOOTH"
);
},
{
closed = 1;
nodes = (
"808 0 OFFCURVE",
"854 -32 OFFCURVE",
"854 -70 CURVE SMOOTH",
"854 -128 OFFCURVE",
"770 -172 OFFCURVE",
"614 -172 CURVE SMOOTH",
"364 -172 OFFCURVE",
"294 -128 OFFCURVE",
"294 -54 CURVE SMOOTH",
"294 -12 OFFCURVE",
"346 20 OFFCURVE",
"432 16 CURVE SMOOTH",
"722 4 LINE SMOOTH"
);
}
);
};
layerId = "258ED206-D907-4350-8EBA-CBDDA1C16BF7";
leftMetricsKey = "=x+0";
paths = (
{
closed = 1;
nodes = (
"1008 -342 OFFCURVE",
"1206 -194 OFFCURVE",
"1206 6 CURVE SMOOTH",
"1206 166 OFFCURVE",
"1080 296 OFFCURVE",
"794 316 CURVE SMOOTH",
"706 322 OFFCURVE",
"624 326 OFFCURVE",
"588 328 CURVE SMOOTH",
"486 334 OFFCURVE",
"422 334 OFFCURVE",
"422 362 CURVE",
"422 372 OFFCURVE",
"430 376 OFFCURVE",
"450 380 CURVE",
"484 376 OFFCURVE",
"556 374 OFFCURVE",
"588 374 CURVE SMOOTH",
"916 374 OFFCURVE",
"1090 554 OFFCURVE",
"1090 730 CURVE SMOOTH",
"1090 742 OFFCURVE",
"1086 780 OFFCURVE",
"1078 810 CURVE",
"1254 834 LINE",
"1256 1110 LINE",
"1142 1062 OFFCURVE",
"994 1006 OFFCURVE",
"916 976 CURVE",
"840 1016 OFFCURVE",
"760 1050 OFFCURVE",
"612 1050 CURVE SMOOTH",
"330 1050 OFFCURVE",
"86 936 OFFCURVE",
"86 728 CURVE SMOOTH",
"86 618 OFFCURVE",
"158 486 OFFCURVE",
"308 420 CURVE",
"146 398 OFFCURVE",
"70 320 OFFCURVE",
"70 238 CURVE SMOOTH",
"70 124 OFFCURVE",
"186 80 OFFCURVE",
"216 64 CURVE",
"200 60 OFFCURVE",
"10 30 OFFCURVE",
"10 -104 CURVE SMOOTH",
"10 -236 OFFCURVE",
"208 -342 OFFCURVE",
"616 -342 CURVE SMOOTH"
);
},
{
closed = 1;
nodes = (
"478 -138 OFFCURVE",
"388 -124 OFFCURVE",
"388 -58 CURVE SMOOTH",
"388 -24 OFFCURVE",
"414 22 OFFCURVE",
"522 16 CURVE SMOOTH",
"710 4 LINE SMOOTH",
"790 -2 OFFCURVE",
"838 -30 OFFCURVE",
"838 -74 CURVE SMOOTH",
"838 -112 OFFCURVE",
"812 -138 OFFCURVE",
"676 -138 CURVE SMOOTH"
);
},
{
closed = 1;
nodes = (
"526 578 OFFCURVE",
"476 636 OFFCURVE",
"476 714 CURVE SMOOTH",
"476 792 OFFCURVE",
"526 860 OFFCURVE",
"600 860 CURVE SMOOTH",
"674 860 OFFCURVE",
"724 792 OFFCURVE",
"724 714 CURVE SMOOTH",
"724 636 OFFCURVE",
"674 578 OFFCURVE",
"600 578 CURVE SMOOTH"
);
}
);
width = 1276;
},
{
anchors = (
{
name = top;
position = "{584, 1034}";
}
);
background = {
anchors = (
{
name = top;
position = "{600, 1060}";
}
);
guideLines = (
{
angle = 90;
position = "{301, 374}";
showMeasurement = 1;
}
);
paths = (
{
closed = 1;
nodes = (
"1028 1060 OFFCURVE",
"968 1014 OFFCURVE",
"928 984 CURVE SMOOTH",
"914 974 OFFCURVE",
"906 974 OFFCURVE",
"892 986 CURVE SMOOTH",
"824 1044 OFFCURVE",
"738 1076 OFFCURVE",
"606 1076 CURVE SMOOTH",
"342 1076 OFFCURVE",
"186 950 OFFCURVE",
"186 738 CURVE SMOOTH",
"186 614 OFFCURVE",
"234 532 OFFCURVE",
"344 470 CURVE SMOOTH",
"358 462 OFFCURVE",
"362 450 OFFCURVE",
"346 446 CURVE SMOOTH",
"246 414 OFFCURVE",
"212 362 OFFCURVE",
"212 318 CURVE SMOOTH",
"212 274 OFFCURVE",
"234 242 OFFCURVE",
"288 218 CURVE SMOOTH",
"302 212 OFFCURVE",
"302 204 OFFCURVE",
"288 196 CURVE SMOOTH",
"162 126 OFFCURVE",
"104 42 OFFCURVE",
"104 -54 CURVE SMOOTH",
"104 -240 OFFCURVE",
"276 -350 OFFCURVE",
"584 -350 CURVE SMOOTH",
"886 -350 OFFCURVE",
"1062 -238 OFFCURVE",
"1062 -38 CURVE SMOOTH",
"1062 120 OFFCURVE",
"968 220 OFFCURVE",
"754 232 CURVE SMOOTH",
"514 246 LINE SMOOTH",
"360 254 OFFCURVE",
"296 272 OFFCURVE",
"296 320 CURVE SMOOTH",
"296 368 OFFCURVE",
"362 418 OFFCURVE",
"592 418 CURVE SMOOTH",
"874 418 OFFCURVE",
"996 560 OFFCURVE",
"996 738 CURVE SMOOTH",
"996 822 OFFCURVE",
"968 868 OFFCURVE",
"954 902 CURVE SMOOTH",
"948 916 OFFCURVE",
"958 928 OFFCURVE",
"994 948 CURVE SMOOTH",
"1026 966 OFFCURVE",
"1052 974 OFFCURVE",
"1104 976 CURVE SMOOTH",
"1132 978 OFFCURVE",
"1138 990 OFFCURVE",
"1138 1008 CURVE SMOOTH",
"1138 1034 LINE SMOOTH",
"1138 1052 OFFCURVE",
"1130 1060 OFFCURVE",
"1100 1060 CURVE SMOOTH"
);
},
{
closed = 1;
nodes = (
"384 494 OFFCURVE",
"266 580 OFFCURVE",
"266 742 CURVE SMOOTH",
"266 906 OFFCURVE",
"386 1000 OFFCURVE",
"594 1000 CURVE SMOOTH",
"806 1000 OFFCURVE",
"916 908 OFFCURVE",
"916 742 CURVE SMOOTH",
"916 578 OFFCURVE",
"810 494 OFFCURVE",
"594 494 CURVE SMOOTH"
);
},
{
closed = 1;
nodes = (
"920 140 OFFCURVE",
"978 72 OFFCURVE",
"978 -38 CURVE SMOOTH",
"978 -202 OFFCURVE",
"846 -274 OFFCURVE",
"602 -274 CURVE SMOOTH",
"340 -274 OFFCURVE",
"188 -192 OFFCURVE",
"188 -46 CURVE SMOOTH",
"188 86 OFFCURVE",
"336 176 OFFCURVE",
"400 172 CURVE SMOOTH",
"752 150 LINE SMOOTH"
);
}
);
};
guideLines = (
{
angle = 90;
position = "{341, 347}";
showMeasurement = 1;
}
);
layerId = "91AB5BCA-6A50-42DA-B2F7-8181BF189245";
paths = (
{
closed = 1;
nodes = (
"862 -342 OFFCURVE",
"1034 -232 OFFCURVE",
"1034 -38 CURVE SMOOTH",
"1034 118 OFFCURVE",
"942 214 OFFCURVE",
"734 226 CURVE SMOOTH",
"636 232 OFFCURVE",
"560 236 OFFCURVE",
"500 240 CURVE SMOOTH",
"334 252 OFFCURVE",
"286 268 OFFCURVE",
"286 312 CURVE SMOOTH",
"286 356 OFFCURVE",
"348 404 OFFCURVE",
"554 408 CURVE SMOOTH",
"562 408 OFFCURVE",
"568 408 OFFCURVE",
"576 408 CURVE SMOOTH",
"850 408 OFFCURVE",
"970 546 OFFCURVE",
"970 720 CURVE SMOOTH",
"970 772 OFFCURVE",
"946 852 OFFCURVE",
"924 892 CURVE",
"1108 932 LINE",
"1108 1048 LINE",
"1082 1038 OFFCURVE",
"910 964 OFFCURVE",
"884 952 CURVE",
"804 1018 OFFCURVE",
"718 1050 OFFCURVE",
"590 1050 CURVE SMOOTH",
"332 1050 OFFCURVE",
"180 926 OFFCURVE",
"180 720 CURVE SMOOTH",
"180 590 OFFCURVE",
"228 514 OFFCURVE",
"358 444 CURVE",
"258 414 OFFCURVE",
"204 366 OFFCURVE",
"204 310 CURVE SMOOTH",
"204 248 OFFCURVE",
"252 226 OFFCURVE",
"290 202 CURVE",
"260 176 OFFCURVE",
"100 104 OFFCURVE",
"100 -52 CURVE SMOOTH",
"100 -234 OFFCURVE",
"268 -342 OFFCURVE",
"568 -342 CURVE SMOOTH"
);
},
{
closed = 1;
nodes = (
"330 -268 OFFCURVE",
"182 -188 OFFCURVE",
"182 -44 CURVE SMOOTH",
"182 84 OFFCURVE",
"326 172 OFFCURVE",
"388 168 CURVE SMOOTH",
"732 146 LINE SMOOTH",
"896 136 OFFCURVE",
"952 70 OFFCURVE",
"952 -38 CURVE SMOOTH",
"952 -196 OFFCURVE",
"784 -268 OFFCURVE",
"586 -268 CURVE SMOOTH"
);
},
{
closed = 1;
nodes = (
"372 482 OFFCURVE",
"258 566 OFFCURVE",
"258 724 CURVE SMOOTH",
"258 884 OFFCURVE",
"374 976 OFFCURVE",
"578 976 CURVE SMOOTH",
"766 976 OFFCURVE",
"892 896 OFFCURVE",
"892 724 CURVE SMOOTH",
"892 564 OFFCURVE",
"788 482 OFFCURVE",
"578 482 CURVE SMOOTH"
);
}
);
width = 1208;
}
);
leftKerningGroup = g;
leftMetricsKey = "=x";
rightKerningGroup = g;
rightMetricsKey = "=x+0";
unicode = 0067;
},
{
glyphname = gcommaaccent;
lastChange = "2019-05-07 21:27:06 +0000";
layers = (
{
anchors = (
{
name = _top;
position = "{554, 1072}";
}
);
background = {
anchors = (
{
name = _top;
position = "{530, 1100}";
}
);
components = (
{
name = g;
transform = "{1, 0, 0, 1, -38, 0}";
}
);
paths = (
{
closed = 1;
nodes = (
"624 1198 LINE SMOOTH",
"644 1198 OFFCURVE",
"660 1210 OFFCURVE",
"660 1238 CURVE SMOOTH",
"660 1360 LINE SMOOTH",
"660 1392 OFFCURVE",
"648 1404 OFFCURVE",
"614 1404 CURVE SMOOTH",
"596 1404 LINE SMOOTH",
"568 1404 OFFCURVE",
"556 1434 OFFCURVE",
"578 1462 CURVE SMOOTH",
"644 1552 LINE SMOOTH",
"656 1568 OFFCURVE",
"642 1592 OFFCURVE",
"620 1592 CURVE SMOOTH",
"584 1592 LINE SMOOTH",
"548 1592 OFFCURVE",
"534 1586 OFFCURVE",
"518 1564 CURVE SMOOTH",
"410 1430 LINE SMOOTH",
"408 1424 OFFCURVE",
"402 1414 OFFCURVE",
"402 1404 CURVE SMOOTH",
"402 1230 LINE SMOOTH",
"402 1210 OFFCURVE",
"414 1198 OFFCURVE",
"436 1198 CURVE SMOOTH"
);
}
);
};
components = (
{
name = g;
}
);
layerId = "258ED206-D907-4350-8EBA-CBDDA1C16BF7";
paths = (
{
closed = 1;
nodes = (
"680 1168 LINE",
"680 1368 LINE",
"558 1368 LINE",
"694 1552 LINE",
"562 1552 LINE",
"428 1384 LINE",
"428 1168 LINE"
);
}
);
width = 1276;
},
{
anchors = (
{
name = _top;
position = "{558, 1072}";
}
);
background = {
anchors = (
{
name = _top;
position = "{574, 1100}";
}
);
components = (
{
name = g;
transform = "{1, 0, 0, 1, 4, 0}";
}
);
paths = (
{
closed = 1;
nodes = (
"612 1264 LINE SMOOTH",
"620 1264 OFFCURVE",
"626 1268 OFFCURVE",
"626 1280 CURVE SMOOTH",
"626 1412 LINE SMOOTH",
"626 1426 OFFCURVE",
"622 1430 OFFCURVE",
"610 1430 CURVE SMOOTH",
"594 1430 LINE SMOOTH",
"584 1430 OFFCURVE",
"580 1436 OFFCURVE",
"586 1448 CURVE SMOOTH",
"636 1556 LINE SMOOTH",
"640 1564 OFFCURVE",
"636 1572 OFFCURVE",
"628 1572 CURVE SMOOTH",
"602 1572 LINE SMOOTH",
"586 1572 OFFCURVE",
"580 1570 OFFCURVE",
"574 1560 CURVE SMOOTH",
"512 1442 LINE SMOOTH",
"512 1440 OFFCURVE",
"510 1434 OFFCURVE",
"510 1430 CURVE SMOOTH",
"510 1278 LINE SMOOTH",
"510 1268 OFFCURVE",
"514 1264 OFFCURVE",
"522 1264 CURVE SMOOTH"
);
}
);
};
components = (
{
name = g;
}
);
layerId = "91AB5BCA-6A50-42DA-B2F7-8181BF189245";
paths = (
{
closed = 1;
nodes = (
"608 1232 LINE",
"608 1394 LINE",
"562 1394 LINE",
"626 1532 LINE",
"564 1532 LINE",
"496 1402 LINE",
"496 1232 LINE"
);
}
);
width = 1208;
}
);
leftKerningGroup = g;
leftMetricsKey = g;
rightKerningGroup = g;
rightMetricsKey = g;
unicode = 0123;
},
{
glyphname = h;
lastChange = "2019-05-07 21:27:06 +0000";
layers = (
{
anchors = (
{
name = bottom;
position = "{624, 0}";
},
{
name = top;
position = "{302, 1446}";
}
);
background = {
anchors = (
{
name = bottom;
position = "{602, 0}";
},
{
name = top;
position = "{880, 1060}";
}
);
paths = (
{
closed = 1;
nodes = (
"408 0 LINE SMOOTH",
"456 0 OFFCURVE",
"474 16 OFFCURVE",
"474 58 CURVE SMOOTH",
"474 698 LINE",
"512 766 OFFCURVE",
"560 798 OFFCURVE",
"622 798 CURVE SMOOTH",
"686 798 OFFCURVE",
"726 762 OFFCURVE",
"726 702 CURVE SMOOTH",
"726 50 LINE SMOOTH",
"726 12 OFFCURVE",
"738 0 OFFCURVE",
"772 0 CURVE SMOOTH",
"1066 0 LINE SMOOTH",
"1108 0 OFFCURVE",
"1126 20 OFFCURVE",
"1126 60 CURVE SMOOTH",
"1126 750 LINE SMOOTH",
"1126 962 OFFCURVE",
"1012 1080 OFFCURVE",
"814 1080 CURVE SMOOTH",
"708 1080 OFFCURVE",
"608 1046 OFFCURVE",
"494 936 CURVE SMOOTH",
"478 922 OFFCURVE",
"468 928 OFFCURVE",
"468 944 CURVE SMOOTH",
"468 1442 LINE SMOOTH",
"468 1468 OFFCURVE",
"456 1484 OFFCURVE",
"432 1484 CURVE SMOOTH",
"112 1484 LINE SMOOTH",
"88 1484 OFFCURVE",
"74 1466 OFFCURVE",
"74 1438 CURVE SMOOTH",
"74 50 LINE SMOOTH",
"74 14 OFFCURVE",
"88 0 OFFCURVE",
"126 0 CURVE SMOOTH"
);
}
);
};
layerId = "258ED206-D907-4350-8EBA-CBDDA1C16BF7";
paths = (
{
closed = 1;
nodes = (
"500 0 LINE",
"500 642 LINE",
"500 700 OFFCURVE",
"564 740 OFFCURVE",
"622 740 CURVE SMOOTH",
"680 740 OFFCURVE",
"744 704 OFFCURVE",
"744 646 CURVE SMOOTH",
"744 0 LINE",
"1134 0 LINE",
"1134 692 LINE SMOOTH",
"1134 898 OFFCURVE",
"966 1034 OFFCURVE",
"772 1034 CURVE SMOOTH",
"610 1034 OFFCURVE",
"548 966 OFFCURVE",
"500 906 CURVE",
"500 1486 LINE",
"110 1486 LINE",
"110 0 LINE"
);
}
);
width = 1244;
},
{
anchors = (
{
name = bottom;
position = "{582, 0}";
},
{
name = top;
position = "{206, 1446}";
}
);
background = {
anchors = (
{
name = bottom;
position = "{600, 0}";
},
{
name = top;
position = "{644, 1060}";
}
);
paths = (
{
closed = 1;
nodes = (
"238 0 LINE SMOOTH",
"250 0 OFFCURVE",
"256 6 OFFCURVE",
"256 18 CURVE SMOOTH",
"256 820 LINE",
"416 942 OFFCURVE",
"510 1004 OFFCURVE",
"652 1004 CURVE SMOOTH",
"826 1004 OFFCURVE",
"898 910 OFFCURVE",
"898 754 CURVE SMOOTH",
"898 18 LINE SMOOTH",
"898 6 OFFCURVE",
"904 0 OFFCURVE",
"916 0 CURVE SMOOTH",
"960 0 LINE SMOOTH",
"972 0 OFFCURVE",
"978 6 OFFCURVE",
"978 20 CURVE SMOOTH",
"978 786 LINE SMOOTH",
"978 960 OFFCURVE",
"868 1080 OFFCURVE",
"654 1080 CURVE SMOOTH",
"508 1080 OFFCURVE",
"418 1022 OFFCURVE",
"266 914 CURVE SMOOTH",
"254 904 OFFCURVE",
"250 906 OFFCURVE",
"250 920 CURVE SMOOTH",
"250 1468 LINE SMOOTH",
"250 1480 OFFCURVE",
"246 1484 OFFCURVE",
"234 1484 CURVE SMOOTH",
"192 1484 LINE SMOOTH",
"180 1484 OFFCURVE",
"176 1478 OFFCURVE",
"176 1466 CURVE SMOOTH",
"176 18 LINE SMOOTH",
"176 6 OFFCURVE",
"182 0 OFFCURVE",
"194 0 CURVE SMOOTH"
);
}
);
};
layerId = "91AB5BCA-6A50-42DA-B2F7-8181BF189245";
paths = (
{
closed = 1;
nodes = (
"248 0 LINE",
"248 720 LINE",
"248 896 OFFCURVE",
"406 978 OFFCURVE",
"590 978 CURVE SMOOTH",
"766 978 OFFCURVE",
"874 888 OFFCURVE",
"874 736 CURVE SMOOTH",
"874 0 LINE",
"952 0 LINE",
"952 766 LINE SMOOTH",
"952 936 OFFCURVE",
"798 1054 OFFCURVE",
"592 1054 CURVE SMOOTH",
"424 1054 OFFCURVE",
"296 978 OFFCURVE",
"242 880 CURVE",
"242 1486 LINE",
"170 1486 LINE",
"170 0 LINE"
);
}
);
width = 1122;
}
);
leftKerningGroup = n;
leftMetricsKey = "=n";
rightKerningGroup = n;
rightMetricsKey = n;
unicode = 0068;
},
{
glyphname = hbar;
lastChange = "2019-05-07 21:27:06 +0000";
layers = (
{
background = {
components = (
{
name = h;
transform = "{1, 0, 0, 1, 1, 0}";
}
);
paths = (
{
closed = 1;
nodes = (
"744 1360 OFFCURVE",
"732 1374 OFFCURVE",
"712 1374 CURVE SMOOTH",
"34 1374 LINE SMOOTH",
"14 1374 OFFCURVE",
"2 1360 OFFCURVE",
"2 1334 CURVE SMOOTH",
"2 1204 LINE SMOOTH",
"2 1174 OFFCURVE",
"12 1160 OFFCURVE",
"46 1160 CURVE SMOOTH",
"686 1160 LINE SMOOTH",
"726 1160 OFFCURVE",
"744 1174 OFFCURVE",
"744 1208 CURVE SMOOTH",
"744 1338 LINE SMOOTH"
);
}
);
};
components = (
{
name = h;
transform = "{1, 0, 0, 1, 78, 0}";
}
);
layerId = "258ED206-D907-4350-8EBA-CBDDA1C16BF7";
paths = (
{
closed = 1;
nodes = (
"40 1340 LINE",
"40 1132 LINE",
"762 1132 LINE",
"762 1340 LINE"
);
}
);
width = 1322;
},
{
background = {
components = (
{
name = h;
transform = "{1, 0, 0, 1, 2, 0}";
}
);
paths = (
{
closed = 1;
nodes = (
"622 1320 OFFCURVE",
"618 1324 OFFCURVE",
"612 1324 CURVE SMOOTH",
"54 1324 LINE SMOOTH",
"48 1324 OFFCURVE",
"44 1320 OFFCURVE",
"44 1310 CURVE SMOOTH",
"44 1270 LINE SMOOTH",
"44 1258 OFFCURVE",
"46 1254 OFFCURVE",
"58 1254 CURVE SMOOTH",
"602 1254 LINE SMOOTH",
"616 1254 OFFCURVE",
"622 1258 OFFCURVE",
"622 1270 CURVE SMOOTH",
"622 1312 LINE SMOOTH"
);
}
);
};
components = (
{
name = h;
transform = "{1, 0, 0, 1, -4, 0}";
}
);
layerId = "91AB5BCA-6A50-42DA-B2F7-8181BF189245";
paths = (
{
closed = 1;
nodes = (
"40 1290 LINE",
"40 1222 LINE",
"604 1222 LINE",
"604 1290 LINE"
);
}
);
width = 1118;
}
);
leftKerningGroup = n;
rightKerningGroup = n;
rightMetricsKey = h;
unicode = 0127;
},
{
glyphname = i;
lastChange = "2019-05-07 23:32:09 +0000";
layers = (
{
anchors = (
{
name = bottom;
position = "{306, 0}";
}
);
background = {
paths = (
{
closed = 1;
nodes = (
"474 1044 OFFCURVE",
"460 1060 OFFCURVE",
"438 1060 CURVE SMOOTH",
"112 1060 LINE SMOOTH",
"88 1060 OFFCURVE",
"74 1044 OFFCURVE",
"74 1014 CURVE SMOOTH",
"74 50 LINE SMOOTH",
"74 16 OFFCURVE",
"86 0 OFFCURVE",
"126 0 CURVE SMOOTH",
"408 0 LINE SMOOTH",
"454 0 OFFCURVE",
"474 16 OFFCURVE",
"474 58 CURVE SMOOTH",
"474 1020 LINE SMOOTH"
);
},
{
closed = 1;
nodes = (
"474 1468 OFFCURVE",
"460 1484 OFFCURVE",
"438 1484 CURVE SMOOTH",
"112 1484 LINE SMOOTH",
"88 1484 OFFCURVE",
"74 1468 OFFCURVE",
"74 1438 CURVE SMOOTH",
"74 1200 LINE SMOOTH",
"74 1166 OFFCURVE",
"86 1148 OFFCURVE",
"126 1148 CURVE SMOOTH",
"408 1148 LINE SMOOTH",
"454 1148 OFFCURVE",
"474 1166 OFFCURVE",
"474 1206 CURVE SMOOTH",
"474 1442 LINE SMOOTH"
);
}
);
};
layerId = "258ED206-D907-4350-8EBA-CBDDA1C16BF7";
paths = (
{
closed = 1;
nodes = (
"110 1034 LINE",
"110 0 LINE",
"480 0 LINE",
"480 1034 LINE"
);
},
{
closed = 1;
nodes = (
"110 1446 LINE",
"110 1118 LINE",
"480 1118 LINE",
"480 1446 LINE"
);
}
);
width = 610;
},
{
anchors = (
{
name = bottom;
position = "{238, 0}";
}
);
background = {
paths = (
{
closed = 1;
nodes = (
"286 1056 OFFCURVE",
"282 1060 OFFCURVE",
"268 1060 CURVE SMOOTH",
"224 1060 LINE SMOOTH",
"210 1060 OFFCURVE",
"206 1056 OFFCURVE",
"206 1040 CURVE SMOOTH",
"206 20 LINE SMOOTH",
"206 4 OFFCURVE",
"210 0 OFFCURVE",
"228 0 CURVE SMOOTH",
"262 0 LINE SMOOTH",
"282 0 OFFCURVE",
"286 4 OFFCURVE",
"286 24 CURVE SMOOTH",
"286 1040 LINE SMOOTH"
);
},
{
closed = 1;
nodes = (
"296 1474 OFFCURVE",
"286 1484 OFFCURVE",
"272 1484 CURVE SMOOTH",
"220 1484 LINE SMOOTH",
"206 1484 OFFCURVE",
"196 1474 OFFCURVE",
"196 1458 CURVE SMOOTH",
"196 1316 LINE SMOOTH",
"196 1300 OFFCURVE",
"200 1288 OFFCURVE",
"218 1288 CURVE SMOOTH",
"272 1288 LINE SMOOTH",
"292 1288 OFFCURVE",
"296 1300 OFFCURVE",
"296 1320 CURVE SMOOTH",
"296 1458 LINE SMOOTH"
);
}
);
};
layerId = "91AB5BCA-6A50-42DA-B2F7-8181BF189245";
leftMetricsKey = "=n+20";
paths = (
{
closed = 1;
nodes = (
"200 1034 LINE",
"200 0 LINE",
"278 0 LINE",
"278 1034 LINE"
);
},
{
closed = 1;
nodes = (
"190 1444 LINE",
"190 1324 LINE",
"286 1324 LINE",
"286 1444 LINE"
);
}
);
width = 476;
}
);
leftKerningGroup = n;
leftMetricsKey = "=n";
rightKerningGroup = u;
rightMetricsKey = "=|n+20";
unicode = 0069;
},
{
glyphname = idotless;
lastChange = "2019-05-07 23:32:09 +0000";
layers = (
{
anchors = (
{
name = ogonek;
position = "{444, 18}";
},
{
name = top;
position = "{302, 1034}";
}
);
background = {
anchors = (
{
name = ogonek;
position = "{418, 18}";
},
{
name = top;
position = "{282, 1060}";
}
);
paths = (
{
closed = 1;
nodes = (
"474 1044 OFFCURVE",
"460 1060 OFFCURVE",
"438 1060 CURVE SMOOTH",
"112 1060 LINE SMOOTH",
"88 1060 OFFCURVE",
"74 1044 OFFCURVE",
"74 1014 CURVE SMOOTH",
"74 50 LINE SMOOTH",
"74 16 OFFCURVE",
"86 0 OFFCURVE",
"126 0 CURVE SMOOTH",
"408 0 LINE SMOOTH",
"454 0 OFFCURVE",
"474 16 OFFCURVE",
"474 58 CURVE SMOOTH",
"474 1020 LINE SMOOTH"
);
}
);
};
layerId = "258ED206-D907-4350-8EBA-CBDDA1C16BF7";
paths = (
{
closed = 1;
nodes = (
"110 1034 LINE",
"110 0 LINE",
"480 0 LINE",
"480 1034 LINE"
);
}
);
width = 610;
},
{
anchors = (
{
name = ogonek;
position = "{252, 26}";
},
{
name = top;
position = "{228, 1034}";
}
);
background = {
anchors = (
{
name = ogonek;
position = "{260, 26}";
},
{
name = top;
position = "{236, 1060}";
}
);
paths = (
{
closed = 1;
nodes = (
"276 1056 OFFCURVE",
"272 1060 OFFCURVE",
"258 1060 CURVE SMOOTH",
"214 1060 LINE SMOOTH",
"200 1060 OFFCURVE",
"196 1056 OFFCURVE",
"196 1040 CURVE SMOOTH",
"196 20 LINE SMOOTH",
"196 4 OFFCURVE",
"200 0 OFFCURVE",
"218 0 CURVE SMOOTH",
"252 0 LINE SMOOTH",
"272 0 OFFCURVE",
"276 4 OFFCURVE",
"276 24 CURVE SMOOTH",
"276 1040 LINE SMOOTH"
);
}
);
};
layerId = "91AB5BCA-6A50-42DA-B2F7-8181BF189245";
paths = (
{
closed = 1;
nodes = (
"190 1034 LINE",
"190 0 LINE",
"268 0 LINE",
"268 1034 LINE"
);
}
);
width = 458;
}
);
leftKerningGroup = n;
leftMetricsKey = i;
rightKerningGroup = u;
rightMetricsKey = i;
unicode = 0131;
},
{
glyphname = j;
lastChange = "2019-05-07 21:27:06 +0000";
layers = (
{
background = {
paths = (
{
closed = 1;
nodes = (
"490 1020 LINE SMOOTH",
"490 1044 OFFCURVE",
"478 1060 OFFCURVE",
"454 1060 CURVE SMOOTH",
"130 1060 LINE SMOOTH",
"106 1060 OFFCURVE",
"90 1044 OFFCURVE",
"90 1014 CURVE SMOOTH",
"90 72 LINE SMOOTH",
"90 4 OFFCURVE",
"68 -12 OFFCURVE",
"42 -20 CURVE SMOOTH",
"-28 -32 LINE SMOOTH",
"-54 -38 OFFCURVE",
"-68 -64 OFFCURVE",
"-68 -86 CURVE SMOOTH",
"-66 -290 LINE SMOOTH",
"-66 -332 OFFCURVE",
"-42 -340 OFFCURVE",
"70 -340 CURVE SMOOTH",
"354 -340 OFFCURVE",
"490 -206 OFFCURVE",
"490 58 CURVE SMOOTH"
);
},
{
closed = 1;
nodes = (
"490 1468 OFFCURVE",
"478 1484 OFFCURVE",
"454 1484 CURVE SMOOTH",
"130 1484 LINE SMOOTH",
"106 1484 OFFCURVE",
"90 1468 OFFCURVE",
"90 1438 CURVE SMOOTH",
"90 1200 LINE SMOOTH",
"90 1166 OFFCURVE",
"104 1148 OFFCURVE",
"144 1148 CURVE SMOOTH",
"426 1148 LINE SMOOTH",
"426 1148 OFFCURVE",
"490 1166 OFFCURVE",
"490 1206 CURVE SMOOTH",
"490 1442 LINE SMOOTH"
);
}
);
};
guideLines = (
{
angle = 90;
position = "{514, 545}";
},
{
position = "{23, 737}";
showMeasurement = 1;
}
);
layerId = "258ED206-D907-4350-8EBA-CBDDA1C16BF7";
paths = (
{
closed = 1;
nodes = (
"514 1034 LINE",
"124 1034 LINE",
"124 56 LINE",
"124 14 OFFCURVE",
"104 -12 OFFCURVE",
"30 -28 CURVE",
"-30 -38 LINE",
"-28 -298 LINE",
"-28 -298 OFFCURVE",
"2 -332 OFFCURVE",
"106 -332 CURVE",
"382 -332 OFFCURVE",
"514 -200 OFFCURVE",
"514 56 CURVE SMOOTH"
);
},
{
closed = 1;
nodes = (
"124 1446 LINE",
"124 1118 LINE",
"514 1118 LINE",
"514 1446 LINE"
);
}
);
width = 634;
},
{
background = {
paths = (
{
closed = 1;
nodes = (
"296 1040 LINE SMOOTH",
"296 1054 OFFCURVE",
"292 1060 OFFCURVE",
"280 1060 CURVE SMOOTH",
"236 1060 LINE SMOOTH",
"222 1060 OFFCURVE",
"216 1054 OFFCURVE",
"216 1040 CURVE SMOOTH",
"216 -92 LINE SMOOTH",
"216 -220 OFFCURVE",
"174 -264 OFFCURVE",
"68 -266 CURVE SMOOTH",
"-48 -268 LINE SMOOTH",
"-56 -268 OFFCURVE",
"-60 -272 OFFCURVE",
"-60 -280 CURVE SMOOTH",
"-60 -322 LINE SMOOTH",
"-60 -338 OFFCURVE",
"-48 -340 OFFCURVE",
"70 -340 CURVE SMOOTH",
"252 -340 OFFCURVE",
"296 -266 OFFCURVE",
"296 -102 CURVE SMOOTH"
);
},
{
closed = 1;
nodes = (
"306 1474 OFFCURVE",
"296 1484 OFFCURVE",
"282 1484 CURVE SMOOTH",
"230 1484 LINE SMOOTH",
"216 1484 OFFCURVE",
"206 1474 OFFCURVE",
"206 1458 CURVE SMOOTH",
"206 1316 LINE SMOOTH",
"206 1300 OFFCURVE",
"210 1288 OFFCURVE",
"228 1288 CURVE SMOOTH",
"282 1288 LINE SMOOTH",
"302 1288 OFFCURVE",
"306 1300 OFFCURVE",
"306 1320 CURVE SMOOTH",
"306 1458 LINE SMOOTH"
);
}
);
};
guideLines = (
{
angle = 90;
position = "{208, 472}";
},
{
angle = 90;
position = "{286, 467}";
}
);
layerId = "91AB5BCA-6A50-42DA-B2F7-8181BF189245";
paths = (
{
closed = 1;
nodes = (
"286 1034 LINE",
"208 1034 LINE",
"208 -90 LINE SMOOTH",
"208 -214 OFFCURVE",
"168 -258 OFFCURVE",
"64 -260 CURVE SMOOTH",
"-60 -262 LINE",
"-60 -314 LINE SMOOTH",
"-60 -314 OFFCURVE",
"-50 -332 OFFCURVE",
"66 -332 CURVE SMOOTH",
"244 -332 OFFCURVE",
"286 -260 OFFCURVE",
"286 -100 CURVE SMOOTH"
);
},
{
closed = 1;
nodes = (
"198 1444 LINE",
"198 1324 LINE",
"294 1324 LINE",
"294 1444 LINE"
);
}
);
width = 474;
}
);
leftKerningGroup = n;
rightKerningGroup = u;
rightMetricsKey = "=|n+10";
unicode = 006A;
},
{
glyphname = jdotless;
lastChange = "2019-05-07 21:27:06 +0000";
layers = (
{
anchors = (
{
name = top;
position = "{318, 1034}";
}
);
background = {
anchors = (
{
name = top;
position = "{288, 1060}";
}
);
paths = (
{
closed = 1;
nodes = (
"488 1020 LINE SMOOTH",
"488 1044 OFFCURVE",
"476 1060 OFFCURVE",
"452 1060 CURVE SMOOTH",
"128 1060 LINE SMOOTH",
"104 1060 OFFCURVE",
"88 1044 OFFCURVE",
"88 1014 CURVE SMOOTH",
"88 72 LINE SMOOTH",
"88 4 OFFCURVE",
"66 -12 OFFCURVE",
"40 -20 CURVE SMOOTH",
"-30 -32 LINE SMOOTH",
"-56 -38 OFFCURVE",
"-70 -64 OFFCURVE",
"-70 -86 CURVE SMOOTH",
"-68 -290 LINE SMOOTH",
"-68 -332 OFFCURVE",
"-44 -340 OFFCURVE",
"68 -340 CURVE SMOOTH",
"352 -340 OFFCURVE",
"488 -206 OFFCURVE",
"488 58 CURVE SMOOTH"
);
}
);
};
layerId = "258ED206-D907-4350-8EBA-CBDDA1C16BF7";
paths = (
{
closed = 1;
nodes = (
"514 1034 LINE",
"124 1034 LINE",
"124 56 LINE",
"124 14 OFFCURVE",
"102 -12 OFFCURVE",
"28 -28 CURVE",
"-30 -38 LINE",
"-28 -298 LINE",
"-28 -298 OFFCURVE",
"0 -332 OFFCURVE",
"104 -332 CURVE",
"380 -332 OFFCURVE",
"514 -200 OFFCURVE",
"514 56 CURVE SMOOTH"
);
}
);
width = 634;
},
{
anchors = (
{
name = top;
position = "{248, 1034}";
}
);
background = {
anchors = (
{
name = top;
position = "{256, 1060}";
}
);
paths = (
{
closed = 1;
nodes = (
"296 1040 LINE SMOOTH",
"296 1054 OFFCURVE",
"292 1060 OFFCURVE",
"280 1060 CURVE SMOOTH",
"236 1060 LINE SMOOTH",
"222 1060 OFFCURVE",
"216 1054 OFFCURVE",
"216 1040 CURVE SMOOTH",
"216 -92 LINE SMOOTH",
"216 -220 OFFCURVE",
"174 -264 OFFCURVE",
"68 -266 CURVE SMOOTH",
"-48 -268 LINE SMOOTH",
"-56 -268 OFFCURVE",
"-60 -272 OFFCURVE",
"-60 -280 CURVE SMOOTH",
"-60 -322 LINE SMOOTH",
"-60 -338 OFFCURVE",
"-48 -340 OFFCURVE",
"70 -340 CURVE SMOOTH",
"252 -340 OFFCURVE",
"296 -266 OFFCURVE",
"296 -102 CURVE SMOOTH"
);
}
);
};
layerId = "91AB5BCA-6A50-42DA-B2F7-8181BF189245";
paths = (
{
closed = 1;
nodes = (
"288 1034 LINE",
"210 1034 LINE",
"210 -90 LINE SMOOTH",
"210 -214 OFFCURVE",
"168 -258 OFFCURVE",
"66 -260 CURVE SMOOTH",
"-60 -262 LINE",
"-60 -314 LINE SMOOTH",
"-60 -330 OFFCURVE",
"-48 -332 OFFCURVE",
"68 -332 CURVE SMOOTH",
"244 -332 OFFCURVE",
"288 -260 OFFCURVE",
"288 -100 CURVE SMOOTH"
);
}
);
width = 468;
}
);
leftKerningGroup = n;
leftMetricsKey = j;
rightKerningGroup = u;
rightMetricsKey = j;
unicode = 0237;
},
{
glyphname = k;
lastChange = "2019-05-07 21:27:06 +0000";
layers = (
{
anchors = (
{
name = bottom;
position = "{626, 0}";
}
);
background = {
anchors = (
{
name = bottom;
position = "{604, 0}";
}
);
paths = (
{
closed = 1;
nodes = (
"910 674 LINE SMOOTH",
"892 710 OFFCURVE",
"896 722 OFFCURVE",
"914 744 CURVE SMOOTH",
"1172 1002 LINE SMOOTH",
"1198 1030 OFFCURVE",
"1190 1060 OFFCURVE",
"1144 1060 CURVE SMOOTH",
"870 1060 LINE SMOOTH",
"850 1060 OFFCURVE",
"828 1046 OFFCURVE",
"808 1026 CURVE SMOOTH",
"508 688 LINE SMOOTH",
"492 670 OFFCURVE",
"484 680 OFFCURVE",
"484 692 CURVE SMOOTH",
"484 1442 LINE SMOOTH",
"484 1468 OFFCURVE",
"472 1484 OFFCURVE",
"448 1484 CURVE SMOOTH",
"122 1484 LINE SMOOTH",
"100 1484 OFFCURVE",
"84 1468 OFFCURVE",
"84 1438 CURVE SMOOTH",
"84 50 LINE SMOOTH",
"84 16 OFFCURVE",
"96 0 OFFCURVE",
"138 0 CURVE SMOOTH",
"420 0 LINE SMOOTH",
"466 0 OFFCURVE",
"484 16 OFFCURVE",
"484 58 CURVE SMOOTH",
"484 260 LINE SMOOTH",
"484 292 OFFCURVE",
"490 306 OFFCURVE",
"502 316 CURVE SMOOTH",
"598 406 LINE SMOOTH",
"618 426 OFFCURVE",
"628 422 OFFCURVE",
"640 396 CURVE SMOOTH",
"784 52 LINE SMOOTH",
"798 20 OFFCURVE",
"816 0 OFFCURVE",
"850 0 CURVE SMOOTH",
"1192 0 LINE SMOOTH",
"1228 0 OFFCURVE",
"1242 34 OFFCURVE",
"1230 56 CURVE SMOOTH"
);
}
);
};
guideLines = (
{
angle = 50.4927;
position = "{265, 343}";
},
{
angle = 122;
position = "{406, 0}";
}
);
layerId = "258ED206-D907-4350-8EBA-CBDDA1C16BF7";
paths = (
{
closed = 1;
nodes = (
"822 606 LINE",
"1200 1034 LINE",
"794 1034 LINE",
"510 686 LINE",
"510 1486 LINE",
"120 1486 LINE",
"120 0 LINE",
"510 0 LINE",
"510 292 LINE",
"586 380 LINE",
"824 0 LINE",
"1202 0 LINE"
);
}
);
width = 1232;
},
{
anchors = (
{
name = bottom;
position = "{534, 0}";
}
);
background = {
anchors = (
{
name = bottom;
position = "{550, 0}";
}
);
paths = (
{
closed = 1;
nodes = (
"616 662 LINE SMOOTH",
"610 672 OFFCURVE",
"612 678 OFFCURVE",
"618 684 CURVE SMOOTH",
"956 1030 LINE SMOOTH",
"974 1048 OFFCURVE",
"972 1060 OFFCURVE",
"952 1060 CURVE SMOOTH",
"888 1060 LINE SMOOTH",
"874 1060 OFFCURVE",
"868 1056 OFFCURVE",
"854 1040 CURVE",
"286 458 LINE SMOOTH",
"270 442 OFFCURVE",
"266 444 OFFCURVE",
"266 468 CURVE SMOOTH",
"266 1464 LINE SMOOTH",
"266 1480 OFFCURVE",
"262 1484 OFFCURVE",
"248 1484 CURVE SMOOTH",
"204 1484 LINE SMOOTH",
"190 1484 OFFCURVE",
"186 1480 OFFCURVE",
"186 1464 CURVE SMOOTH",
"186 20 LINE SMOOTH",
"186 4 OFFCURVE",
"190 0 OFFCURVE",
"208 0 CURVE SMOOTH",
"242 0 LINE SMOOTH",
"262 0 OFFCURVE",
"266 4 OFFCURVE",
"266 24 CURVE SMOOTH",
"266 304 LINE SMOOTH",
"266 318 OFFCURVE",
"270 328 OFFCURVE",
"280 338 CURVE SMOOTH",
"536 598 LINE SMOOTH",
"546 608 OFFCURVE",
"548 604 OFFCURVE",
"552 598 CURVE SMOOTH",
"916 14 LINE SMOOTH",
"922 4 OFFCURVE",
"928 0 OFFCURVE",
"940 0 CURVE SMOOTH",
"1002 0 LINE SMOOTH",
"1020 0 OFFCURVE",
"1022 8 OFFCURVE",
"1012 24 CURVE SMOOTH"
);
}
);
};
guideLines = (
{
angle = 121.8697;
position = "{298, 140}";
}
);
layerId = "91AB5BCA-6A50-42DA-B2F7-8181BF189245";
rightMetricsKey = "=x";
paths = (
{
closed = 1;
nodes = (
"590 658 LINE",
"960 1034 LINE",
"850 1034 LINE",
"258 428 LINE",
"258 1486 LINE",
"180 1486 LINE",
"180 0 LINE",
"258 0 LINE",
"258 316 LINE",
"530 592 LINE",
"898 0 LINE",
"998 0 LINE"
);
}
);
width = 1098;
}
);
leftKerningGroup = n;
leftMetricsKey = "=n+10";
rightKerningGroup = x;
rightMetricsKey = "=x+10";
unicode = 006B;
},
{
glyphname = kgreenlandic;
lastChange = "2019-05-07 21:27:06 +0000";
layers = (
{
background = {
paths = (
{
closed = 1;
nodes = (
"910 674 LINE SMOOTH",
"892 710 OFFCURVE",
"896 722 OFFCURVE",
"914 744 CURVE SMOOTH",
"1172 1002 LINE SMOOTH",
"1198 1030 OFFCURVE",
"1190 1060 OFFCURVE",
"1144 1060 CURVE SMOOTH",
"870 1060 LINE SMOOTH",
"850 1060 OFFCURVE",
"828 1046 OFFCURVE",
"808 1026 CURVE SMOOTH",
"508 688 LINE SMOOTH",
"492 670 OFFCURVE",
"484 680 OFFCURVE",
"484 692 CURVE SMOOTH",
"484 1018 LINE SMOOTH",
"484 1044 OFFCURVE",
"472 1060 OFFCURVE",
"448 1060 CURVE SMOOTH",
"122 1060 LINE SMOOTH",
"100 1060 OFFCURVE",
"84 1044 OFFCURVE",
"84 1014 CURVE SMOOTH",
"84 50 LINE SMOOTH",
"84 16 OFFCURVE",
"96 0 OFFCURVE",
"138 0 CURVE SMOOTH",
"420 0 LINE SMOOTH",
"466 0 OFFCURVE",
"484 16 OFFCURVE",
"484 58 CURVE SMOOTH",
"484 260 LINE SMOOTH",
"484 292 OFFCURVE",
"490 306 OFFCURVE",
"502 316 CURVE SMOOTH",
"598 406 LINE SMOOTH",
"618 426 OFFCURVE",
"628 422 OFFCURVE",
"640 396 CURVE SMOOTH",
"784 52 LINE SMOOTH",
"798 20 OFFCURVE",
"816 0 OFFCURVE",
"850 0 CURVE SMOOTH",
"1192 0 LINE SMOOTH",
"1228 0 OFFCURVE",
"1242 34 OFFCURVE",
"1230 56 CURVE SMOOTH"
);
}
);
};
layerId = "258ED206-D907-4350-8EBA-CBDDA1C16BF7";
paths = (
{
closed = 1;
nodes = (
"904 700 LINE",
"1236 1034 LINE",
"854 1034 LINE",
"510 644 LINE",
"510 1034 LINE",
"120 1034 LINE",
"120 0 LINE",
"510 0 LINE",
"510 292 LINE",
"648 422 LINE",
"824 0 LINE",
"1264 0 LINE"
);
}
);
width = 1294;
},
{
background = {
paths = (
{
closed = 1;
nodes = (
"616 662 LINE SMOOTH",
"610 672 OFFCURVE",
"612 678 OFFCURVE",
"618 684 CURVE SMOOTH",
"956 1030 LINE SMOOTH",
"974 1048 OFFCURVE",
"972 1060 OFFCURVE",
"952 1060 CURVE SMOOTH",
"888 1060 LINE SMOOTH",
"874 1060 OFFCURVE",
"868 1056 OFFCURVE",
"854 1040 CURVE",
"286 458 LINE SMOOTH",
"270 442 OFFCURVE",
"266 444 OFFCURVE",
"266 468 CURVE SMOOTH",
"266 1040 LINE SMOOTH",
"266 1056 OFFCURVE",
"262 1060 OFFCURVE",
"248 1060 CURVE SMOOTH",
"204 1060 LINE SMOOTH",
"190 1060 OFFCURVE",
"186 1056 OFFCURVE",
"186 1040 CURVE SMOOTH",
"186 20 LINE SMOOTH",
"186 4 OFFCURVE",
"190 0 OFFCURVE",
"208 0 CURVE SMOOTH",
"242 0 LINE SMOOTH",
"262 0 OFFCURVE",
"266 4 OFFCURVE",
"266 24 CURVE SMOOTH",
"266 304 LINE SMOOTH",
"266 318 OFFCURVE",
"270 328 OFFCURVE",
"280 338 CURVE SMOOTH",
"536 598 LINE SMOOTH",
"546 608 OFFCURVE",
"548 604 OFFCURVE",
"552 598 CURVE SMOOTH",
"916 14 LINE SMOOTH",
"922 4 OFFCURVE",
"928 0 OFFCURVE",
"940 0 CURVE SMOOTH",
"1002 0 LINE SMOOTH",
"1020 0 OFFCURVE",
"1022 8 OFFCURVE",
"1012 24 CURVE SMOOTH"
);
}
);
};
layerId = "91AB5BCA-6A50-42DA-B2F7-8181BF189245";
paths = (
{
closed = 1;
nodes = (
"590 658 LINE",
"960 1034 LINE",
"850 1034 LINE",
"258 428 LINE",
"258 1034 LINE",
"180 1034 LINE",
"180 0 LINE",
"258 0 LINE",
"258 316 LINE",
"530 592 LINE",
"898 0 LINE",
"998 0 LINE"
);
}
);
width = 1098;
}
);
leftKerningGroup = n;
leftMetricsKey = k;
rightKerningGroup = x;
rightMetricsKey = k;
unicode = 0138;
},
{
glyphname = l;
lastChange = "2019-05-07 22:29:58 +0000";
layers = (
{
anchors = (
{
name = bottom;
position = "{276, 0}";
},
{
name = top;
position = "{304, 1530}";
},
{
name = topright;
position = "{790, 1530}";
}
);
background = {
anchors = (
{
name = bottom;
position = "{162, 0}";
},
{
name = top;
position = "{274, 1484}";
},
{
name = topright;
position = "{648, 1060}";
}
);
paths = (
{
closed = 1;
nodes = (
"628 258 LINE",
"628 258 OFFCURVE",
"576 262 OFFCURVE",
"558 266 CURVE SMOOTH",
"480 284 OFFCURVE",
"466 326 OFFCURVE",
"466 380 CURVE SMOOTH",
"466 1484 LINE",
"72 1484 LINE",
"66 346 LINE",
"66 190 OFFCURVE",
"88 -2 OFFCURVE",
"478 4 CURVE SMOOTH",
"530 6 OFFCURVE",
"562 10 OFFCURVE",
"628 18 CURVE"
);
}
);
};
layerId = "258ED206-D907-4350-8EBA-CBDDA1C16BF7";
leftMetricsKey = "=n";
paths = (
{
closed = 1;
nodes = (
"554 -22 OFFCURVE",
"604 -8 OFFCURVE",
"650 10 CURVE",
"650 246 LINE",
"608 250 LINE",
"504 264 OFFCURVE",
"492 314 OFFCURVE",
"492 364 CURVE SMOOTH",
"492 1486 LINE",
"110 1486 LINE",
"110 312 LINE",
"110 160 OFFCURVE",
"122 -22 OFFCURVE",
"504 -22 CURVE SMOOTH"
);
}
);
width = 690;
},
{
anchors = (
{
name = bottom;
position = "{240, 2}";
},
{
name = top;
position = "{192, 1524}";
},
{
name = topright;
position = "{476, 1446}";
}
);
background = {
anchors = (
{
name = bottom;
position = "{200, 0}";
},
{
name = top;
position = "{200, 1484}";
},
{
name = topright;
position = "{490, 1484}";
}
);
paths = (
{
closed = 1;
nodes = (
"460 72 LINE",
"440 72 OFFCURVE",
"414 72 OFFCURVE",
"382 72 CURVE SMOOTH",
"254 72 OFFCURVE",
"240 174 OFFCURVE",
"240 260 CURVE",
"240 1484 LINE",
"160 1484 LINE",
"160 260 LINE",
"160 114 OFFCURVE",
"216 4 OFFCURVE",
"358 4 CURVE SMOOTH",
"406 4 OFFCURVE",
"434 6 OFFCURVE",
"460 12 CURVE"
);
}
);
};
layerId = "91AB5BCA-6A50-42DA-B2F7-8181BF189245";
paths = (
{
closed = 1;
nodes = (
"366 -8 OFFCURVE",
"394 -6 OFFCURVE",
"418 0 CURVE",
"418 58 LINE",
"354 58 LINE",
"298 58 OFFCURVE",
"238 108 OFFCURVE",
"238 242 CURVE",
"238 1486 LINE",
"160 1486 LINE",
"160 242 LINE",
"160 100 OFFCURVE",
"214 -8 OFFCURVE",
"352 -8 CURVE SMOOTH"
);
}
);
width = 538;
}
);
leftKerningGroup = n;
leftMetricsKey = "=n-10";
rightKerningGroup = l;
rightMetricsKey = "=x+20";
unicode = 006C;
},
{
glyphname = lslash;
lastChange = "2019-05-07 21:27:06 +0000";
layers = (
{
background = {
components = (
{
name = l;
transform = "{1, 0, 0, 1, -38, 0}";
}
);
paths = (
{
closed = 1;
nodes = (
"612 1014 OFFCURVE",
"598 1022 OFFCURVE",
"564 1000 CURVE SMOOTH",
"2 648 LINE SMOOTH",
"-22 632 OFFCURVE",
"-36 610 OFFCURVE",
"-36 580 CURVE SMOOTH",
"-36 340 LINE SMOOTH",
"-36 306 OFFCURVE",
"-24 300 OFFCURVE",
"16 326 CURVE SMOOTH",
"572 690 LINE SMOOTH",
"598 708 OFFCURVE",
"612 732 OFFCURVE",
"612 756 CURVE SMOOTH",
"612 982 LINE SMOOTH"
);
}
);
};
components = (
{
name = l;
transform = "{1, 0, 0, 1, 80, 0}";
}
);
layerId = "258ED206-D907-4350-8EBA-CBDDA1C16BF7";
leftMetricsKey = "=l-30";
rightMetricsKey = "=l";
paths = (
{
closed = 1;
nodes = (
"80 608 LINE",
"80 284 LINE",
"712 698 LINE",
"712 1004 LINE"
);
}
);
width = 770;
},
{
background = {
components = (
{
name = l;
transform = "{1, 0, 0, 1, 58, 0}";
}
);
paths = (
{
closed = 1;
nodes = (
"526 874 OFFCURVE",
"522 878 OFFCURVE",
"512 870 CURVE SMOOTH",
"62 450 LINE SMOOTH",
"56 444 OFFCURVE",
"52 438 OFFCURVE",
"52 430 CURVE SMOOTH",
"52 372 LINE SMOOTH",
"52 362 OFFCURVE",
"56 354 OFFCURVE",
"66 362 CURVE SMOOTH",
"514 784 LINE SMOOTH",
"522 792 OFFCURVE",
"526 798 OFFCURVE",
"526 806 CURVE SMOOTH",
"526 866 LINE SMOOTH"
);
}
);
};
components = (
{
name = l;
transform = "{1, 0, 0, 1, 58, 0}";
}
);
layerId = "91AB5BCA-6A50-42DA-B2F7-8181BF189245";
leftMetricsKey = "=l-110";
paths = (
{
closed = 1;
nodes = (
"50 430 LINE",
"50 340 LINE",
"512 776 LINE",
"512 862 LINE"
);
}
);
width = 652;
}
);
leftKerningGroup = n;
leftMetricsKey = "=l-130";
rightKerningGroup = l;
rightMetricsKey = "=l+20";
unicode = 0142;
},
